<?xml version="1.0" encoding="UTF-8" standalone="no"?>
<!DOCTYPE svg PUBLIC "-//W3C//DTD SVG 1.1//EN"
 "http://www.w3.org/Graphics/SVG/1.1/DTD/svg11.dtd">
<!-- Generated by graphviz version 2.43.0 (0)
 -->
<!-- Title: default Pages: 1 -->
<svg width="1036pt" height="459pt"
 viewBox="0.00 0.00 1036.00 459.00" xmlns="http://www.w3.org/2000/svg" xmlns:xlink="http://www.w3.org/1999/xlink">
<g id="graph0" class="graph" transform="scale(1 1) rotate(0) translate(4 455)">
<title>default</title>
<polygon fill="white" stroke="transparent" points="-4,4 -4,-455 1032,-455 1032,4 -4,4"/>
<g id="clust1" class="cluster">
<title>cluster_Genesis</title>
<polygon fill="none" stroke="#d9d9d9" points="8,-368 8,-443 214,-443 214,-368 8,-368"/>
<text text-anchor="middle" x="111" y="-427.8" font-family="Times,serif" font-size="14.00">Genesis</text>
</g>
<g id="clust2" class="cluster">
<title>cluster_Byron</title>
<polygon fill="none" stroke="#d9d9d9" points="222,-152 222,-443 414,-443 414,-152 222,-152"/>
<text text-anchor="middle" x="318" y="-427.8" font-family="Times,serif" font-size="14.00">Byron</text>
</g>
<g id="clust3" class="cluster">
<title>cluster_Multiera</title>
<polygon fill="none" stroke="#d9d9d9" points="422,-8 422,-443 1020,-443 1020,-8 422,-8"/>
<text text-anchor="middle" x="721" y="-427.8" font-family="Times,serif" font-size="14.00">Multiera</text>
</g>
<!-- N0 -->
<g id="node1" class="node">
<title>N0</title>
<polygon fill="none" stroke="black" points="205.5,-412 16.5,-412 16.5,-376 205.5,-376 205.5,-412"/>
<text text-anchor="middle" x="111" y="-390.3" font-family="Times,serif" font-size="14.00">GenesisTransactionTask</text>
</g>
<!-- N1 -->
<g id="node2" class="node">
<title>N1</title>
<polygon fill="none" stroke="black" points="406,-412 230,-412 230,-376 406,-376 406,-412"/>
<text text-anchor="middle" x="318" y="-390.3" font-family="Times,serif" font-size="14.00">ByronTransactionTask</text>
</g>
<!-- N2 -->
<g id="node3" class="node">
<title>N2</title>
<polygon fill="none" stroke="black" points="392.5,-340 243.5,-340 243.5,-304 392.5,-304 392.5,-340"/>
<text text-anchor="middle" x="318" y="-318.3" font-family="Times,serif" font-size="14.00">ByronAddressTask</text>
</g>
<!-- N1&#45;&gt;N2 -->
<g id="edge1" class="edge">
<title>N1&#45;&gt;N2</title>
<path fill="none" stroke="black" d="M318,-375.7C318,-367.98 318,-358.71 318,-350.11"/>
<polygon fill="black" stroke="black" points="321.5,-350.1 318,-340.1 314.5,-350.1 321.5,-350.1"/>
</g>
<!-- N3 -->
<g id="node4" class="node">
<title>N3</title>
<polygon fill="none" stroke="black" points="389,-268 247,-268 247,-232 389,-232 389,-268"/>
<text text-anchor="middle" x="318" y="-246.3" font-family="Times,serif" font-size="14.00">ByronOutputTask</text>
</g>
<!-- N2&#45;&gt;N3 -->
<g id="edge2" class="edge">
<title>N2&#45;&gt;N3</title>
<path fill="none" stroke="black" d="M318,-303.7C318,-295.98 318,-286.71 318,-278.11"/>
<polygon fill="black" stroke="black" points="321.5,-278.1 318,-268.1 314.5,-278.1 321.5,-278.1"/>
</g>
<!-- N4 -->
<g id="node5" class="node">
<title>N4</title>
<polygon fill="none" stroke="black" points="383,-196 253,-196 253,-160 383,-160 383,-196"/>
<text text-anchor="middle" x="318" y="-174.3" font-family="Times,serif" font-size="14.00">ByronInputTask</text>
</g>
<!-- N3&#45;&gt;N4 -->
<g id="edge3" class="edge">
<title>N3&#45;&gt;N4</title>
<path fill="none" stroke="black" d="M318,-231.7C318,-223.98 318,-214.71 318,-206.11"/>
<polygon fill="black" stroke="black" points="321.5,-206.1 318,-196.1 314.5,-206.1 321.5,-206.1"/>
</g>
<!-- N5 -->
<g id="node6" class="node">
<title>N5</title>
<polygon fill="none" stroke="black" points="746,-412 552,-412 552,-376 746,-376 746,-412"/>
<text text-anchor="middle" x="649" y="-390.3" font-family="Times,serif" font-size="14.00">MultieraTransactionTask</text>
</g>
<!-- N6 -->
<g id="node7" class="node">
<title>N6</title>
<polygon fill="none" stroke="black" points="642.5,-340 463.5,-340 463.5,-304 642.5,-304 642.5,-340"/>
<text text-anchor="middle" x="553" y="-318.3" font-family="Times,serif" font-size="14.00">MultieraMetadataTask</text>
</g>
<!-- N5&#45;&gt;N6 -->
<g id="edge4" class="edge">
<title>N5&#45;&gt;N6</title>
<path fill="none" stroke="black" d="M625.27,-375.7C613.06,-366.8 598.01,-355.82 584.82,-346.2"/>
<polygon fill="black" stroke="black" points="586.6,-343.17 576.46,-340.1 582.48,-348.82 586.6,-343.17"/>
</g>
<!-- N7 -->
<g id="node8" class="node">
<title>N7</title>
<polygon fill="none" stroke="black" points="829,-340 661,-340 661,-304 829,-304 829,-340"/>
<text text-anchor="middle" x="745" y="-318.3" font-family="Times,serif" font-size="14.00">MultieraAddressTask</text>
</g>
<!-- N5&#45;&gt;N7 -->
<g id="edge5" class="edge">
<title>N5&#45;&gt;N7</title>
<path fill="none" stroke="black" d="M672.73,-375.7C684.94,-366.8 699.99,-355.82 713.18,-346.2"/>
<polygon fill="black" stroke="black" points="715.52,-348.82 721.54,-340.1 711.4,-343.17 715.52,-348.82"/>
</g>
<!-- N8 -->
<g id="node9" class="node">
<title>N8</title>
<polygon fill="none" stroke="black" points="825.5,-268 664.5,-268 664.5,-232 825.5,-232 825.5,-268"/>
<text text-anchor="middle" x="745" y="-246.3" font-family="Times,serif" font-size="14.00">MultieraOutputTask</text>
</g>
<!-- N7&#45;&gt;N8 -->
<g id="edge6" class="edge">
<title>N7&#45;&gt;N8</title>
<path fill="none" stroke="black" d="M745,-303.7C745,-295.98 745,-286.71 745,-278.11"/>
<polygon fill="black" stroke="black" points="748.5,-278.1 745,-268.1 741.5,-278.1 748.5,-278.1"/>
</g>
<!-- N12 -->
<g id="node13" class="node">
<title>N12</title>
<polygon fill="none" stroke="black" points="732,-52 430,-52 430,-16 732,-16 732,-52"/>
<text text-anchor="middle" x="581" y="-30.3" font-family="Times,serif" font-size="14.00">MultieraAddressCredentialRelationTask</text>
</g>
<!-- N7&#45;&gt;N12 -->
<g id="edge11" class="edge">
<title>N7&#45;&gt;N12</title>
<path fill="none" stroke="black" d="M685.43,-303.98C608.08,-280.52 479.76,-236.56 453,-196 418.5,-143.7 491.42,-87.46 540.72,-57.25"/>
<polygon fill="black" stroke="black" points="542.54,-60.24 549.32,-52.09 538.94,-54.23 542.54,-60.24"/>
</g>
<!-- N13 -->
<g id="node14" class="node">
<title>N13</title>
<polygon fill="none" stroke="black" points="1012,-52 750,-52 750,-16 1012,-16 1012,-52"/>
<text text-anchor="middle" x="881" y="-30.3" font-family="Times,serif" font-size="14.00">MultieraTxCredentialRelationTask</text>
</g>
<!-- N7&#45;&gt;N13 -->
<g id="edge13" class="edge">
<title>N7&#45;&gt;N13</title>
<path fill="none" stroke="black" d="M783.44,-303.92C800.63,-294.97 820.29,-282.78 835,-268 861.14,-241.75 866.89,-231.64 877,-196 889.89,-150.57 887.51,-95 884.4,-62.45"/>
<polygon fill="black" stroke="black" points="887.87,-61.92 883.34,-52.34 880.9,-62.65 887.87,-61.92"/>
</g>
<!-- N9 -->
<g id="node10" class="node">
<title>N9</title>
<polygon fill="none" stroke="black" points="646.5,-196 461.5,-196 461.5,-160 646.5,-160 646.5,-196"/>
<text text-anchor="middle" x="554" y="-174.3" font-family="Times,serif" font-size="14.00">MultieraUsedInputTask</text>
</g>
<!-- N8&#45;&gt;N9 -->
<g id="edge7" class="edge">
<title>N8&#45;&gt;N9</title>
<path fill="none" stroke="black" d="M698.28,-231.88C671.7,-222.14 638.24,-209.87 610.23,-199.61"/>
<polygon fill="black" stroke="black" points="611.17,-196.22 600.57,-196.07 608.76,-202.8 611.17,-196.22"/>
</g>
<!-- N10 -->
<g id="node11" class="node">
<title>N10</title>
<polygon fill="none" stroke="black" points="867.5,-196 664.5,-196 664.5,-160 867.5,-160 867.5,-196"/>
<text text-anchor="middle" x="766" y="-174.3" font-family="Times,serif" font-size="14.00">MultieraUnusedInputTask</text>
</g>
<!-- N8&#45;&gt;N10 -->
<g id="edge8" class="edge">
<title>N8&#45;&gt;N10</title>
<path fill="none" stroke="black" d="M750.19,-231.7C752.53,-223.9 755.35,-214.51 757.95,-205.83"/>
<polygon fill="black" stroke="black" points="761.35,-206.69 760.87,-196.1 754.64,-204.68 761.35,-206.69"/>
</g>
<!-- N11 -->
<g id="node12" class="node">
<title>N11</title>
<polygon fill="none" stroke="black" points="780,-124 554,-124 554,-88 780,-88 780,-124"/>
<text text-anchor="middle" x="667" y="-102.3" font-family="Times,serif" font-size="14.00">MultieraStakeCredentialTask</text>
</g>
<!-- N9&#45;&gt;N11 -->
<g id="edge9" class="edge">
<title>N9&#45;&gt;N11</title>
<path fill="none" stroke="black" d="M581.64,-159.88C596.42,-150.72 614.79,-139.34 630.7,-129.48"/>
<polygon fill="black" stroke="black" points="632.59,-132.43 639.25,-124.19 628.91,-126.48 632.59,-132.43"/>
</g>
<!-- N10&#45;&gt;N11 -->
<g id="edge10" class="edge">
<title>N10&#45;&gt;N11</title>
<path fill="none" stroke="black" d="M741.78,-159.88C729.08,-150.89 713.34,-139.76 699.58,-130.03"/>
<polygon fill="black" stroke="black" points="701.5,-127.11 691.31,-124.19 697.46,-132.82 701.5,-127.11"/>
</g>
<!-- N11&#45;&gt;N12 -->
<g id="edge12" class="edge">
<title>N11&#45;&gt;N12</title>
<path fill="none" stroke="black" d="M645.74,-87.7C634.91,-78.88 621.58,-68.03 609.84,-58.47"/>
<polygon fill="black" stroke="black" points="611.98,-55.7 602.01,-52.1 607.56,-61.13 611.98,-55.7"/>
</g>
<!-- N11&#45;&gt;N13 -->
<g id="edge14" class="edge">
<title>N11&#45;&gt;N13</title>
<path fill="none" stroke="black" d="M719.08,-87.97C749.24,-78.1 787.39,-65.62 819.08,-55.25"/>
<polygon fill="black" stroke="black" points="820.27,-58.55 828.69,-52.11 818.1,-51.89 820.27,-58.55"/>
</g>
</g>
</svg>
