<?xml version="1.0" encoding="UTF-8" standalone="no"?>
<!DOCTYPE svg PUBLIC "-//W3C//DTD SVG 1.1//EN"
 "http://www.w3.org/Graphics/SVG/1.1/DTD/svg11.dtd">
<!-- Generated by graphviz version 2.43.0 (0)
 -->
<!-- Title: default Pages: 1 -->
<svg width="1036pt" height="531pt"
 viewBox="0.00 0.00 1036.00 531.00" xmlns="http://www.w3.org/2000/svg" xmlns:xlink="http://www.w3.org/1999/xlink">
<g id="graph0" class="graph" transform="scale(1 1) rotate(0) translate(4 527)">
<title>default</title>
<polygon fill="white" stroke="transparent" points="-4,4 -4,-527 1032,-527 1032,4 -4,4"/>
<g id="clust1" class="cluster">
<title>cluster_Genesis</title>
<polygon fill="none" stroke="#d9d9d9" points="8,-368 8,-515 214,-515 214,-368 8,-368"/>
<text text-anchor="middle" x="111" y="-499.8" font-family="Times,serif" font-size="14.00">Genesis</text>
</g>
<g id="clust2" class="cluster">
<title>cluster_Byron</title>
<polygon fill="none" stroke="#d9d9d9" points="222,-152 222,-515 414,-515 414,-152 222,-152"/>
<text text-anchor="middle" x="318" y="-499.8" font-family="Times,serif" font-size="14.00">Byron</text>
</g>
<g id="clust3" class="cluster">
<title>cluster_Multiera</title>
<polygon fill="none" stroke="#d9d9d9" points="422,-8 422,-515 1020,-515 1020,-8 422,-8"/>
<text text-anchor="middle" x="721" y="-499.8" font-family="Times,serif" font-size="14.00">Multiera</text>
</g>
<!-- N0 -->
<g id="node1" class="node">
<title>N0</title>
<polygon fill="none" stroke="black" points="183,-484 39,-484 39,-448 183,-448 183,-484"/>
<text text-anchor="middle" x="111" y="-462.3" font-family="Times,serif" font-size="14.00">GenesisBlockTask</text>
</g>
<!-- N1 -->
<g id="node2" class="node">
<title>N1</title>
<polygon fill="none" stroke="black" points="205.5,-412 16.5,-412 16.5,-376 205.5,-376 205.5,-412"/>
<text text-anchor="middle" x="111" y="-390.3" font-family="Times,serif" font-size="14.00">GenesisTransactionTask</text>
</g>
<!-- N0&#45;&gt;N1 -->
<g id="edge1" class="edge">
<title>N0&#45;&gt;N1</title>
<path fill="none" stroke="black" d="M111,-447.7C111,-439.98 111,-430.71 111,-422.11"/>
<polygon fill="black" stroke="black" points="114.5,-422.1 111,-412.1 107.5,-422.1 114.5,-422.1"/>
</g>
<!-- N2 -->
<g id="node3" class="node">
<title>N2</title>
<polygon fill="none" stroke="black" points="383.5,-484 252.5,-484 252.5,-448 383.5,-448 383.5,-484"/>
<text text-anchor="middle" x="318" y="-462.3" font-family="Times,serif" font-size="14.00">ByronBlockTask</text>
</g>
<!-- N3 -->
<g id="node4" class="node">
<title>N3</title>
<polygon fill="none" stroke="black" points="406,-412 230,-412 230,-376 406,-376 406,-412"/>
<text text-anchor="middle" x="318" y="-390.3" font-family="Times,serif" font-size="14.00">ByronTransactionTask</text>
</g>
<!-- N2&#45;&gt;N3 -->
<g id="edge2" class="edge">
<title>N2&#45;&gt;N3</title>
<path fill="none" stroke="black" d="M318,-447.7C318,-439.98 318,-430.71 318,-422.11"/>
<polygon fill="black" stroke="black" points="321.5,-422.1 318,-412.1 314.5,-422.1 321.5,-422.1"/>
</g>
<!-- N4 -->
<g id="node5" class="node">
<title>N4</title>
<polygon fill="none" stroke="black" points="392.5,-340 243.5,-340 243.5,-304 392.5,-304 392.5,-340"/>
<text text-anchor="middle" x="318" y="-318.3" font-family="Times,serif" font-size="14.00">ByronAddressTask</text>
</g>
<!-- N3&#45;&gt;N4 -->
<g id="edge3" class="edge">
<title>N3&#45;&gt;N4</title>
<path fill="none" stroke="black" d="M318,-375.7C318,-367.98 318,-358.71 318,-350.11"/>
<polygon fill="black" stroke="black" points="321.5,-350.1 318,-340.1 314.5,-350.1 321.5,-350.1"/>
</g>
<!-- N5 -->
<g id="node6" class="node">
<title>N5</title>
<polygon fill="none" stroke="black" points="389,-268 247,-268 247,-232 389,-232 389,-268"/>
<text text-anchor="middle" x="318" y="-246.3" font-family="Times,serif" font-size="14.00">ByronOutputTask</text>
</g>
<!-- N4&#45;&gt;N5 -->
<g id="edge4" class="edge">
<title>N4&#45;&gt;N5</title>
<path fill="none" stroke="black" d="M318,-303.7C318,-295.98 318,-286.71 318,-278.11"/>
<polygon fill="black" stroke="black" points="321.5,-278.1 318,-268.1 314.5,-278.1 321.5,-278.1"/>
</g>
<!-- N6 -->
<g id="node7" class="node">
<title>N6</title>
<polygon fill="none" stroke="black" points="383,-196 253,-196 253,-160 383,-160 383,-196"/>
<text text-anchor="middle" x="318" y="-174.3" font-family="Times,serif" font-size="14.00">ByronInputTask</text>
</g>
<!-- N5&#45;&gt;N6 -->
<g id="edge5" class="edge">
<title>N5&#45;&gt;N6</title>
<path fill="none" stroke="black" d="M318,-231.7C318,-223.98 318,-214.71 318,-206.11"/>
<polygon fill="black" stroke="black" points="321.5,-206.1 318,-196.1 314.5,-206.1 321.5,-206.1"/>
</g>
<!-- N7 -->
<g id="node8" class="node">
<title>N7</title>
<polygon fill="none" stroke="black" points="795.5,-484 646.5,-484 646.5,-448 795.5,-448 795.5,-484"/>
<text text-anchor="middle" x="721" y="-462.3" font-family="Times,serif" font-size="14.00">MultieraBlockTask</text>
</g>
<!-- N8 -->
<g id="node9" class="node">
<title>N8</title>
<polygon fill="none" stroke="black" points="818,-412 624,-412 624,-376 818,-376 818,-412"/>
<text text-anchor="middle" x="721" y="-390.3" font-family="Times,serif" font-size="14.00">MultieraTransactionTask</text>
</g>
<!-- N7&#45;&gt;N8 -->
<g id="edge6" class="edge">
<title>N7&#45;&gt;N8</title>
<path fill="none" stroke="black" d="M721,-447.7C721,-439.98 721,-430.71 721,-422.11"/>
<polygon fill="black" stroke="black" points="724.5,-422.1 721,-412.1 717.5,-422.1 724.5,-422.1"/>
</g>
<!-- N9 -->
<g id="node10" class="node">
<title>N9</title>
<polygon fill="none" stroke="black" points="810.5,-340 631.5,-340 631.5,-304 810.5,-304 810.5,-340"/>
<text text-anchor="middle" x="721" y="-318.3" font-family="Times,serif" font-size="14.00">MultieraMetadataTask</text>
</g>
<!-- N8&#45;&gt;N9 -->
<g id="edge7" class="edge">
<title>N8&#45;&gt;N9</title>
<path fill="none" stroke="black" d="M721,-375.7C721,-367.98 721,-358.71 721,-350.11"/>
<polygon fill="black" stroke="black" points="724.5,-350.1 721,-340.1 717.5,-350.1 724.5,-350.1"/>
</g>
<!-- N10 -->
<g id="node11" class="node">
<title>N10</title>
<polygon fill="none" stroke="black" points="997,-340 829,-340 829,-304 997,-304 997,-340"/>
<text text-anchor="middle" x="913" y="-318.3" font-family="Times,serif" font-size="14.00">MultieraAddressTask</text>
</g>
<!-- N8&#45;&gt;N10 -->
<g id="edge8" class="edge">
<title>N8&#45;&gt;N10</title>
<path fill="none" stroke="black" d="M767.97,-375.88C794.68,-366.14 828.32,-353.87 856.47,-343.61"/>
<polygon fill="black" stroke="black" points="857.99,-346.78 866.18,-340.07 855.59,-340.21 857.99,-346.78"/>
</g>
<!-- N17 -->
<g id="node18" class="node">
<title>N17</title>
<polygon fill="none" stroke="black" points="613.5,-340 430.5,-340 430.5,-304 613.5,-304 613.5,-340"/>
<text text-anchor="middle" x="522" y="-318.3" font-family="Times,serif" font-size="14.00">MultieraAssetMintTask</text>
</g>
<!-- N8&#45;&gt;N17 -->
<g id="edge18" class="edge">
<title>N8&#45;&gt;N17</title>
<path fill="none" stroke="black" d="M672.57,-375.97C644.77,-366.19 609.66,-353.84 580.35,-343.52"/>
<polygon fill="black" stroke="black" points="581.24,-340.13 570.64,-340.11 578.92,-346.73 581.24,-340.13"/>
</g>
<!-- N18 -->
<g id="node19" class="node">
<title>N18</title>
<polygon fill="none" stroke="black" points="623.5,-268 430.5,-268 430.5,-232 623.5,-232 623.5,-268"/>
<text text-anchor="middle" x="527" y="-246.3" font-family="Times,serif" font-size="14.00">MultieraCip25EntryTask</text>
</g>
<!-- N9&#45;&gt;N18 -->
<g id="edge19" class="edge">
<title>N9&#45;&gt;N18</title>
<path fill="none" stroke="black" d="M673.54,-303.88C646.43,-294.09 612.26,-281.77 583.74,-271.47"/>
<polygon fill="black" stroke="black" points="584.9,-268.17 574.3,-268.07 582.52,-274.75 584.9,-268.17"/>
</g>
<!-- N11 -->
<g id="node12" class="node">
<title>N11</title>
<polygon fill="none" stroke="black" points="971.5,-268 810.5,-268 810.5,-232 971.5,-232 971.5,-268"/>
<text text-anchor="middle" x="891" y="-246.3" font-family="Times,serif" font-size="14.00">MultieraOutputTask</text>
</g>
<!-- N10&#45;&gt;N11 -->
<g id="edge9" class="edge">
<title>N10&#45;&gt;N11</title>
<path fill="none" stroke="black" d="M907.56,-303.7C905.11,-295.9 902.16,-286.51 899.43,-277.83"/>
<polygon fill="black" stroke="black" points="902.71,-276.59 896.38,-268.1 896.04,-278.69 902.71,-276.59"/>
</g>
<!-- N15 -->
<g id="node16" class="node">
<title>N15</title>
<polygon fill="none" stroke="black" points="732,-52 430,-52 430,-16 732,-16 732,-52"/>
<text text-anchor="middle" x="581" y="-30.3" font-family="Times,serif" font-size="14.00">MultieraAddressCredentialRelationTask</text>
</g>
<!-- N10&#45;&gt;N15 -->
<g id="edge14" class="edge">
<title>N10&#45;&gt;N15</title>
<path fill="none" stroke="black" d="M857.08,-303.96C766.13,-275.7 594.57,-219.87 578,-196 550.33,-156.15 561.56,-96.34 571.66,-61.94"/>
<polygon fill="black" stroke="black" points="575.08,-62.72 574.71,-52.14 568.4,-60.64 575.08,-62.72"/>
</g>
<!-- N16 -->
<g id="node17" class="node">
<title>N16</title>
<polygon fill="none" stroke="black" points="1012,-52 750,-52 750,-16 1012,-16 1012,-52"/>
<text text-anchor="middle" x="881" y="-30.3" font-family="Times,serif" font-size="14.00">MultieraTxCredentialRelationTask</text>
</g>
<!-- N10&#45;&gt;N16 -->
<g id="edge16" class="edge">
<title>N10&#45;&gt;N16</title>
<path fill="none" stroke="black" d="M942.67,-303.91C956.12,-294.81 971.17,-282.49 981,-268 1010.42,-224.65 1022.46,-200.24 1002,-152 984.87,-111.6 946.2,-78.34 917.15,-57.74"/>
<polygon fill="black" stroke="black" points="919.08,-54.82 908.86,-52.01 915.1,-60.58 919.08,-54.82"/>
</g>
<!-- N12 -->
<g id="node13" class="node">
<title>N12</title>
<polygon fill="none" stroke="black" points="771.5,-196 586.5,-196 586.5,-160 771.5,-160 771.5,-196"/>
<text text-anchor="middle" x="679" y="-174.3" font-family="Times,serif" font-size="14.00">MultieraUsedInputTask</text>
</g>
<!-- N11&#45;&gt;N12 -->
<g id="edge10" class="edge">
<title>N11&#45;&gt;N12</title>
<path fill="none" stroke="black" d="M839.41,-231.97C809.53,-222.1 771.74,-209.62 740.34,-199.25"/>
<polygon fill="black" stroke="black" points="741.41,-195.92 730.82,-196.11 739.22,-202.57 741.41,-195.92"/>
</g>
<!-- N13 -->
<g id="node14" class="node">
<title>N13</title>
<polygon fill="none" stroke="black" points="992.5,-196 789.5,-196 789.5,-160 992.5,-160 992.5,-196"/>
<text text-anchor="middle" x="891" y="-174.3" font-family="Times,serif" font-size="14.00">MultieraUnusedInputTask</text>
</g>
<!-- N11&#45;&gt;N13 -->
<g id="edge11" class="edge">
<title>N11&#45;&gt;N13</title>
<path fill="none" stroke="black" d="M891,-231.7C891,-223.98 891,-214.71 891,-206.11"/>
<polygon fill="black" stroke="black" points="894.5,-206.1 891,-196.1 887.5,-206.1 894.5,-206.1"/>
</g>
<!-- N14 -->
<g id="node15" class="node">
<title>N14</title>
<polygon fill="none" stroke="black" points="902,-124 676,-124 676,-88 902,-88 902,-124"/>
<text text-anchor="middle" x="789" y="-102.3" font-family="Times,serif" font-size="14.00">MultieraStakeCredentialTask</text>
</g>
<!-- N12&#45;&gt;N14 -->
<g id="edge12" class="edge">
<title>N12&#45;&gt;N14</title>
<path fill="none" stroke="black" d="M705.91,-159.88C720.16,-150.81 737.85,-139.55 753.24,-129.76"/>
<polygon fill="black" stroke="black" points="755.43,-132.51 761.99,-124.19 751.67,-126.61 755.43,-132.51"/>
</g>
<!-- N13&#45;&gt;N14 -->
<g id="edge13" class="edge">
<title>N13&#45;&gt;N14</title>
<path fill="none" stroke="black" d="M866.05,-159.88C852.96,-150.89 836.74,-139.76 822.56,-130.03"/>
<polygon fill="black" stroke="black" points="824.27,-126.96 814.05,-124.19 820.31,-132.73 824.27,-126.96"/>
</g>
<!-- N14&#45;&gt;N15 -->
<g id="edge15" class="edge">
<title>N14&#45;&gt;N15</title>
<path fill="none" stroke="black" d="M738.38,-87.97C709.19,-78.14 672.31,-65.73 641.58,-55.39"/>
<polygon fill="black" stroke="black" points="642.44,-51.98 631.84,-52.11 640.2,-58.62 642.44,-51.98"/>
</g>
<!-- N14&#45;&gt;N16 -->
<g id="edge17" class="edge">
<title>N14&#45;&gt;N16</title>
<path fill="none" stroke="black" d="M811.74,-87.7C823.44,-78.8 837.86,-67.82 850.51,-58.2"/>
<polygon fill="black" stroke="black" points="852.68,-60.94 858.52,-52.1 848.44,-55.37 852.68,-60.94"/>
</g>
<!-- N17&#45;&gt;N18 -->
<g id="edge20" class="edge">
<title>N17&#45;&gt;N18</title>
<path fill="none" stroke="black" d="M523.24,-303.7C523.79,-295.98 524.45,-286.71 525.06,-278.11"/>
<polygon fill="black" stroke="black" points="528.56,-278.33 525.78,-268.1 521.57,-277.83 528.56,-278.33"/>
</g>
</g>
</svg>
