<?xml version="1.0" encoding="UTF-8" standalone="no"?>
<!DOCTYPE svg PUBLIC "-//W3C//DTD SVG 1.1//EN"
 "http://www.w3.org/Graphics/SVG/1.1/DTD/svg11.dtd">
<!-- Generated by graphviz version 2.43.0 (0)
 -->
<!-- Title: default Pages: 1 -->
<svg width="1337pt" height="531pt"
 viewBox="0.00 0.00 1337.00 531.00" xmlns="http://www.w3.org/2000/svg" xmlns:xlink="http://www.w3.org/1999/xlink">
<g id="graph0" class="graph" transform="scale(1 1) rotate(0) translate(4 527)">
<title>default</title>
<polygon fill="white" stroke="transparent" points="-4,4 -4,-527 1333,-527 1333,4 -4,4"/>
<g id="clust1" class="cluster">
<title>cluster_Genesis</title>
<polygon fill="none" stroke="#d9d9d9" points="8,-368 8,-515 214,-515 214,-368 8,-368"/>
<text text-anchor="middle" x="111" y="-499.8" font-family="Times,serif" font-size="14.00">Genesis</text>
</g>
<g id="clust2" class="cluster">
<title>cluster_Byron</title>
<polygon fill="none" stroke="#d9d9d9" points="222,-152 222,-515 612,-515 612,-152 222,-152"/>
<text text-anchor="middle" x="417" y="-499.8" font-family="Times,serif" font-size="14.00">Byron</text>
</g>
<g id="clust3" class="cluster">
<title>cluster_Multiera</title>
<polygon fill="none" stroke="#d9d9d9" points="620,-8 620,-515 1321,-515 1321,-8 620,-8"/>
<text text-anchor="middle" x="970.5" y="-499.8" font-family="Times,serif" font-size="14.00">Multiera</text>
</g>
<!-- N0 -->
<g id="node1" class="node">
<title>N0</title>
<polygon fill="none" stroke="black" points="183,-484 39,-484 39,-448 183,-448 183,-484"/>
<text text-anchor="middle" x="111" y="-462.3" font-family="Times,serif" font-size="14.00">GenesisBlockTask</text>
</g>
<!-- N1 -->
<g id="node2" class="node">
<title>N1</title>
<polygon fill="none" stroke="black" points="205.5,-412 16.5,-412 16.5,-376 205.5,-376 205.5,-412"/>
<text text-anchor="middle" x="111" y="-390.3" font-family="Times,serif" font-size="14.00">GenesisTransactionTask</text>
</g>
<!-- N0&#45;&gt;N1 -->
<g id="edge1" class="edge">
<title>N0&#45;&gt;N1</title>
<path fill="none" stroke="black" d="M111,-447.7C111,-439.98 111,-430.71 111,-422.11"/>
<polygon fill="black" stroke="black" points="114.5,-422.1 111,-412.1 107.5,-422.1 114.5,-422.1"/>
</g>
<!-- N2 -->
<g id="node3" class="node">
<title>N2</title>
<polygon fill="none" stroke="black" points="481.5,-484 350.5,-484 350.5,-448 481.5,-448 481.5,-484"/>
<text text-anchor="middle" x="416" y="-462.3" font-family="Times,serif" font-size="14.00">ByronBlockTask</text>
</g>
<!-- N3 -->
<g id="node4" class="node">
<title>N3</title>
<polygon fill="none" stroke="black" points="406,-412 230,-412 230,-376 406,-376 406,-412"/>
<text text-anchor="middle" x="318" y="-390.3" font-family="Times,serif" font-size="14.00">ByronTransactionTask</text>
</g>
<!-- N2&#45;&gt;N3 -->
<g id="edge2" class="edge">
<title>N2&#45;&gt;N3</title>
<path fill="none" stroke="black" d="M392.03,-447.88C379.45,-438.89 363.87,-427.76 350.25,-418.03"/>
<polygon fill="black" stroke="black" points="352.24,-415.15 342.07,-412.19 348.17,-420.85 352.24,-415.15"/>
</g>
<!-- N7 -->
<g id="node8" class="node">
<title>N7</title>
<polygon fill="none" stroke="black" points="603.5,-412 424.5,-412 424.5,-376 603.5,-376 603.5,-412"/>
<text text-anchor="middle" x="514" y="-390.3" font-family="Times,serif" font-size="14.00">ByronBlockMinterTask</text>
</g>
<!-- N2&#45;&gt;N7 -->
<g id="edge6" class="edge">
<title>N2&#45;&gt;N7</title>
<path fill="none" stroke="black" d="M439.97,-447.88C452.55,-438.89 468.13,-427.76 481.75,-418.03"/>
<polygon fill="black" stroke="black" points="483.83,-420.85 489.93,-412.19 479.76,-415.15 483.83,-420.85"/>
</g>
<!-- N4 -->
<g id="node5" class="node">
<title>N4</title>
<polygon fill="none" stroke="black" points="392.5,-340 243.5,-340 243.5,-304 392.5,-304 392.5,-340"/>
<text text-anchor="middle" x="318" y="-318.3" font-family="Times,serif" font-size="14.00">ByronAddressTask</text>
</g>
<!-- N3&#45;&gt;N4 -->
<g id="edge3" class="edge">
<title>N3&#45;&gt;N4</title>
<path fill="none" stroke="black" d="M318,-375.7C318,-367.98 318,-358.71 318,-350.11"/>
<polygon fill="black" stroke="black" points="321.5,-350.1 318,-340.1 314.5,-350.1 321.5,-350.1"/>
</g>
<!-- N5 -->
<g id="node6" class="node">
<title>N5</title>
<polygon fill="none" stroke="black" points="389,-268 247,-268 247,-232 389,-232 389,-268"/>
<text text-anchor="middle" x="318" y="-246.3" font-family="Times,serif" font-size="14.00">ByronOutputTask</text>
</g>
<!-- N4&#45;&gt;N5 -->
<g id="edge4" class="edge">
<title>N4&#45;&gt;N5</title>
<path fill="none" stroke="black" d="M318,-303.7C318,-295.98 318,-286.71 318,-278.11"/>
<polygon fill="black" stroke="black" points="321.5,-278.1 318,-268.1 314.5,-278.1 321.5,-278.1"/>
</g>
<!-- N6 -->
<g id="node7" class="node">
<title>N6</title>
<polygon fill="none" stroke="black" points="383,-196 253,-196 253,-160 383,-160 383,-196"/>
<text text-anchor="middle" x="318" y="-174.3" font-family="Times,serif" font-size="14.00">ByronInputTask</text>
</g>
<!-- N5&#45;&gt;N6 -->
<g id="edge5" class="edge">
<title>N5&#45;&gt;N6</title>
<path fill="none" stroke="black" d="M318,-231.7C318,-223.98 318,-214.71 318,-206.11"/>
<polygon fill="black" stroke="black" points="321.5,-206.1 318,-196.1 314.5,-206.1 321.5,-206.1"/>
</g>
<!-- N8 -->
<g id="node9" class="node">
<title>N8</title>
<polygon fill="none" stroke="black" points="993.5,-484 844.5,-484 844.5,-448 993.5,-448 993.5,-484"/>
<text text-anchor="middle" x="919" y="-462.3" font-family="Times,serif" font-size="14.00">MultieraBlockTask</text>
</g>
<!-- N9 -->
<g id="node10" class="node">
<title>N9</title>
<polygon fill="none" stroke="black" points="1016,-412 822,-412 822,-376 1016,-376 1016,-412"/>
<text text-anchor="middle" x="919" y="-390.3" font-family="Times,serif" font-size="14.00">MultieraTransactionTask</text>
</g>
<!-- N8&#45;&gt;N9 -->
<g id="edge7" class="edge">
<title>N8&#45;&gt;N9</title>
<path fill="none" stroke="black" d="M919,-447.7C919,-439.98 919,-430.71 919,-422.11"/>
<polygon fill="black" stroke="black" points="922.5,-422.1 919,-412.1 915.5,-422.1 922.5,-422.1"/>
</g>
<!-- N10 -->
<g id="node11" class="node">
<title>N10</title>
<polygon fill="none" stroke="black" points="1008.5,-340 829.5,-340 829.5,-304 1008.5,-304 1008.5,-340"/>
<text text-anchor="middle" x="919" y="-318.3" font-family="Times,serif" font-size="14.00">MultieraMetadataTask</text>
</g>
<!-- N9&#45;&gt;N10 -->
<g id="edge8" class="edge">
<title>N9&#45;&gt;N10</title>
<path fill="none" stroke="black" d="M919,-375.7C919,-367.98 919,-358.71 919,-350.11"/>
<polygon fill="black" stroke="black" points="922.5,-350.1 919,-340.1 915.5,-350.1 922.5,-350.1"/>
</g>
<!-- N11 -->
<g id="node12" class="node">
<title>N11</title>
<polygon fill="none" stroke="black" points="1195,-340 1027,-340 1027,-304 1195,-304 1195,-340"/>
<text text-anchor="middle" x="1111" y="-318.3" font-family="Times,serif" font-size="14.00">MultieraAddressTask</text>
</g>
<!-- N9&#45;&gt;N11 -->
<g id="edge9" class="edge">
<title>N9&#45;&gt;N11</title>
<path fill="none" stroke="black" d="M965.97,-375.88C992.68,-366.14 1026.32,-353.87 1054.47,-343.61"/>
<polygon fill="black" stroke="black" points="1055.99,-346.78 1064.18,-340.07 1053.59,-340.21 1055.99,-346.78"/>
</g>
<!-- N19 -->
<g id="node20" class="node">
<title>N19</title>
<polygon fill="none" stroke="black" points="811.5,-340 628.5,-340 628.5,-304 811.5,-304 811.5,-340"/>
<text text-anchor="middle" x="720" y="-318.3" font-family="Times,serif" font-size="14.00">MultieraAssetMintTask</text>
</g>
<!-- N9&#45;&gt;N19 -->
<g id="edge20" class="edge">
<title>N9&#45;&gt;N19</title>
<path fill="none" stroke="black" d="M870.57,-375.97C842.77,-366.19 807.66,-353.84 778.35,-343.52"/>
<polygon fill="black" stroke="black" points="779.24,-340.13 768.64,-340.11 776.92,-346.73 779.24,-340.13"/>
</g>
<!-- N20 -->
<g id="node21" class="node">
<title>N20</title>
<polygon fill="none" stroke="black" points="821.5,-268 628.5,-268 628.5,-232 821.5,-232 821.5,-268"/>
<text text-anchor="middle" x="725" y="-246.3" font-family="Times,serif" font-size="14.00">MultieraCip25EntryTask</text>
</g>
<!-- N10&#45;&gt;N20 -->
<g id="edge21" class="edge">
<title>N10&#45;&gt;N20</title>
<path fill="none" stroke="black" d="M871.54,-303.88C844.43,-294.09 810.26,-281.77 781.74,-271.47"/>
<polygon fill="black" stroke="black" points="782.9,-268.17 772.3,-268.07 780.52,-274.75 782.9,-268.17"/>
</g>
<!-- N12 -->
<g id="node13" class="node">
<title>N12</title>
<polygon fill="none" stroke="black" points="1125.5,-268 964.5,-268 964.5,-232 1125.5,-232 1125.5,-268"/>
<text text-anchor="middle" x="1045" y="-246.3" font-family="Times,serif" font-size="14.00">MultieraOutputTask</text>
</g>
<!-- N11&#45;&gt;N12 -->
<g id="edge10" class="edge">
<title>N11&#45;&gt;N12</title>
<path fill="none" stroke="black" d="M1094.69,-303.7C1086.69,-295.22 1076.93,-284.86 1068.18,-275.58"/>
<polygon fill="black" stroke="black" points="1070.53,-272.98 1061.13,-268.1 1065.44,-277.78 1070.53,-272.98"/>
</g>
<!-- N17 -->
<g id="node18" class="node">
<title>N17</title>
<polygon fill="none" stroke="black" points="956,-52 654,-52 654,-16 956,-16 956,-52"/>
<text text-anchor="middle" x="805" y="-30.3" font-family="Times,serif" font-size="14.00">MultieraAddressCredentialRelationTask</text>
</g>
<!-- N11&#45;&gt;N17 -->
<g id="edge16" class="edge">
<title>N11&#45;&gt;N17</title>
<path fill="none" stroke="black" d="M1063.45,-303.94C1008.15,-284.55 913.84,-252.89 831,-232 747.24,-210.88 695.14,-262.5 640,-196 594.89,-141.6 690.5,-85.65 754.17,-56.17"/>
<polygon fill="black" stroke="black" points="755.66,-59.34 763.31,-52.02 752.76,-52.97 755.66,-59.34"/>
</g>
<!-- N18 -->
<g id="node19" class="node">
<title>N18</title>
<polygon fill="none" stroke="black" points="1262,-52 1000,-52 1000,-16 1262,-16 1262,-52"/>
<text text-anchor="middle" x="1131" y="-30.3" font-family="Times,serif" font-size="14.00">MultieraTxCredentialRelationTask</text>
</g>
<!-- N11&#45;&gt;N18 -->
<g id="edge18" class="edge">
<title>N11&#45;&gt;N18</title>
<path fill="none" stroke="black" d="M1162.02,-303.83C1208.18,-285.25 1273.33,-250.72 1303,-196 1336.38,-134.44 1248.18,-83.21 1186.09,-56.03"/>
<polygon fill="black" stroke="black" points="1187.33,-52.75 1176.76,-52.03 1184.57,-59.18 1187.33,-52.75"/>
</g>
<!-- N13 -->
<g id="node14" class="node">
<title>N13</title>
<polygon fill="none" stroke="black" points="869.5,-196 648.5,-196 648.5,-160 869.5,-160 869.5,-196"/>
<text text-anchor="middle" x="759" y="-174.3" font-family="Times,serif" font-size="14.00">MultieraReferenceInputTask</text>
</g>
<!-- N12&#45;&gt;N13 -->
<g id="edge11" class="edge">
<title>N12&#45;&gt;N13</title>
<path fill="none" stroke="black" d="M975.4,-231.97C934.14,-221.87 881.69,-209.03 838.76,-198.52"/>
<polygon fill="black" stroke="black" points="839.46,-195.09 828.91,-196.11 837.79,-201.89 839.46,-195.09"/>
</g>
<!-- N14 -->
<g id="node15" class="node">
<title>N14</title>
<polygon fill="none" stroke="black" points="1072.5,-196 887.5,-196 887.5,-160 1072.5,-160 1072.5,-196"/>
<text text-anchor="middle" x="980" y="-174.3" font-family="Times,serif" font-size="14.00">MultieraUsedInputTask</text>
</g>
<!-- N12&#45;&gt;N14 -->
<g id="edge12" class="edge">
<title>N12&#45;&gt;N14</title>
<path fill="none" stroke="black" d="M1028.93,-231.7C1021.06,-223.22 1011.44,-212.86 1002.83,-203.58"/>
<polygon fill="black" stroke="black" points="1005.25,-201.05 995.88,-196.1 1000.12,-205.81 1005.25,-201.05"/>
</g>
<!-- N15 -->
<g id="node16" class="node">
<title>N15</title>
<polygon fill="none" stroke="black" points="1293.5,-196 1090.5,-196 1090.5,-160 1293.5,-160 1293.5,-196"/>
<text text-anchor="middle" x="1192" y="-174.3" font-family="Times,serif" font-size="14.00">MultieraUnusedInputTask</text>
</g>
<!-- N12&#45;&gt;N15 -->
<g id="edge13" class="edge">
<title>N12&#45;&gt;N15</title>
<path fill="none" stroke="black" d="M1080.96,-231.88C1100.88,-222.39 1125.82,-210.51 1147.02,-200.42"/>
<polygon fill="black" stroke="black" points="1148.63,-203.53 1156.16,-196.07 1145.62,-197.21 1148.63,-203.53"/>
</g>
<!-- N16 -->
<g id="node17" class="node">
<title>N16</title>
<polygon fill="none" stroke="black" points="1168,-124 942,-124 942,-88 1168,-88 1168,-124"/>
<text text-anchor="middle" x="1055" y="-102.3" font-family="Times,serif" font-size="14.00">MultieraStakeCredentialTask</text>
</g>
<!-- N14&#45;&gt;N16 -->
<g id="edge14" class="edge">
<title>N14&#45;&gt;N16</title>
<path fill="none" stroke="black" d="M998.54,-159.7C1007.8,-151.05 1019.16,-140.45 1029.26,-131.03"/>
<polygon fill="black" stroke="black" points="1031.75,-133.49 1036.67,-124.1 1026.98,-128.37 1031.75,-133.49"/>
</g>
<!-- N15&#45;&gt;N16 -->
<g id="edge15" class="edge">
<title>N15&#45;&gt;N16</title>
<path fill="none" stroke="black" d="M1158.49,-159.88C1140.16,-150.51 1117.26,-138.81 1097.67,-128.8"/>
<polygon fill="black" stroke="black" points="1099.14,-125.62 1088.64,-124.19 1095.96,-131.86 1099.14,-125.62"/>
</g>
<!-- N16&#45;&gt;N17 -->
<g id="edge17" class="edge">
<title>N16&#45;&gt;N17</title>
<path fill="none" stroke="black" d="M994.16,-87.97C958.47,-77.97 913.21,-65.3 875.91,-54.85"/>
<polygon fill="black" stroke="black" points="876.68,-51.44 866.11,-52.11 874.8,-58.18 876.68,-51.44"/>
</g>
<!-- N16&#45;&gt;N18 -->
<g id="edge19" class="edge">
<title>N16&#45;&gt;N18</title>
<path fill="none" stroke="black" d="M1073.79,-87.7C1083.17,-79.05 1094.68,-68.45 1104.91,-59.03"/>
<polygon fill="black" stroke="black" points="1107.45,-61.45 1112.43,-52.1 1102.7,-56.3 1107.45,-61.45"/>
</g>
<!-- N19&#45;&gt;N20 -->
<g id="edge22" class="edge">
<title>N19&#45;&gt;N20</title>
<path fill="none" stroke="black" d="M721.24,-303.7C721.79,-295.98 722.45,-286.71 723.06,-278.11"/>
<polygon fill="black" stroke="black" points="726.56,-278.33 723.78,-268.1 719.57,-277.83 726.56,-278.33"/>
</g>
</g>
</svg>
