<?xml version="1.0" encoding="UTF-8" standalone="no"?>
<!DOCTYPE svg PUBLIC "-//W3C//DTD SVG 1.1//EN"
 "http://www.w3.org/Graphics/SVG/1.1/DTD/svg11.dtd">
<!-- Generated by graphviz version 2.43.0 (0)
 -->
<!-- Title: default Pages: 1 -->
<svg width="1300pt" height="531pt"
 viewBox="0.00 0.00 1300.00 531.00" xmlns="http://www.w3.org/2000/svg" xmlns:xlink="http://www.w3.org/1999/xlink">
<g id="graph0" class="graph" transform="scale(1 1) rotate(0) translate(4 527)">
<title>default</title>
<polygon fill="white" stroke="transparent" points="-4,4 -4,-527 1296,-527 1296,4 -4,4"/>
<g id="clust1" class="cluster">
<title>cluster_Genesis</title>
<polygon fill="none" stroke="#d9d9d9" points="8,-368 8,-515 214,-515 214,-368 8,-368"/>
<text text-anchor="middle" x="111" y="-499.8" font-family="Times,serif" font-size="14.00">Genesis</text>
</g>
<g id="clust2" class="cluster">
<title>cluster_Byron</title>
<polygon fill="none" stroke="#d9d9d9" points="222,-152 222,-515 414,-515 414,-152 222,-152"/>
<text text-anchor="middle" x="318" y="-499.8" font-family="Times,serif" font-size="14.00">Byron</text>
</g>
<g id="clust3" class="cluster">
<title>cluster_Multiera</title>
<polygon fill="none" stroke="#d9d9d9" points="422,-8 422,-515 1284,-515 1284,-8 422,-8"/>
<text text-anchor="middle" x="853" y="-499.8" font-family="Times,serif" font-size="14.00">Multiera</text>
</g>
<!-- N0 -->
<g id="node1" class="node">
<title>N0</title>
<polygon fill="none" stroke="black" points="183,-484 39,-484 39,-448 183,-448 183,-484"/>
<text text-anchor="middle" x="111" y="-462.3" font-family="Times,serif" font-size="14.00">GenesisBlockTask</text>
</g>
<!-- N1 -->
<g id="node2" class="node">
<title>N1</title>
<polygon fill="none" stroke="black" points="205.5,-412 16.5,-412 16.5,-376 205.5,-376 205.5,-412"/>
<text text-anchor="middle" x="111" y="-390.3" font-family="Times,serif" font-size="14.00">GenesisTransactionTask</text>
</g>
<!-- N0&#45;&gt;N1 -->
<g id="edge1" class="edge">
<title>N0&#45;&gt;N1</title>
<path fill="none" stroke="black" d="M111,-447.7C111,-439.98 111,-430.71 111,-422.11"/>
<polygon fill="black" stroke="black" points="114.5,-422.1 111,-412.1 107.5,-422.1 114.5,-422.1"/>
</g>
<!-- N2 -->
<g id="node3" class="node">
<title>N2</title>
<polygon fill="none" stroke="black" points="383.5,-484 252.5,-484 252.5,-448 383.5,-448 383.5,-484"/>
<text text-anchor="middle" x="318" y="-462.3" font-family="Times,serif" font-size="14.00">ByronBlockTask</text>
</g>
<!-- N3 -->
<g id="node4" class="node">
<title>N3</title>
<polygon fill="none" stroke="black" points="406,-412 230,-412 230,-376 406,-376 406,-412"/>
<text text-anchor="middle" x="318" y="-390.3" font-family="Times,serif" font-size="14.00">ByronTransactionTask</text>
</g>
<!-- N2&#45;&gt;N3 -->
<g id="edge2" class="edge">
<title>N2&#45;&gt;N3</title>
<path fill="none" stroke="black" d="M318,-447.7C318,-439.98 318,-430.71 318,-422.11"/>
<polygon fill="black" stroke="black" points="321.5,-422.1 318,-412.1 314.5,-422.1 321.5,-422.1"/>
</g>
<!-- N4 -->
<g id="node5" class="node">
<title>N4</title>
<polygon fill="none" stroke="black" points="392.5,-340 243.5,-340 243.5,-304 392.5,-304 392.5,-340"/>
<text text-anchor="middle" x="318" y="-318.3" font-family="Times,serif" font-size="14.00">ByronAddressTask</text>
</g>
<!-- N3&#45;&gt;N4 -->
<g id="edge3" class="edge">
<title>N3&#45;&gt;N4</title>
<path fill="none" stroke="black" d="M318,-375.7C318,-367.98 318,-358.71 318,-350.11"/>
<polygon fill="black" stroke="black" points="321.5,-350.1 318,-340.1 314.5,-350.1 321.5,-350.1"/>
</g>
<!-- N5 -->
<g id="node6" class="node">
<title>N5</title>
<polygon fill="none" stroke="black" points="389,-268 247,-268 247,-232 389,-232 389,-268"/>
<text text-anchor="middle" x="318" y="-246.3" font-family="Times,serif" font-size="14.00">ByronOutputTask</text>
</g>
<!-- N4&#45;&gt;N5 -->
<g id="edge4" class="edge">
<title>N4&#45;&gt;N5</title>
<path fill="none" stroke="black" d="M318,-303.7C318,-295.98 318,-286.71 318,-278.11"/>
<polygon fill="black" stroke="black" points="321.5,-278.1 318,-268.1 314.5,-278.1 321.5,-278.1"/>
</g>
<!-- N6 -->
<g id="node7" class="node">
<title>N6</title>
<polygon fill="none" stroke="black" points="383,-196 253,-196 253,-160 383,-160 383,-196"/>
<text text-anchor="middle" x="318" y="-174.3" font-family="Times,serif" font-size="14.00">ByronInputTask</text>
</g>
<!-- N5&#45;&gt;N6 -->
<g id="edge5" class="edge">
<title>N5&#45;&gt;N6</title>
<path fill="none" stroke="black" d="M318,-231.7C318,-223.98 318,-214.71 318,-206.11"/>
<polygon fill="black" stroke="black" points="321.5,-206.1 318,-196.1 314.5,-206.1 321.5,-206.1"/>
</g>
<!-- N7 -->
<g id="node8" class="node">
<title>N7</title>
<polygon fill="none" stroke="black" points="794.5,-484 645.5,-484 645.5,-448 794.5,-448 794.5,-484"/>
<text text-anchor="middle" x="720" y="-462.3" font-family="Times,serif" font-size="14.00">MultieraBlockTask</text>
</g>
<!-- N8 -->
<g id="node9" class="node">
<title>N8</title>
<polygon fill="none" stroke="black" points="817,-412 623,-412 623,-376 817,-376 817,-412"/>
<text text-anchor="middle" x="720" y="-390.3" font-family="Times,serif" font-size="14.00">MultieraTransactionTask</text>
</g>
<!-- N7&#45;&gt;N8 -->
<g id="edge6" class="edge">
<title>N7&#45;&gt;N8</title>
<path fill="none" stroke="black" d="M720,-447.7C720,-439.98 720,-430.71 720,-422.11"/>
<polygon fill="black" stroke="black" points="723.5,-422.1 720,-412.1 716.5,-422.1 723.5,-422.1"/>
</g>
<!-- N9 -->
<g id="node10" class="node">
<title>N9</title>
<polygon fill="none" stroke="black" points="610.5,-340 431.5,-340 431.5,-304 610.5,-304 610.5,-340"/>
<text text-anchor="middle" x="521" y="-318.3" font-family="Times,serif" font-size="14.00">MultieraMetadataTask</text>
</g>
<!-- N8&#45;&gt;N9 -->
<g id="edge7" class="edge">
<title>N8&#45;&gt;N9</title>
<path fill="none" stroke="black" d="M671.57,-375.97C643.77,-366.19 608.66,-353.84 579.35,-343.52"/>
<polygon fill="black" stroke="black" points="580.24,-340.13 569.64,-340.11 577.92,-346.73 580.24,-340.13"/>
</g>
<!-- N10 -->
<g id="node11" class="node">
<title>N10</title>
<polygon fill="none" stroke="black" points="998,-340 830,-340 830,-304 998,-304 998,-340"/>
<text text-anchor="middle" x="914" y="-318.3" font-family="Times,serif" font-size="14.00">MultieraAddressTask</text>
</g>
<!-- N8&#45;&gt;N10 -->
<g id="edge8" class="edge">
<title>N8&#45;&gt;N10</title>
<path fill="none" stroke="black" d="M767.46,-375.88C794.57,-366.09 828.74,-353.77 857.26,-343.47"/>
<polygon fill="black" stroke="black" points="858.48,-346.75 866.7,-340.07 856.1,-340.17 858.48,-346.75"/>
</g>
<!-- N18 -->
<g id="node19" class="node">
<title>N18</title>
<polygon fill="none" stroke="black" points="811.5,-340 628.5,-340 628.5,-304 811.5,-304 811.5,-340"/>
<text text-anchor="middle" x="720" y="-318.3" font-family="Times,serif" font-size="14.00">MultieraAssetMintTask</text>
</g>
<!-- N8&#45;&gt;N18 -->
<g id="edge19" class="edge">
<title>N8&#45;&gt;N18</title>
<path fill="none" stroke="black" d="M720,-375.7C720,-367.98 720,-358.71 720,-350.11"/>
<polygon fill="black" stroke="black" points="723.5,-350.1 720,-340.1 716.5,-350.1 723.5,-350.1"/>
</g>
<!-- N19 -->
<g id="node20" class="node">
<title>N19</title>
<polygon fill="none" stroke="black" points="623.5,-268 430.5,-268 430.5,-232 623.5,-232 623.5,-268"/>
<text text-anchor="middle" x="527" y="-246.3" font-family="Times,serif" font-size="14.00">MultieraCip25EntryTask</text>
</g>
<!-- N9&#45;&gt;N19 -->
<g id="edge20" class="edge">
<title>N9&#45;&gt;N19</title>
<path fill="none" stroke="black" d="M522.48,-303.7C523.14,-295.98 523.94,-286.71 524.68,-278.11"/>
<polygon fill="black" stroke="black" points="528.17,-278.37 525.53,-268.1 521.19,-277.77 528.17,-278.37"/>
</g>
<!-- N11 -->
<g id="node12" class="node">
<title>N11</title>
<polygon fill="none" stroke="black" points="994.5,-268 833.5,-268 833.5,-232 994.5,-232 994.5,-268"/>
<text text-anchor="middle" x="914" y="-246.3" font-family="Times,serif" font-size="14.00">MultieraOutputTask</text>
</g>
<!-- N10&#45;&gt;N11 -->
<g id="edge9" class="edge">
<title>N10&#45;&gt;N11</title>
<path fill="none" stroke="black" d="M914,-303.7C914,-295.98 914,-286.71 914,-278.11"/>
<polygon fill="black" stroke="black" points="917.5,-278.1 914,-268.1 910.5,-278.1 917.5,-278.1"/>
</g>
<!-- N16 -->
<g id="node17" class="node">
<title>N16</title>
<polygon fill="none" stroke="black" points="1276,-52 974,-52 974,-16 1276,-16 1276,-52"/>
<text text-anchor="middle" x="1125" y="-30.3" font-family="Times,serif" font-size="14.00">MultieraAddressCredentialRelationTask</text>
</g>
<!-- N10&#45;&gt;N16 -->
<g id="edge15" class="edge">
<title>N10&#45;&gt;N16</title>
<path fill="none" stroke="black" d="M998.1,-317.22C1081.15,-308.46 1204.16,-280.91 1264,-196 1301.3,-143.07 1222.28,-87.11 1168.8,-57.11"/>
<polygon fill="black" stroke="black" points="1170.25,-53.91 1159.8,-52.17 1166.88,-60.05 1170.25,-53.91"/>
</g>
<!-- N17 -->
<g id="node18" class="node">
<title>N17</title>
<polygon fill="none" stroke="black" points="692,-52 430,-52 430,-16 692,-16 692,-52"/>
<text text-anchor="middle" x="561" y="-30.3" font-family="Times,serif" font-size="14.00">MultieraTxCredentialRelationTask</text>
</g>
<!-- N10&#45;&gt;N17 -->
<g id="edge17" class="edge">
<title>N10&#45;&gt;N17</title>
<path fill="none" stroke="black" d="M847.55,-303.91C762.39,-280.64 621.67,-237.18 588,-196 556.92,-157.99 555.54,-97.69 557.9,-62.68"/>
<polygon fill="black" stroke="black" points="561.42,-62.51 558.76,-52.26 554.45,-61.93 561.42,-62.51"/>
</g>
<!-- N12 -->
<g id="node13" class="node">
<title>N12</title>
<polygon fill="none" stroke="black" points="1254.5,-196 1033.5,-196 1033.5,-160 1254.5,-160 1254.5,-196"/>
<text text-anchor="middle" x="1144" y="-174.3" font-family="Times,serif" font-size="14.00">MultieraReferenceInputTask</text>
</g>
<!-- N11&#45;&gt;N12 -->
<g id="edge10" class="edge">
<title>N11&#45;&gt;N12</title>
<path fill="none" stroke="black" d="M969.97,-231.97C1002.53,-222.06 1043.74,-209.51 1077.89,-199.12"/>
<polygon fill="black" stroke="black" points="1079.23,-202.37 1087.78,-196.11 1077.19,-195.67 1079.23,-202.37"/>
</g>
<!-- N13 -->
<g id="node14" class="node">
<title>N13</title>
<polygon fill="none" stroke="black" points="794.5,-196 609.5,-196 609.5,-160 794.5,-160 794.5,-196"/>
<text text-anchor="middle" x="702" y="-174.3" font-family="Times,serif" font-size="14.00">MultieraUsedInputTask</text>
</g>
<!-- N11&#45;&gt;N13 -->
<g id="edge11" class="edge">
<title>N11&#45;&gt;N13</title>
<path fill="none" stroke="black" d="M862.41,-231.97C832.53,-222.1 794.74,-209.62 763.34,-199.25"/>
<polygon fill="black" stroke="black" points="764.41,-195.92 753.82,-196.11 762.22,-202.57 764.41,-195.92"/>
</g>
<!-- N14 -->
<g id="node15" class="node">
<title>N14</title>
<polygon fill="none" stroke="black" points="1015.5,-196 812.5,-196 812.5,-160 1015.5,-160 1015.5,-196"/>
<text text-anchor="middle" x="914" y="-174.3" font-family="Times,serif" font-size="14.00">MultieraUnusedInputTask</text>
</g>
<!-- N11&#45;&gt;N14 -->
<g id="edge12" class="edge">
<title>N11&#45;&gt;N14</title>
<path fill="none" stroke="black" d="M914,-231.7C914,-223.98 914,-214.71 914,-206.11"/>
<polygon fill="black" stroke="black" points="917.5,-206.1 914,-196.1 910.5,-206.1 917.5,-206.1"/>
</g>
<!-- N21 -->
<g id="node22" class="node">
<title>N21</title>
<polygon fill="none" stroke="black" points="748.5,-124 589.5,-124 589.5,-88 748.5,-88 748.5,-124"/>
<text text-anchor="middle" x="669" y="-102.3" font-family="Times,serif" font-size="14.00">MultieraAssetUtxos</text>
</g>
<!-- N11&#45;&gt;N21 -->
<g id="edge24" class="edge">
<title>N11&#45;&gt;N21</title>
<path fill="none" stroke="black" d="M833.46,-246.78C750.79,-242.6 630.21,-230.57 601,-196 588.38,-181.06 591.74,-169.23 601,-152 605.68,-143.3 612.85,-136 620.82,-129.98"/>
<polygon fill="black" stroke="black" points="623.05,-132.7 629.34,-124.17 619.11,-126.92 623.05,-132.7"/>
</g>
<!-- N15 -->
<g id="node16" class="node">
<title>N15</title>
<polygon fill="none" stroke="black" points="993,-124 767,-124 767,-88 993,-88 993,-124"/>
<text text-anchor="middle" x="880" y="-102.3" font-family="Times,serif" font-size="14.00">MultieraStakeCredentialTask</text>
</g>
<!-- N13&#45;&gt;N15 -->
<g id="edge13" class="edge">
<title>N13&#45;&gt;N15</title>
<path fill="none" stroke="black" d="M745.54,-159.88C770.2,-150.18 801.22,-137.98 827.25,-127.74"/>
<polygon fill="black" stroke="black" points="828.57,-130.99 836.6,-124.07 826.01,-124.47 828.57,-130.99"/>
</g>
<!-- N13&#45;&gt;N21 -->
<g id="edge23" class="edge">
<title>N13&#45;&gt;N21</title>
<path fill="none" stroke="black" d="M693.84,-159.7C690.09,-151.73 685.55,-142.1 681.38,-133.26"/>
<polygon fill="black" stroke="black" points="684.49,-131.66 677.06,-124.1 678.16,-134.64 684.49,-131.66"/>
</g>
<!-- N14&#45;&gt;N15 -->
<g id="edge14" class="edge">
<title>N14&#45;&gt;N15</title>
<path fill="none" stroke="black" d="M905.6,-159.7C901.73,-151.73 897.05,-142.1 892.76,-133.26"/>
<polygon fill="black" stroke="black" points="895.83,-131.57 888.31,-124.1 889.53,-134.63 895.83,-131.57"/>
</g>
<!-- N15&#45;&gt;N16 -->
<g id="edge16" class="edge">
<title>N15&#45;&gt;N16</title>
<path fill="none" stroke="black" d="M939.62,-87.97C974.45,-78.01 1018.58,-65.41 1055.04,-54.99"/>
<polygon fill="black" stroke="black" points="1056.46,-58.22 1065.11,-52.11 1054.54,-51.49 1056.46,-58.22"/>
</g>
<!-- N15&#45;&gt;N17 -->
<g id="edge18" class="edge">
<title>N15&#45;&gt;N17</title>
<path fill="none" stroke="black" d="M802.37,-87.97C755.87,-77.76 696.64,-64.76 648.49,-54.2"/>
<polygon fill="black" stroke="black" points="649.22,-50.77 638.7,-52.05 647.72,-57.61 649.22,-50.77"/>
</g>
<!-- N20 -->
<g id="node21" class="node">
<title>N20</title>
<polygon fill="none" stroke="black" points="955.5,-52 710.5,-52 710.5,-16 955.5,-16 955.5,-52"/>
<text text-anchor="middle" x="833" y="-30.3" font-family="Times,serif" font-size="14.00">MultieraAddressDelegationTask</text>
</g>
<!-- N15&#45;&gt;N20 -->
<g id="edge22" class="edge">
<title>N15&#45;&gt;N20</title>
<path fill="none" stroke="black" d="M868.38,-87.7C862.86,-79.47 856.15,-69.48 850.07,-60.42"/>
<polygon fill="black" stroke="black" points="852.96,-58.46 844.48,-52.1 847.15,-62.36 852.96,-58.46"/>
</g>
<!-- N18&#45;&gt;N19 -->
<g id="edge21" class="edge">
<title>N18&#45;&gt;N19</title>
<path fill="none" stroke="black" d="M672.79,-303.88C645.93,-294.14 612.12,-281.87 583.82,-271.61"/>
<polygon fill="black" stroke="black" points="584.65,-268.19 574.06,-268.07 582.27,-274.77 584.65,-268.19"/>
</g>
</g>
</svg>
