<?xml version="1.0" encoding="UTF-8" standalone="no"?>
<!DOCTYPE svg PUBLIC "-//W3C//DTD SVG 1.1//EN"
 "http://www.w3.org/Graphics/SVG/1.1/DTD/svg11.dtd">
<!-- Generated by graphviz version 2.43.0 (0)
 -->
<!-- Title: default Pages: 1 -->
<svg width="1036pt" height="531pt"
 viewBox="0.00 0.00 1036.00 531.00" xmlns="http://www.w3.org/2000/svg" xmlns:xlink="http://www.w3.org/1999/xlink">
<g id="graph0" class="graph" transform="scale(1 1) rotate(0) translate(4 527)">
<title>default</title>
<polygon fill="white" stroke="transparent" points="-4,4 -4,-527 1032,-527 1032,4 -4,4"/>
<g id="clust1" class="cluster">
<title>cluster_Genesis</title>
<polygon fill="none" stroke="#d9d9d9" points="8,-368 8,-515 214,-515 214,-368 8,-368"/>
<text text-anchor="middle" x="111" y="-499.8" font-family="Times,serif" font-size="14.00">Genesis</text>
</g>
<g id="clust2" class="cluster">
<title>cluster_Byron</title>
<polygon fill="none" stroke="#d9d9d9" points="222,-152 222,-515 414,-515 414,-152 222,-152"/>
<text text-anchor="middle" x="318" y="-499.8" font-family="Times,serif" font-size="14.00">Byron</text>
</g>
<g id="clust3" class="cluster">
<title>cluster_Multiera</title>
<polygon fill="none" stroke="#d9d9d9" points="422,-8 422,-515 1020,-515 1020,-8 422,-8"/>
<text text-anchor="middle" x="721" y="-499.8" font-family="Times,serif" font-size="14.00">Multiera</text>
</g>
<!-- N0 -->
<g id="node1" class="node">
<title>N0</title>
<polygon fill="none" stroke="black" points="183,-484 39,-484 39,-448 183,-448 183,-484"/>
<text text-anchor="middle" x="111" y="-462.3" font-family="Times,serif" font-size="14.00">GenesisBlockTask</text>
</g>
<!-- N1 -->
<g id="node2" class="node">
<title>N1</title>
<polygon fill="none" stroke="black" points="205.5,-412 16.5,-412 16.5,-376 205.5,-376 205.5,-412"/>
<text text-anchor="middle" x="111" y="-390.3" font-family="Times,serif" font-size="14.00">GenesisTransactionTask</text>
</g>
<!-- N0&#45;&gt;N1 -->
<g id="edge1" class="edge">
<title>N0&#45;&gt;N1</title>
<path fill="none" stroke="black" d="M111,-447.7C111,-439.98 111,-430.71 111,-422.11"/>
<polygon fill="black" stroke="black" points="114.5,-422.1 111,-412.1 107.5,-422.1 114.5,-422.1"/>
</g>
<!-- N2 -->
<g id="node3" class="node">
<title>N2</title>
<polygon fill="none" stroke="black" points="383.5,-484 252.5,-484 252.5,-448 383.5,-448 383.5,-484"/>
<text text-anchor="middle" x="318" y="-462.3" font-family="Times,serif" font-size="14.00">ByronBlockTask</text>
</g>
<!-- N3 -->
<g id="node4" class="node">
<title>N3</title>
<polygon fill="none" stroke="black" points="406,-412 230,-412 230,-376 406,-376 406,-412"/>
<text text-anchor="middle" x="318" y="-390.3" font-family="Times,serif" font-size="14.00">ByronTransactionTask</text>
</g>
<!-- N2&#45;&gt;N3 -->
<g id="edge2" class="edge">
<title>N2&#45;&gt;N3</title>
<path fill="none" stroke="black" d="M318,-447.7C318,-439.98 318,-430.71 318,-422.11"/>
<polygon fill="black" stroke="black" points="321.5,-422.1 318,-412.1 314.5,-422.1 321.5,-422.1"/>
</g>
<!-- N4 -->
<g id="node5" class="node">
<title>N4</title>
<polygon fill="none" stroke="black" points="392.5,-340 243.5,-340 243.5,-304 392.5,-304 392.5,-340"/>
<text text-anchor="middle" x="318" y="-318.3" font-family="Times,serif" font-size="14.00">ByronAddressTask</text>
</g>
<!-- N3&#45;&gt;N4 -->
<g id="edge3" class="edge">
<title>N3&#45;&gt;N4</title>
<path fill="none" stroke="black" d="M318,-375.7C318,-367.98 318,-358.71 318,-350.11"/>
<polygon fill="black" stroke="black" points="321.5,-350.1 318,-340.1 314.5,-350.1 321.5,-350.1"/>
</g>
<!-- N5 -->
<g id="node6" class="node">
<title>N5</title>
<polygon fill="none" stroke="black" points="389,-268 247,-268 247,-232 389,-232 389,-268"/>
<text text-anchor="middle" x="318" y="-246.3" font-family="Times,serif" font-size="14.00">ByronOutputTask</text>
</g>
<!-- N4&#45;&gt;N5 -->
<g id="edge4" class="edge">
<title>N4&#45;&gt;N5</title>
<path fill="none" stroke="black" d="M318,-303.7C318,-295.98 318,-286.71 318,-278.11"/>
<polygon fill="black" stroke="black" points="321.5,-278.1 318,-268.1 314.5,-278.1 321.5,-278.1"/>
</g>
<!-- N6 -->
<g id="node7" class="node">
<title>N6</title>
<polygon fill="none" stroke="black" points="383,-196 253,-196 253,-160 383,-160 383,-196"/>
<text text-anchor="middle" x="318" y="-174.3" font-family="Times,serif" font-size="14.00">ByronInputTask</text>
</g>
<!-- N5&#45;&gt;N6 -->
<g id="edge5" class="edge">
<title>N5&#45;&gt;N6</title>
<path fill="none" stroke="black" d="M318,-231.7C318,-223.98 318,-214.71 318,-206.11"/>
<polygon fill="black" stroke="black" points="321.5,-206.1 318,-196.1 314.5,-206.1 321.5,-206.1"/>
</g>
<!-- N7 -->
<g id="node8" class="node">
<title>N7</title>
<polygon fill="none" stroke="black" points="622.5,-484 473.5,-484 473.5,-448 622.5,-448 622.5,-484"/>
<text text-anchor="middle" x="548" y="-462.3" font-family="Times,serif" font-size="14.00">MultieraBlockTask</text>
</g>
<!-- N8 -->
<g id="node9" class="node">
<title>N8</title>
<polygon fill="none" stroke="black" points="645,-412 451,-412 451,-376 645,-376 645,-412"/>
<text text-anchor="middle" x="548" y="-390.3" font-family="Times,serif" font-size="14.00">MultieraTransactionTask</text>
</g>
<!-- N7&#45;&gt;N8 -->
<g id="edge6" class="edge">
<title>N7&#45;&gt;N8</title>
<path fill="none" stroke="black" d="M548,-447.7C548,-439.98 548,-430.71 548,-422.11"/>
<polygon fill="black" stroke="black" points="551.5,-422.1 548,-412.1 544.5,-422.1 551.5,-422.1"/>
</g>
<!-- N9 -->
<g id="node10" class="node">
<title>N9</title>
<polygon fill="none" stroke="black" points="623.5,-340 444.5,-340 444.5,-304 623.5,-304 623.5,-340"/>
<text text-anchor="middle" x="534" y="-318.3" font-family="Times,serif" font-size="14.00">MultieraMetadataTask</text>
</g>
<!-- N8&#45;&gt;N9 -->
<g id="edge7" class="edge">
<title>N8&#45;&gt;N9</title>
<path fill="none" stroke="black" d="M544.54,-375.7C543,-367.98 541.14,-358.71 539.42,-350.11"/>
<polygon fill="black" stroke="black" points="542.81,-349.22 537.42,-340.1 535.95,-350.6 542.81,-349.22"/>
</g>
<!-- N10 -->
<g id="node11" class="node">
<title>N10</title>
<polygon fill="none" stroke="black" points="810,-340 642,-340 642,-304 810,-304 810,-340"/>
<text text-anchor="middle" x="726" y="-318.3" font-family="Times,serif" font-size="14.00">MultieraAddressTask</text>
</g>
<!-- N8&#45;&gt;N10 -->
<g id="edge8" class="edge">
<title>N8&#45;&gt;N10</title>
<path fill="none" stroke="black" d="M591.54,-375.88C616.2,-366.18 647.22,-353.98 673.25,-343.74"/>
<polygon fill="black" stroke="black" points="674.57,-346.99 682.6,-340.07 672.01,-340.47 674.57,-346.99"/>
</g>
<!-- N11 -->
<g id="node12" class="node">
<title>N11</title>
<polygon fill="none" stroke="black" points="806.5,-268 645.5,-268 645.5,-232 806.5,-232 806.5,-268"/>
<text text-anchor="middle" x="726" y="-246.3" font-family="Times,serif" font-size="14.00">MultieraOutputTask</text>
</g>
<!-- N10&#45;&gt;N11 -->
<g id="edge9" class="edge">
<title>N10&#45;&gt;N11</title>
<path fill="none" stroke="black" d="M726,-303.7C726,-295.98 726,-286.71 726,-278.11"/>
<polygon fill="black" stroke="black" points="729.5,-278.1 726,-268.1 722.5,-278.1 729.5,-278.1"/>
</g>
<!-- N15 -->
<g id="node16" class="node">
<title>N15</title>
<polygon fill="none" stroke="black" points="732,-52 430,-52 430,-16 732,-16 732,-52"/>
<text text-anchor="middle" x="581" y="-30.3" font-family="Times,serif" font-size="14.00">MultieraAddressCredentialRelationTask</text>
</g>
<!-- N10&#45;&gt;N15 -->
<g id="edge14" class="edge">
<title>N10&#45;&gt;N15</title>
<path fill="none" stroke="black" d="M671.78,-303.93C599.57,-279.97 477.99,-234.93 453,-196 419.31,-143.52 491.15,-87.72 540.22,-57.55"/>
<polygon fill="black" stroke="black" points="542.31,-60.37 549.08,-52.22 538.71,-54.37 542.31,-60.37"/>
</g>
<!-- N16 -->
<g id="node17" class="node">
<title>N16</title>
<polygon fill="none" stroke="black" points="1012,-52 750,-52 750,-16 1012,-16 1012,-52"/>
<text text-anchor="middle" x="881" y="-30.3" font-family="Times,serif" font-size="14.00">MultieraTxCredentialRelationTask</text>
</g>
<!-- N10&#45;&gt;N16 -->
<g id="edge16" class="edge">
<title>N10&#45;&gt;N16</title>
<path fill="none" stroke="black" d="M763.84,-303.84C801.78,-284.12 857.32,-247.68 877,-196 893.9,-151.63 890.14,-95.29 885.69,-62.38"/>
<polygon fill="black" stroke="black" points="889.11,-61.55 884.19,-52.16 882.18,-62.57 889.11,-61.55"/>
</g>
<!-- N12 -->
<g id="node13" class="node">
<title>N12</title>
<polygon fill="none" stroke="black" points="646.5,-196 461.5,-196 461.5,-160 646.5,-160 646.5,-196"/>
<text text-anchor="middle" x="554" y="-174.3" font-family="Times,serif" font-size="14.00">MultieraUsedInputTask</text>
</g>
<!-- N11&#45;&gt;N12 -->
<g id="edge10" class="edge">
<title>N11&#45;&gt;N12</title>
<path fill="none" stroke="black" d="M683.92,-231.88C660.2,-222.22 630.38,-210.09 605.3,-199.88"/>
<polygon fill="black" stroke="black" points="606.52,-196.6 595.94,-196.07 603.88,-203.08 606.52,-196.6"/>
</g>
<!-- N13 -->
<g id="node14" class="node">
<title>N13</title>
<polygon fill="none" stroke="black" points="867.5,-196 664.5,-196 664.5,-160 867.5,-160 867.5,-196"/>
<text text-anchor="middle" x="766" y="-174.3" font-family="Times,serif" font-size="14.00">MultieraUnusedInputTask</text>
</g>
<!-- N11&#45;&gt;N13 -->
<g id="edge11" class="edge">
<title>N11&#45;&gt;N13</title>
<path fill="none" stroke="black" d="M735.89,-231.7C740.49,-223.64 746.06,-213.89 751.15,-204.98"/>
<polygon fill="black" stroke="black" points="754.3,-206.52 756.23,-196.1 748.23,-203.05 754.3,-206.52"/>
</g>
<!-- N14 -->
<g id="node15" class="node">
<title>N14</title>
<polygon fill="none" stroke="black" points="780,-124 554,-124 554,-88 780,-88 780,-124"/>
<text text-anchor="middle" x="667" y="-102.3" font-family="Times,serif" font-size="14.00">MultieraStakeCredentialTask</text>
</g>
<!-- N12&#45;&gt;N14 -->
<g id="edge12" class="edge">
<title>N12&#45;&gt;N14</title>
<path fill="none" stroke="black" d="M581.64,-159.88C596.42,-150.72 614.79,-139.34 630.7,-129.48"/>
<polygon fill="black" stroke="black" points="632.59,-132.43 639.25,-124.19 628.91,-126.48 632.59,-132.43"/>
</g>
<!-- N13&#45;&gt;N14 -->
<g id="edge13" class="edge">
<title>N13&#45;&gt;N14</title>
<path fill="none" stroke="black" d="M741.78,-159.88C729.08,-150.89 713.34,-139.76 699.58,-130.03"/>
<polygon fill="black" stroke="black" points="701.5,-127.11 691.31,-124.19 697.46,-132.82 701.5,-127.11"/>
</g>
<!-- N14&#45;&gt;N15 -->
<g id="edge15" class="edge">
<title>N14&#45;&gt;N15</title>
<path fill="none" stroke="black" d="M645.74,-87.7C634.91,-78.88 621.58,-68.03 609.84,-58.47"/>
<polygon fill="black" stroke="black" points="611.98,-55.7 602.01,-52.1 607.56,-61.13 611.98,-55.7"/>
</g>
<!-- N14&#45;&gt;N16 -->
<g id="edge17" class="edge">
<title>N14&#45;&gt;N16</title>
<path fill="none" stroke="black" d="M719.08,-87.97C749.24,-78.1 787.39,-65.62 819.08,-55.25"/>
<polygon fill="black" stroke="black" points="820.27,-58.55 828.69,-52.11 818.1,-51.89 820.27,-58.55"/>
</g>
</g>
</svg>
