<?xml version="1.0" encoding="UTF-8" standalone="no"?>
<!DOCTYPE svg PUBLIC "-//W3C//DTD SVG 1.1//EN"
 "http://www.w3.org/Graphics/SVG/1.1/DTD/svg11.dtd">
<!-- Generated by graphviz version 2.43.0 (0)
 -->
<!-- Title: g Pages: 1 -->
<svg width="1926pt" height="809pt"
 viewBox="0.00 0.00 1926.00 809.00" xmlns="http://www.w3.org/2000/svg" xmlns:xlink="http://www.w3.org/1999/xlink">
<g id="graph0" class="graph" transform="scale(1 1) rotate(0) translate(4 805)">
<title>g</title>
<polygon fill="white" stroke="transparent" points="-4,4 -4,-805 1922,-805 1922,4 -4,4"/>
<!-- [&#39;public.&#39;, &#39;Address&#39;] -->
<g id="node1" class="node">
<title>[&#39;public.&#39;, &#39;Address&#39;]</title>
<polygon fill="#b2dfee" stroke="transparent" points="985.5,-558 985.5,-586 1229.5,-586 1229.5,-558 985.5,-558"/>
<polygon fill="none" stroke="black" points="985.5,-558 985.5,-586 1229.5,-586 1229.5,-558 985.5,-558"/>
<text text-anchor="start" x="988.5" y="-567" font-family="Times,serif" font-weight="bold" font-size="20.00"> [&#39;public.&#39;, &#39;Address&#39;] </text>
<polygon fill="#f5f5f5" stroke="transparent" points="985.5,-537 985.5,-558 1074.5,-558 1074.5,-537 985.5,-537"/>
<polygon fill="none" stroke="black" points="985.5,-537 985.5,-558 1074.5,-558 1074.5,-537 985.5,-537"/>
<text text-anchor="start" x="988.5" y="-543.8" font-family="Times,serif" font-weight="bold" font-size="14.00"> id </text>
<polygon fill="none" stroke="black" points="1074.5,-537 1074.5,-558 1229.5,-558 1229.5,-537 1074.5,-537"/>
<text text-anchor="start" x="1077.5" y="-543.8" font-family="Times,serif" font-size="14.00" fill="#535353"> bigint NOT NULL </text>
<polygon fill="#f5f5f5" stroke="transparent" points="985.5,-516 985.5,-537 1074.5,-537 1074.5,-516 985.5,-516"/>
<polygon fill="none" stroke="black" points="985.5,-516 985.5,-537 1074.5,-537 1074.5,-516 985.5,-516"/>
<text text-anchor="start" x="988.5" y="-522.8" font-family="Times,serif" font-weight="bold" font-size="14.00"> payload </text>
<polygon fill="none" stroke="black" points="1074.5,-516 1074.5,-537 1229.5,-537 1229.5,-516 1074.5,-516"/>
<text text-anchor="start" x="1077.5" y="-522.8" font-family="Times,serif" font-size="14.00" fill="#535353"> bytea NOT NULL </text>
<polygon fill="#f5f5f5" stroke="transparent" points="985.5,-495 985.5,-516 1074.5,-516 1074.5,-495 985.5,-495"/>
<polygon fill="none" stroke="black" points="985.5,-495 985.5,-516 1074.5,-516 1074.5,-495 985.5,-495"/>
<text text-anchor="start" x="988.5" y="-501.8" font-family="Times,serif" font-weight="bold" font-size="14.00"> first_tx </text>
<polygon fill="none" stroke="black" points="1074.5,-495 1074.5,-516 1229.5,-516 1229.5,-495 1074.5,-495"/>
<text text-anchor="start" x="1077.5" y="-501.8" font-family="Times,serif" font-size="14.00" fill="#535353"> bigint NOT NULL </text>
</g>
<!-- [&#39;public.&#39;, &#39;Transaction&#39;] -->
<g id="node8" class="node">
<title>[&#39;public.&#39;, &#39;Transaction&#39;]</title>
<polygon fill="#b2dfee" stroke="transparent" points="1355.5,-377 1355.5,-405 1640.5,-405 1640.5,-377 1355.5,-377"/>
<polygon fill="none" stroke="black" points="1355.5,-377 1355.5,-405 1640.5,-405 1640.5,-377 1355.5,-377"/>
<text text-anchor="start" x="1358.5" y="-386" font-family="Times,serif" font-weight="bold" font-size="20.00"> [&#39;public.&#39;, &#39;Transaction&#39;] </text>
<polygon fill="#f5f5f5" stroke="transparent" points="1355.5,-356 1355.5,-377 1460.5,-377 1460.5,-356 1355.5,-356"/>
<polygon fill="none" stroke="black" points="1355.5,-356 1355.5,-377 1460.5,-377 1460.5,-356 1355.5,-356"/>
<text text-anchor="start" x="1358.5" y="-362.8" font-family="Times,serif" font-weight="bold" font-size="14.00"> id </text>
<polygon fill="none" stroke="black" points="1460.5,-356 1460.5,-377 1640.5,-377 1640.5,-356 1460.5,-356"/>
<text text-anchor="start" x="1463.5" y="-362.8" font-family="Times,serif" font-size="14.00" fill="#535353"> bigint NOT NULL </text>
<polygon fill="#f5f5f5" stroke="transparent" points="1355.5,-335 1355.5,-356 1460.5,-356 1460.5,-335 1355.5,-335"/>
<polygon fill="none" stroke="black" points="1355.5,-335 1355.5,-356 1460.5,-356 1460.5,-335 1355.5,-335"/>
<text text-anchor="start" x="1358.5" y="-341.8" font-family="Times,serif" font-weight="bold" font-size="14.00"> hash </text>
<polygon fill="none" stroke="black" points="1460.5,-335 1460.5,-356 1640.5,-356 1640.5,-335 1460.5,-335"/>
<text text-anchor="start" x="1463.5" y="-341.8" font-family="Times,serif" font-size="14.00" fill="#535353"> bytea NOT NULL </text>
<polygon fill="#f5f5f5" stroke="transparent" points="1355.5,-314 1355.5,-335 1460.5,-335 1460.5,-314 1355.5,-314"/>
<polygon fill="none" stroke="black" points="1355.5,-314 1355.5,-335 1460.5,-335 1460.5,-314 1355.5,-314"/>
<text text-anchor="start" x="1358.5" y="-320.8" font-family="Times,serif" font-weight="bold" font-size="14.00"> block_id </text>
<polygon fill="none" stroke="black" points="1460.5,-314 1460.5,-335 1640.5,-335 1640.5,-314 1460.5,-314"/>
<text text-anchor="start" x="1463.5" y="-320.8" font-family="Times,serif" font-size="14.00" fill="#535353"> integer NOT NULL </text>
<polygon fill="#f5f5f5" stroke="transparent" points="1355.5,-293 1355.5,-314 1460.5,-314 1460.5,-293 1355.5,-293"/>
<polygon fill="none" stroke="black" points="1355.5,-293 1355.5,-314 1460.5,-314 1460.5,-293 1355.5,-293"/>
<text text-anchor="start" x="1358.5" y="-299.8" font-family="Times,serif" font-weight="bold" font-size="14.00"> tx_index </text>
<polygon fill="none" stroke="black" points="1460.5,-293 1460.5,-314 1640.5,-314 1640.5,-293 1460.5,-293"/>
<text text-anchor="start" x="1463.5" y="-299.8" font-family="Times,serif" font-size="14.00" fill="#535353"> integer NOT NULL </text>
<polygon fill="#f5f5f5" stroke="transparent" points="1355.5,-272 1355.5,-293 1460.5,-293 1460.5,-272 1355.5,-272"/>
<polygon fill="none" stroke="black" points="1355.5,-272 1355.5,-293 1460.5,-293 1460.5,-272 1355.5,-272"/>
<text text-anchor="start" x="1358.5" y="-278.8" font-family="Times,serif" font-weight="bold" font-size="14.00"> payload </text>
<polygon fill="none" stroke="black" points="1460.5,-272 1460.5,-293 1640.5,-293 1640.5,-272 1460.5,-272"/>
<text text-anchor="start" x="1463.5" y="-278.8" font-family="Times,serif" font-size="14.00" fill="#535353"> bytea NOT NULL </text>
<polygon fill="#f5f5f5" stroke="transparent" points="1355.5,-251 1355.5,-272 1460.5,-272 1460.5,-251 1355.5,-251"/>
<polygon fill="none" stroke="black" points="1355.5,-251 1355.5,-272 1460.5,-272 1460.5,-251 1355.5,-251"/>
<text text-anchor="start" x="1358.5" y="-257.8" font-family="Times,serif" font-weight="bold" font-size="14.00"> is_valid </text>
<polygon fill="none" stroke="black" points="1460.5,-251 1460.5,-272 1640.5,-272 1640.5,-251 1460.5,-251"/>
<text text-anchor="start" x="1463.5" y="-257.8" font-family="Times,serif" font-size="14.00" fill="#535353"> boolean NOT NULL </text>
</g>
<!-- [&#39;public.&#39;, &#39;Address&#39;]&#45;&gt;[&#39;public.&#39;, &#39;Transaction&#39;] -->
<g id="edge1" class="edge">
<title>[&#39;public.&#39;, &#39;Address&#39;]:first_tx_right&#45;&gt;[&#39;public.&#39;, &#39;Transaction&#39;]:id</title>
<path fill="none" stroke="black" d="M1230.5,-505C1267.71,-505 1283.62,-507.19 1311,-482 1348.39,-447.6 1306.62,-377.77 1344.48,-368.12"/>
<polygon fill="black" stroke="black" points="1344.95,-371.58 1354.5,-367 1344.17,-364.63 1344.95,-371.58"/>
</g>
<!-- [&#39;public.&#39;, &#39;AddressCredentialRelation&#39;] -->
<g id="node2" class="node">
<title>[&#39;public.&#39;, &#39;AddressCredentialRelation&#39;]</title>
<polygon fill="#b2dfee" stroke="transparent" points="406,-514 406,-542 860,-542 860,-514 406,-514"/>
<polygon fill="none" stroke="black" points="406,-514 406,-542 860,-542 860,-514 406,-514"/>
<text text-anchor="start" x="409" y="-523" font-family="Times,serif" font-weight="bold" font-size="20.00"> [&#39;public.&#39;, &#39;AddressCredentialRelation&#39;] </text>
<polygon fill="#f5f5f5" stroke="transparent" points="406,-493 406,-514 616,-514 616,-493 406,-493"/>
<polygon fill="none" stroke="black" points="406,-493 406,-514 616,-514 616,-493 406,-493"/>
<text text-anchor="start" x="409" y="-499.8" font-family="Times,serif" font-weight="bold" font-size="14.00"> address_id </text>
<polygon fill="none" stroke="black" points="616,-493 616,-514 860,-514 860,-493 616,-493"/>
<text text-anchor="start" x="619" y="-499.8" font-family="Times,serif" font-size="14.00" fill="#535353"> bigint NOT NULL </text>
<polygon fill="#f5f5f5" stroke="transparent" points="406,-472 406,-493 616,-493 616,-472 406,-472"/>
<polygon fill="none" stroke="black" points="406,-472 406,-493 616,-493 616,-472 406,-472"/>
<text text-anchor="start" x="409" y="-478.8" font-family="Times,serif" font-weight="bold" font-size="14.00"> credential_id </text>
<polygon fill="none" stroke="black" points="616,-472 616,-493 860,-493 860,-472 616,-472"/>
<text text-anchor="start" x="619" y="-478.8" font-family="Times,serif" font-size="14.00" fill="#535353"> bigint NOT NULL </text>
<polygon fill="#f5f5f5" stroke="transparent" points="406,-451 406,-472 616,-472 616,-451 406,-451"/>
<polygon fill="none" stroke="black" points="406,-451 406,-472 616,-472 616,-451 406,-451"/>
<text text-anchor="start" x="409" y="-457.8" font-family="Times,serif" font-weight="bold" font-size="14.00"> relation </text>
<polygon fill="none" stroke="black" points="616,-451 616,-472 860,-472 860,-451 616,-451"/>
<text text-anchor="start" x="619" y="-457.8" font-family="Times,serif" font-size="14.00" fill="#535353"> integer NOT NULL </text>
</g>
<!-- [&#39;public.&#39;, &#39;AddressCredentialRelation&#39;]&#45;&gt;[&#39;public.&#39;, &#39;Address&#39;] -->
<g id="edge2" class="edge">
<title>[&#39;public.&#39;, &#39;AddressCredentialRelation&#39;]:address_id_right&#45;&gt;[&#39;public.&#39;, &#39;Address&#39;]:id</title>
<path fill="none" stroke="black" d="M861,-504C915.74,-504 925.2,-542.83 974.46,-547.54"/>
<polygon fill="black" stroke="black" points="974.35,-551.03 984.5,-548 974.67,-544.04 974.35,-551.03"/>
</g>
<!-- [&#39;public.&#39;, &#39;StakeCredential&#39;] -->
<g id="node7" class="node">
<title>[&#39;public.&#39;, &#39;StakeCredential&#39;]</title>
<polygon fill="#b2dfee" stroke="transparent" points="941.5,-441 941.5,-469 1274.5,-469 1274.5,-441 941.5,-441"/>
<polygon fill="none" stroke="black" points="941.5,-441 941.5,-469 1274.5,-469 1274.5,-441 941.5,-441"/>
<text text-anchor="start" x="944.5" y="-450" font-family="Times,serif" font-weight="bold" font-size="20.00"> [&#39;public.&#39;, &#39;StakeCredential&#39;] </text>
<polygon fill="#f5f5f5" stroke="transparent" points="941.5,-420 941.5,-441 1085.5,-441 1085.5,-420 941.5,-420"/>
<polygon fill="none" stroke="black" points="941.5,-420 941.5,-441 1085.5,-441 1085.5,-420 941.5,-420"/>
<text text-anchor="start" x="944.5" y="-426.8" font-family="Times,serif" font-weight="bold" font-size="14.00"> id </text>
<polygon fill="none" stroke="black" points="1085.5,-420 1085.5,-441 1274.5,-441 1274.5,-420 1085.5,-420"/>
<text text-anchor="start" x="1088.5" y="-426.8" font-family="Times,serif" font-size="14.00" fill="#535353"> bigint NOT NULL </text>
<polygon fill="#f5f5f5" stroke="transparent" points="941.5,-399 941.5,-420 1085.5,-420 1085.5,-399 941.5,-399"/>
<polygon fill="none" stroke="black" points="941.5,-399 941.5,-420 1085.5,-420 1085.5,-399 941.5,-399"/>
<text text-anchor="start" x="944.5" y="-405.8" font-family="Times,serif" font-weight="bold" font-size="14.00"> credential </text>
<polygon fill="none" stroke="black" points="1085.5,-399 1085.5,-420 1274.5,-420 1274.5,-399 1085.5,-399"/>
<text text-anchor="start" x="1088.5" y="-405.8" font-family="Times,serif" font-size="14.00" fill="#535353"> bytea NOT NULL </text>
<polygon fill="#f5f5f5" stroke="transparent" points="941.5,-378 941.5,-399 1085.5,-399 1085.5,-378 941.5,-378"/>
<polygon fill="none" stroke="black" points="941.5,-378 941.5,-399 1085.5,-399 1085.5,-378 941.5,-378"/>
<text text-anchor="start" x="944.5" y="-384.8" font-family="Times,serif" font-weight="bold" font-size="14.00"> first_tx </text>
<polygon fill="none" stroke="black" points="1085.5,-378 1085.5,-399 1274.5,-399 1274.5,-378 1085.5,-378"/>
<text text-anchor="start" x="1088.5" y="-384.8" font-family="Times,serif" font-size="14.00" fill="#535353"> bigint NOT NULL </text>
</g>
<!-- [&#39;public.&#39;, &#39;AddressCredentialRelation&#39;]&#45;&gt;[&#39;public.&#39;, &#39;StakeCredential&#39;] -->
<g id="edge3" class="edge">
<title>[&#39;public.&#39;, &#39;AddressCredentialRelation&#39;]:credential_id_right&#45;&gt;[&#39;public.&#39;, &#39;StakeCredential&#39;]:id</title>
<path fill="none" stroke="black" d="M861,-482C899.21,-482 898.95,-439.75 930.24,-432.16"/>
<polygon fill="black" stroke="black" points="930.96,-435.6 940.5,-431 930.17,-428.65 930.96,-435.6"/>
</g>
<!-- [&#39;public.&#39;, &#39;AssetMint&#39;] -->
<g id="node3" class="node">
<title>[&#39;public.&#39;, &#39;AssetMint&#39;]</title>
<polygon fill="#b2dfee" stroke="transparent" points="500,-270 500,-298 767,-298 767,-270 500,-270"/>
<polygon fill="none" stroke="black" points="500,-270 500,-298 767,-298 767,-270 500,-270"/>
<text text-anchor="start" x="503" y="-279" font-family="Times,serif" font-weight="bold" font-size="20.00"> [&#39;public.&#39;, &#39;AssetMint&#39;] </text>
<polygon fill="#f5f5f5" stroke="transparent" points="500,-249 500,-270 602,-270 602,-249 500,-249"/>
<polygon fill="none" stroke="black" points="500,-249 500,-270 602,-270 602,-249 500,-249"/>
<text text-anchor="start" x="503" y="-255.8" font-family="Times,serif" font-weight="bold" font-size="14.00"> tx_id </text>
<polygon fill="none" stroke="black" points="602,-249 602,-270 767,-270 767,-249 602,-249"/>
<text text-anchor="start" x="605" y="-255.8" font-family="Times,serif" font-size="14.00" fill="#535353"> bigint NOT NULL </text>
<polygon fill="#f5f5f5" stroke="transparent" points="500,-228 500,-249 602,-249 602,-228 500,-228"/>
<polygon fill="none" stroke="black" points="500,-228 500,-249 602,-249 602,-228 500,-228"/>
<text text-anchor="start" x="503" y="-234.8" font-family="Times,serif" font-weight="bold" font-size="14.00"> asset_id </text>
<polygon fill="none" stroke="black" points="602,-228 602,-249 767,-249 767,-228 602,-228"/>
<text text-anchor="start" x="605" y="-234.8" font-family="Times,serif" font-size="14.00" fill="#535353"> bigint NOT NULL </text>
<polygon fill="#f5f5f5" stroke="transparent" points="500,-207 500,-228 602,-228 602,-207 500,-207"/>
<polygon fill="none" stroke="black" points="500,-207 500,-228 602,-228 602,-207 500,-207"/>
<text text-anchor="start" x="503" y="-213.8" font-family="Times,serif" font-weight="bold" font-size="14.00"> amount </text>
<polygon fill="none" stroke="black" points="602,-207 602,-228 767,-228 767,-207 602,-207"/>
<text text-anchor="start" x="605" y="-213.8" font-family="Times,serif" font-size="14.00" fill="#535353"> bigint NOT NULL </text>
</g>
<!-- [&#39;public.&#39;, &#39;NativeAsset&#39;] -->
<g id="node6" class="node">
<title>[&#39;public.&#39;, &#39;NativeAsset&#39;]</title>
<polygon fill="#b2dfee" stroke="transparent" points="961.5,-247 961.5,-275 1254.5,-275 1254.5,-247 961.5,-247"/>
<polygon fill="none" stroke="black" points="961.5,-247 961.5,-275 1254.5,-275 1254.5,-247 961.5,-247"/>
<text text-anchor="start" x="968.5" y="-256" font-family="Times,serif" font-weight="bold" font-size="20.00"> [&#39;public.&#39;, &#39;NativeAsset&#39;] </text>
<polygon fill="#f5f5f5" stroke="transparent" points="961.5,-226 961.5,-247 1113.5,-247 1113.5,-226 961.5,-226"/>
<polygon fill="none" stroke="black" points="961.5,-226 961.5,-247 1113.5,-247 1113.5,-226 961.5,-226"/>
<text text-anchor="start" x="964.5" y="-232.8" font-family="Times,serif" font-weight="bold" font-size="14.00"> id </text>
<polygon fill="none" stroke="black" points="1113.5,-226 1113.5,-247 1254.5,-247 1254.5,-226 1113.5,-226"/>
<text text-anchor="start" x="1116.5" y="-232.8" font-family="Times,serif" font-size="14.00" fill="#535353"> bigint NOT NULL </text>
<polygon fill="#f5f5f5" stroke="transparent" points="961.5,-205 961.5,-226 1113.5,-226 1113.5,-205 961.5,-205"/>
<polygon fill="none" stroke="black" points="961.5,-205 961.5,-226 1113.5,-226 1113.5,-205 961.5,-205"/>
<text text-anchor="start" x="964.5" y="-211.8" font-family="Times,serif" font-weight="bold" font-size="14.00"> policy_id </text>
<polygon fill="none" stroke="black" points="1113.5,-205 1113.5,-226 1254.5,-226 1254.5,-205 1113.5,-205"/>
<text text-anchor="start" x="1116.5" y="-211.8" font-family="Times,serif" font-size="14.00" fill="#535353"> bytea NOT NULL </text>
<polygon fill="#f5f5f5" stroke="transparent" points="961.5,-184 961.5,-205 1113.5,-205 1113.5,-184 961.5,-184"/>
<polygon fill="none" stroke="black" points="961.5,-184 961.5,-205 1113.5,-205 1113.5,-184 961.5,-184"/>
<text text-anchor="start" x="964.5" y="-190.8" font-family="Times,serif" font-weight="bold" font-size="14.00"> asset_name </text>
<polygon fill="none" stroke="black" points="1113.5,-184 1113.5,-205 1254.5,-205 1254.5,-184 1113.5,-184"/>
<text text-anchor="start" x="1116.5" y="-190.8" font-family="Times,serif" font-size="14.00" fill="#535353"> bytea NOT NULL </text>
<polygon fill="#f5f5f5" stroke="transparent" points="961.5,-163 961.5,-184 1113.5,-184 1113.5,-163 961.5,-163"/>
<polygon fill="none" stroke="black" points="961.5,-163 961.5,-184 1113.5,-184 1113.5,-163 961.5,-163"/>
<text text-anchor="start" x="964.5" y="-169.8" font-family="Times,serif" font-weight="bold" font-size="14.00"> cip14_fingerprint </text>
<polygon fill="none" stroke="black" points="1113.5,-163 1113.5,-184 1254.5,-184 1254.5,-163 1113.5,-163"/>
<text text-anchor="start" x="1116.5" y="-169.8" font-family="Times,serif" font-size="14.00" fill="#535353"> bytea NOT NULL </text>
<polygon fill="#f5f5f5" stroke="transparent" points="961.5,-142 961.5,-163 1113.5,-163 1113.5,-142 961.5,-142"/>
<polygon fill="none" stroke="black" points="961.5,-142 961.5,-163 1113.5,-163 1113.5,-142 961.5,-142"/>
<text text-anchor="start" x="964.5" y="-148.8" font-family="Times,serif" font-weight="bold" font-size="14.00"> first_tx </text>
<polygon fill="none" stroke="black" points="1113.5,-142 1113.5,-163 1254.5,-163 1254.5,-142 1113.5,-142"/>
<text text-anchor="start" x="1116.5" y="-148.8" font-family="Times,serif" font-size="14.00" fill="#535353"> bigint NOT NULL </text>
</g>
<!-- [&#39;public.&#39;, &#39;AssetMint&#39;]&#45;&gt;[&#39;public.&#39;, &#39;NativeAsset&#39;] -->
<g id="edge4" class="edge">
<title>[&#39;public.&#39;, &#39;AssetMint&#39;]:asset_id_right&#45;&gt;[&#39;public.&#39;, &#39;NativeAsset&#39;]:id</title>
<path fill="none" stroke="black" d="M768,-238C850.05,-238 873.08,-237.08 950.29,-237"/>
<polygon fill="black" stroke="black" points="950.5,-240.5 960.5,-237 950.5,-233.5 950.5,-240.5"/>
</g>
<!-- [&#39;public.&#39;, &#39;AssetMint&#39;]&#45;&gt;[&#39;public.&#39;, &#39;Transaction&#39;] -->
<g id="edge5" class="edge">
<title>[&#39;public.&#39;, &#39;AssetMint&#39;]:tx_id_right&#45;&gt;[&#39;public.&#39;, &#39;Transaction&#39;]:id</title>
<path fill="none" stroke="black" d="M768,-260C829.71,-260 843.31,-276.84 904,-288 1084.23,-321.15 1132.39,-313.01 1311,-354 1326.83,-357.63 1332.28,-363.84 1344.33,-366.12"/>
<polygon fill="black" stroke="black" points="1344.24,-369.63 1354.5,-367 1344.84,-362.65 1344.24,-369.63"/>
</g>
<!-- [&#39;public.&#39;, &#39;Block&#39;] -->
<g id="node4" class="node">
<title>[&#39;public.&#39;, &#39;Block&#39;]</title>
<polygon fill="#b2dfee" stroke="transparent" points="1692,-334 1692,-362 1910,-362 1910,-334 1692,-334"/>
<polygon fill="none" stroke="black" points="1692,-334 1692,-362 1910,-362 1910,-334 1692,-334"/>
<text text-anchor="start" x="1695.5" y="-343" font-family="Times,serif" font-weight="bold" font-size="20.00"> [&#39;public.&#39;, &#39;Block&#39;] </text>
<polygon fill="#f5f5f5" stroke="transparent" points="1692,-313 1692,-334 1759,-334 1759,-313 1692,-313"/>
<polygon fill="none" stroke="black" points="1692,-313 1692,-334 1759,-334 1759,-313 1692,-313"/>
<text text-anchor="start" x="1695" y="-319.8" font-family="Times,serif" font-weight="bold" font-size="14.00"> id </text>
<polygon fill="none" stroke="black" points="1759,-313 1759,-334 1910,-334 1910,-313 1759,-313"/>
<text text-anchor="start" x="1762" y="-319.8" font-family="Times,serif" font-size="14.00" fill="#535353"> integer NOT NULL </text>
<polygon fill="#f5f5f5" stroke="transparent" points="1692,-292 1692,-313 1759,-313 1759,-292 1692,-292"/>
<polygon fill="none" stroke="black" points="1692,-292 1692,-313 1759,-313 1759,-292 1692,-292"/>
<text text-anchor="start" x="1695" y="-298.8" font-family="Times,serif" font-weight="bold" font-size="14.00"> era </text>
<polygon fill="none" stroke="black" points="1759,-292 1759,-313 1910,-313 1910,-292 1759,-292"/>
<text text-anchor="start" x="1762" y="-298.8" font-family="Times,serif" font-size="14.00" fill="#535353"> integer NOT NULL </text>
<polygon fill="#f5f5f5" stroke="transparent" points="1692,-271 1692,-292 1759,-292 1759,-271 1692,-271"/>
<polygon fill="none" stroke="black" points="1692,-271 1692,-292 1759,-292 1759,-271 1692,-271"/>
<text text-anchor="start" x="1695" y="-277.8" font-family="Times,serif" font-weight="bold" font-size="14.00"> hash </text>
<polygon fill="none" stroke="black" points="1759,-271 1759,-292 1910,-292 1910,-271 1759,-271"/>
<text text-anchor="start" x="1762" y="-277.8" font-family="Times,serif" font-size="14.00" fill="#535353"> bytea NOT NULL </text>
<polygon fill="#f5f5f5" stroke="transparent" points="1692,-250 1692,-271 1759,-271 1759,-250 1692,-250"/>
<polygon fill="none" stroke="black" points="1692,-250 1692,-271 1759,-271 1759,-250 1692,-250"/>
<text text-anchor="start" x="1695" y="-256.8" font-family="Times,serif" font-weight="bold" font-size="14.00"> height </text>
<polygon fill="none" stroke="black" points="1759,-250 1759,-271 1910,-271 1910,-250 1759,-250"/>
<text text-anchor="start" x="1762" y="-256.8" font-family="Times,serif" font-size="14.00" fill="#535353"> integer NOT NULL </text>
<polygon fill="#f5f5f5" stroke="transparent" points="1692,-229 1692,-250 1759,-250 1759,-229 1692,-229"/>
<polygon fill="none" stroke="black" points="1692,-229 1692,-250 1759,-250 1759,-229 1692,-229"/>
<text text-anchor="start" x="1695" y="-235.8" font-family="Times,serif" font-weight="bold" font-size="14.00"> epoch </text>
<polygon fill="none" stroke="black" points="1759,-229 1759,-250 1910,-250 1910,-229 1759,-229"/>
<text text-anchor="start" x="1762" y="-235.8" font-family="Times,serif" font-size="14.00" fill="#535353"> integer NOT NULL </text>
<polygon fill="#f5f5f5" stroke="transparent" points="1692,-208 1692,-229 1759,-229 1759,-208 1692,-208"/>
<polygon fill="none" stroke="black" points="1692,-208 1692,-229 1759,-229 1759,-208 1692,-208"/>
<text text-anchor="start" x="1695" y="-214.8" font-family="Times,serif" font-weight="bold" font-size="14.00"> slot </text>
<polygon fill="none" stroke="black" points="1759,-208 1759,-229 1910,-229 1910,-208 1759,-208"/>
<text text-anchor="start" x="1762" y="-214.8" font-family="Times,serif" font-size="14.00" fill="#535353"> integer NOT NULL </text>
</g>
<!-- [&#39;public.&#39;, &#39;Cip25Entry&#39;] -->
<g id="node5" class="node">
<title>[&#39;public.&#39;, &#39;Cip25Entry&#39;]</title>
<polygon fill="#b2dfee" stroke="transparent" points="493,-131 493,-159 773,-159 773,-131 493,-131"/>
<polygon fill="none" stroke="black" points="493,-131 493,-159 773,-159 773,-131 493,-131"/>
<text text-anchor="start" x="496" y="-140" font-family="Times,serif" font-weight="bold" font-size="20.00"> [&#39;public.&#39;, &#39;Cip25Entry&#39;] </text>
<polygon fill="#f5f5f5" stroke="transparent" points="493,-110 493,-131 618,-131 618,-110 493,-110"/>
<polygon fill="none" stroke="black" points="493,-110 493,-131 618,-131 618,-110 493,-110"/>
<text text-anchor="start" x="496" y="-116.8" font-family="Times,serif" font-weight="bold" font-size="14.00"> id </text>
<polygon fill="none" stroke="black" points="618,-110 618,-131 773,-131 773,-110 618,-110"/>
<text text-anchor="start" x="621" y="-116.8" font-family="Times,serif" font-size="14.00" fill="#535353"> bigint NOT NULL </text>
<polygon fill="#f5f5f5" stroke="transparent" points="493,-89 493,-110 618,-110 618,-89 493,-89"/>
<polygon fill="none" stroke="black" points="493,-89 493,-110 618,-110 618,-89 493,-89"/>
<text text-anchor="start" x="496" y="-95.8" font-family="Times,serif" font-weight="bold" font-size="14.00"> metadata_id </text>
<polygon fill="none" stroke="black" points="618,-89 618,-110 773,-110 773,-89 618,-89"/>
<text text-anchor="start" x="621" y="-95.8" font-family="Times,serif" font-size="14.00" fill="#535353"> bigint NOT NULL </text>
<polygon fill="#f5f5f5" stroke="transparent" points="493,-68 493,-89 618,-89 618,-68 493,-68"/>
<polygon fill="none" stroke="black" points="493,-68 493,-89 618,-89 618,-68 493,-68"/>
<text text-anchor="start" x="496" y="-74.8" font-family="Times,serif" font-weight="bold" font-size="14.00"> asset_id </text>
<polygon fill="none" stroke="black" points="618,-68 618,-89 773,-89 773,-68 618,-68"/>
<text text-anchor="start" x="621" y="-74.8" font-family="Times,serif" font-size="14.00" fill="#535353"> bigint NOT NULL </text>
<polygon fill="#f5f5f5" stroke="transparent" points="493,-47 493,-68 618,-68 618,-47 493,-47"/>
<polygon fill="none" stroke="black" points="493,-47 493,-68 618,-68 618,-47 493,-47"/>
<text text-anchor="start" x="496" y="-53.8" font-family="Times,serif" font-weight="bold" font-size="14.00"> version </text>
<polygon fill="none" stroke="black" points="618,-47 618,-68 773,-68 773,-47 618,-47"/>
<text text-anchor="start" x="621" y="-53.8" font-family="Times,serif" font-size="14.00" fill="#535353"> text NOT NULL </text>
<polygon fill="#f5f5f5" stroke="transparent" points="493,-26 493,-47 618,-47 618,-26 493,-26"/>
<polygon fill="none" stroke="black" points="493,-26 493,-47 618,-47 618,-26 493,-26"/>
<text text-anchor="start" x="496" y="-32.8" font-family="Times,serif" font-weight="bold" font-size="14.00"> payload </text>
<polygon fill="none" stroke="black" points="618,-26 618,-47 773,-47 773,-26 618,-26"/>
<text text-anchor="start" x="621" y="-32.8" font-family="Times,serif" font-size="14.00" fill="#535353"> bytea NOT NULL </text>
</g>
<!-- [&#39;public.&#39;, &#39;Cip25Entry&#39;]&#45;&gt;[&#39;public.&#39;, &#39;NativeAsset&#39;] -->
<g id="edge6" class="edge">
<title>[&#39;public.&#39;, &#39;Cip25Entry&#39;]:asset_id_right&#45;&gt;[&#39;public.&#39;, &#39;NativeAsset&#39;]:id</title>
<path fill="none" stroke="black" d="M774,-78C879.41,-78 853.45,-226.92 950.4,-236.52"/>
<polygon fill="black" stroke="black" points="950.34,-240.02 960.5,-237 950.68,-233.02 950.34,-240.02"/>
</g>
<!-- [&#39;public.&#39;, &#39;TransactionMetadata&#39;] -->
<g id="node10" class="node">
<title>[&#39;public.&#39;, &#39;TransactionMetadata&#39;]</title>
<polygon fill="#b2dfee" stroke="transparent" points="912.5,-88 912.5,-116 1303.5,-116 1303.5,-88 912.5,-88"/>
<polygon fill="none" stroke="black" points="912.5,-88 912.5,-116 1303.5,-116 1303.5,-88 912.5,-88"/>
<text text-anchor="start" x="915.5" y="-97" font-family="Times,serif" font-weight="bold" font-size="20.00"> [&#39;public.&#39;, &#39;TransactionMetadata&#39;] </text>
<polygon fill="#f5f5f5" stroke="transparent" points="912.5,-67 912.5,-88 1075.5,-88 1075.5,-67 912.5,-67"/>
<polygon fill="none" stroke="black" points="912.5,-67 912.5,-88 1075.5,-88 1075.5,-67 912.5,-67"/>
<text text-anchor="start" x="915.5" y="-73.8" font-family="Times,serif" font-weight="bold" font-size="14.00"> id </text>
<polygon fill="none" stroke="black" points="1075.5,-67 1075.5,-88 1303.5,-88 1303.5,-67 1075.5,-67"/>
<text text-anchor="start" x="1078.5" y="-73.8" font-family="Times,serif" font-size="14.00" fill="#535353"> bigint NOT NULL </text>
<polygon fill="#f5f5f5" stroke="transparent" points="912.5,-46 912.5,-67 1075.5,-67 1075.5,-46 912.5,-46"/>
<polygon fill="none" stroke="black" points="912.5,-46 912.5,-67 1075.5,-67 1075.5,-46 912.5,-46"/>
<text text-anchor="start" x="915.5" y="-52.8" font-family="Times,serif" font-weight="bold" font-size="14.00"> tx_id </text>
<polygon fill="none" stroke="black" points="1075.5,-46 1075.5,-67 1303.5,-67 1303.5,-46 1075.5,-46"/>
<text text-anchor="start" x="1078.5" y="-52.8" font-family="Times,serif" font-size="14.00" fill="#535353"> bigint NOT NULL </text>
<polygon fill="#f5f5f5" stroke="transparent" points="912.5,-25 912.5,-46 1075.5,-46 1075.5,-25 912.5,-25"/>
<polygon fill="none" stroke="black" points="912.5,-25 912.5,-46 1075.5,-46 1075.5,-25 912.5,-25"/>
<text text-anchor="start" x="915.5" y="-31.8" font-family="Times,serif" font-weight="bold" font-size="14.00"> label </text>
<polygon fill="none" stroke="black" points="1075.5,-25 1075.5,-46 1303.5,-46 1303.5,-25 1075.5,-25"/>
<text text-anchor="start" x="1078.5" y="-31.8" font-family="Times,serif" font-size="14.00" fill="#535353"> bytea NOT NULL </text>
<polygon fill="#f5f5f5" stroke="transparent" points="912.5,-4 912.5,-25 1075.5,-25 1075.5,-4 912.5,-4"/>
<polygon fill="none" stroke="black" points="912.5,-4 912.5,-25 1075.5,-25 1075.5,-4 912.5,-4"/>
<text text-anchor="start" x="915.5" y="-10.8" font-family="Times,serif" font-weight="bold" font-size="14.00"> payload </text>
<polygon fill="none" stroke="black" points="1075.5,-4 1075.5,-25 1303.5,-25 1303.5,-4 1075.5,-4"/>
<text text-anchor="start" x="1078.5" y="-10.8" font-family="Times,serif" font-size="14.00" fill="#535353"> bytea NOT NULL </text>
</g>
<!-- [&#39;public.&#39;, &#39;Cip25Entry&#39;]&#45;&gt;[&#39;public.&#39;, &#39;TransactionMetadata&#39;] -->
<g id="edge7" class="edge">
<title>[&#39;public.&#39;, &#39;Cip25Entry&#39;]:metadata_id_right&#45;&gt;[&#39;public.&#39;, &#39;TransactionMetadata&#39;]:id</title>
<path fill="none" stroke="black" d="M774,-100C832.38,-100 847.9,-80.42 901.43,-78.2"/>
<polygon fill="black" stroke="black" points="901.57,-81.7 911.5,-78 901.43,-74.7 901.57,-81.7"/>
</g>
<!-- [&#39;public.&#39;, &#39;NativeAsset&#39;]&#45;&gt;[&#39;public.&#39;, &#39;Transaction&#39;] -->
<g id="edge9" class="edge">
<title>[&#39;public.&#39;, &#39;NativeAsset&#39;]:first_tx_right&#45;&gt;[&#39;public.&#39;, &#39;Transaction&#39;]:id</title>
<path fill="none" stroke="black" d="M1255.5,-152C1304.61,-152 1302.46,-339.39 1344.76,-364.28"/>
<polygon fill="black" stroke="black" points="1343.93,-367.68 1354.5,-367 1345.81,-360.94 1343.93,-367.68"/>
</g>
<!-- [&#39;public.&#39;, &#39;StakeCredential&#39;]&#45;&gt;[&#39;public.&#39;, &#39;Transaction&#39;] -->
<g id="edge10" class="edge">
<title>[&#39;public.&#39;, &#39;StakeCredential&#39;]:first_tx_right&#45;&gt;[&#39;public.&#39;, &#39;Transaction&#39;]:id</title>
<path fill="none" stroke="black" d="M1275.5,-388C1308.14,-388 1316.57,-371.05 1344.3,-367.61"/>
<polygon fill="black" stroke="black" points="1344.73,-371.09 1354.5,-367 1344.31,-364.1 1344.73,-371.09"/>
</g>
<!-- [&#39;public.&#39;, &#39;Transaction&#39;]&#45;&gt;[&#39;public.&#39;, &#39;Block&#39;] -->
<g id="edge11" class="edge">
<title>[&#39;public.&#39;, &#39;Transaction&#39;]:block_id_right&#45;&gt;[&#39;public.&#39;, &#39;Block&#39;]:id</title>
<path fill="none" stroke="black" d="M1641.5,-324C1659.72,-324 1666.62,-324 1680.95,-324"/>
<polygon fill="black" stroke="black" points="1681,-327.5 1691,-324 1681,-320.5 1681,-327.5"/>
</g>
<!-- [&#39;public.&#39;, &#39;TransactionInput&#39;] -->
<g id="node9" class="node">
<title>[&#39;public.&#39;, &#39;TransactionInput&#39;]</title>
<polygon fill="#b2dfee" stroke="transparent" points="8,-672 8,-700 354,-700 354,-672 8,-672"/>
<polygon fill="none" stroke="black" points="8,-672 8,-700 354,-700 354,-672 8,-672"/>
<text text-anchor="start" x="11" y="-681" font-family="Times,serif" font-weight="bold" font-size="20.00"> [&#39;public.&#39;, &#39;TransactionInput&#39;] </text>
<polygon fill="#f5f5f5" stroke="transparent" points="8,-651 8,-672 159,-672 159,-651 8,-651"/>
<polygon fill="none" stroke="black" points="8,-651 8,-672 159,-672 159,-651 8,-651"/>
<text text-anchor="start" x="11" y="-657.8" font-family="Times,serif" font-weight="bold" font-size="14.00"> id </text>
<polygon fill="none" stroke="black" points="159,-651 159,-672 354,-672 354,-651 159,-651"/>
<text text-anchor="start" x="162" y="-657.8" font-family="Times,serif" font-size="14.00" fill="#535353"> bigint NOT NULL </text>
<polygon fill="#f5f5f5" stroke="transparent" points="8,-630 8,-651 159,-651 159,-630 8,-630"/>
<polygon fill="none" stroke="black" points="8,-630 8,-651 159,-651 159,-630 8,-630"/>
<text text-anchor="start" x="11" y="-636.8" font-family="Times,serif" font-weight="bold" font-size="14.00"> utxo_id </text>
<polygon fill="none" stroke="black" points="159,-630 159,-651 354,-651 354,-630 159,-630"/>
<text text-anchor="start" x="162" y="-636.8" font-family="Times,serif" font-size="14.00" fill="#535353"> bigint NOT NULL </text>
<polygon fill="#f5f5f5" stroke="transparent" points="8,-609 8,-630 159,-630 159,-609 8,-609"/>
<polygon fill="none" stroke="black" points="8,-609 8,-630 159,-630 159,-609 8,-609"/>
<text text-anchor="start" x="11" y="-615.8" font-family="Times,serif" font-weight="bold" font-size="14.00"> tx_id </text>
<polygon fill="none" stroke="black" points="159,-609 159,-630 354,-630 354,-609 159,-609"/>
<text text-anchor="start" x="162" y="-615.8" font-family="Times,serif" font-size="14.00" fill="#535353"> bigint NOT NULL </text>
<polygon fill="#f5f5f5" stroke="transparent" points="8,-588 8,-609 159,-609 159,-588 8,-588"/>
<polygon fill="none" stroke="black" points="8,-588 8,-609 159,-609 159,-588 8,-588"/>
<text text-anchor="start" x="11" y="-594.8" font-family="Times,serif" font-weight="bold" font-size="14.00"> address_id </text>
<polygon fill="none" stroke="black" points="159,-588 159,-609 354,-609 354,-588 159,-588"/>
<text text-anchor="start" x="162" y="-594.8" font-family="Times,serif" font-size="14.00" fill="#535353"> bigint NOT NULL </text>
<polygon fill="#f5f5f5" stroke="transparent" points="8,-567 8,-588 159,-588 159,-567 8,-567"/>
<polygon fill="none" stroke="black" points="8,-567 8,-588 159,-588 159,-567 8,-567"/>
<text text-anchor="start" x="11" y="-573.8" font-family="Times,serif" font-weight="bold" font-size="14.00"> input_index </text>
<polygon fill="none" stroke="black" points="159,-567 159,-588 354,-588 354,-567 159,-567"/>
<text text-anchor="start" x="162" y="-573.8" font-family="Times,serif" font-size="14.00" fill="#535353"> integer NOT NULL </text>
</g>
<!-- [&#39;public.&#39;, &#39;TransactionInput&#39;]&#45;&gt;[&#39;public.&#39;, &#39;Address&#39;] -->
<g id="edge12" class="edge">
<title>[&#39;public.&#39;, &#39;TransactionInput&#39;]:address_id_right&#45;&gt;[&#39;public.&#39;, &#39;Address&#39;]:id</title>
<path fill="none" stroke="black" d="M355,-598C422.42,-598 876.76,-551.83 974.41,-548.22"/>
<polygon fill="black" stroke="black" points="974.58,-551.72 984.5,-548 974.43,-544.72 974.58,-551.72"/>
</g>
<!-- [&#39;public.&#39;, &#39;TransactionInput&#39;]&#45;&gt;[&#39;public.&#39;, &#39;Transaction&#39;] -->
<g id="edge13" class="edge">
<title>[&#39;public.&#39;, &#39;TransactionInput&#39;]:tx_id_right&#45;&gt;[&#39;public.&#39;, &#39;Transaction&#39;]:id</title>
<path fill="none" stroke="black" d="M355,-619C408.12,-619 1270.48,-633.35 1311,-599 1388.21,-533.55 1259.26,-378.42 1344.33,-367.6"/>
<polygon fill="black" stroke="black" points="1344.72,-371.08 1354.5,-367 1344.31,-364.09 1344.72,-371.08"/>
</g>
<!-- [&#39;public.&#39;, &#39;TransactionOutput&#39;] -->
<g id="node11" class="node">
<title>[&#39;public.&#39;, &#39;TransactionOutput&#39;]</title>
<polygon fill="#b2dfee" stroke="transparent" points="452,-756 452,-784 815,-784 815,-756 452,-756"/>
<polygon fill="none" stroke="black" points="452,-756 452,-784 815,-784 815,-756 452,-756"/>
<text text-anchor="start" x="455" y="-765" font-family="Times,serif" font-weight="bold" font-size="20.00"> [&#39;public.&#39;, &#39;TransactionOutput&#39;] </text>
<polygon fill="#f5f5f5" stroke="transparent" points="452,-735 452,-756 617,-756 617,-735 452,-735"/>
<polygon fill="none" stroke="black" points="452,-735 452,-756 617,-756 617,-735 452,-735"/>
<text text-anchor="start" x="455" y="-741.8" font-family="Times,serif" font-weight="bold" font-size="14.00"> id </text>
<polygon fill="none" stroke="black" points="617,-735 617,-756 815,-756 815,-735 617,-735"/>
<text text-anchor="start" x="620" y="-741.8" font-family="Times,serif" font-size="14.00" fill="#535353"> bigint NOT NULL </text>
<polygon fill="#f5f5f5" stroke="transparent" points="452,-714 452,-735 617,-735 617,-714 452,-714"/>
<polygon fill="none" stroke="black" points="452,-714 452,-735 617,-735 617,-714 452,-714"/>
<text text-anchor="start" x="455" y="-720.8" font-family="Times,serif" font-weight="bold" font-size="14.00"> payload </text>
<polygon fill="none" stroke="black" points="617,-714 617,-735 815,-735 815,-714 617,-714"/>
<text text-anchor="start" x="620" y="-720.8" font-family="Times,serif" font-size="14.00" fill="#535353"> bytea NOT NULL </text>
<polygon fill="#f5f5f5" stroke="transparent" points="452,-693 452,-714 617,-714 617,-693 452,-693"/>
<polygon fill="none" stroke="black" points="452,-693 452,-714 617,-714 617,-693 452,-693"/>
<text text-anchor="start" x="455" y="-699.8" font-family="Times,serif" font-weight="bold" font-size="14.00"> address_id </text>
<polygon fill="none" stroke="black" points="617,-693 617,-714 815,-714 815,-693 617,-693"/>
<text text-anchor="start" x="620" y="-699.8" font-family="Times,serif" font-size="14.00" fill="#535353"> bigint NOT NULL </text>
<polygon fill="#f5f5f5" stroke="transparent" points="452,-672 452,-693 617,-693 617,-672 452,-672"/>
<polygon fill="none" stroke="black" points="452,-672 452,-693 617,-693 617,-672 452,-672"/>
<text text-anchor="start" x="455" y="-678.8" font-family="Times,serif" font-weight="bold" font-size="14.00"> tx_id </text>
<polygon fill="none" stroke="black" points="617,-672 617,-693 815,-693 815,-672 617,-672"/>
<text text-anchor="start" x="620" y="-678.8" font-family="Times,serif" font-size="14.00" fill="#535353"> bigint NOT NULL </text>
<polygon fill="#f5f5f5" stroke="transparent" points="452,-651 452,-672 617,-672 617,-651 452,-651"/>
<polygon fill="none" stroke="black" points="452,-651 452,-672 617,-672 617,-651 452,-651"/>
<text text-anchor="start" x="455" y="-657.8" font-family="Times,serif" font-weight="bold" font-size="14.00"> output_index </text>
<polygon fill="none" stroke="black" points="617,-651 617,-672 815,-672 815,-651 617,-651"/>
<text text-anchor="start" x="620" y="-657.8" font-family="Times,serif" font-size="14.00" fill="#535353"> integer NOT NULL </text>
</g>
<!-- [&#39;public.&#39;, &#39;TransactionInput&#39;]&#45;&gt;[&#39;public.&#39;, &#39;TransactionOutput&#39;] -->
<g id="edge14" class="edge">
<title>[&#39;public.&#39;, &#39;TransactionInput&#39;]:utxo_id_right&#45;&gt;[&#39;public.&#39;, &#39;TransactionOutput&#39;]:id</title>
<path fill="none" stroke="black" d="M355,-641C414.53,-641 391.02,-734.06 440.81,-744.96"/>
<polygon fill="black" stroke="black" points="440.7,-748.47 451,-746 441.41,-741.5 440.7,-748.47"/>
</g>
<!-- [&#39;public.&#39;, &#39;TransactionMetadata&#39;]&#45;&gt;[&#39;public.&#39;, &#39;Transaction&#39;] -->
<g id="edge8" class="edge">
<title>[&#39;public.&#39;, &#39;TransactionMetadata&#39;]:tx_id_right&#45;&gt;[&#39;public.&#39;, &#39;Transaction&#39;]:id</title>
<path fill="none" stroke="black" d="M1304.5,-56C1370.81,-56 1293.55,-335.06 1344.71,-364.5"/>
<polygon fill="black" stroke="black" points="1343.94,-367.91 1354.5,-367 1345.68,-361.13 1343.94,-367.91"/>
</g>
<!-- [&#39;public.&#39;, &#39;TransactionOutput&#39;]&#45;&gt;[&#39;public.&#39;, &#39;Address&#39;] -->
<g id="edge15" class="edge">
<title>[&#39;public.&#39;, &#39;TransactionOutput&#39;]:address_id_right&#45;&gt;[&#39;public.&#39;, &#39;Address&#39;]:id</title>
<path fill="none" stroke="black" d="M816,-703C914.18,-703 885.04,-558.71 974.26,-548.56"/>
<polygon fill="black" stroke="black" points="974.71,-552.04 984.5,-548 974.32,-545.05 974.71,-552.04"/>
</g>
<!-- [&#39;public.&#39;, &#39;TransactionOutput&#39;]&#45;&gt;[&#39;public.&#39;, &#39;Transaction&#39;] -->
<g id="edge16" class="edge">
<title>[&#39;public.&#39;, &#39;TransactionOutput&#39;]:tx_id_right&#45;&gt;[&#39;public.&#39;, &#39;Transaction&#39;]:id</title>
<path fill="none" stroke="black" d="M816,-682C1037.08,-682 1149.8,-784.29 1311,-633 1351.95,-594.57 1301.71,-394.41 1344.62,-369.54"/>
<polygon fill="black" stroke="black" points="1345.68,-372.88 1354.5,-367 1343.94,-366.1 1345.68,-372.88"/>
</g>
<!-- [&#39;public.&#39;, &#39;TxCredentialRelation&#39;] -->
<g id="node12" class="node">
<title>[&#39;public.&#39;, &#39;TxCredentialRelation&#39;]</title>
<polygon fill="#b2dfee" stroke="transparent" points="438,-389 438,-417 829,-417 829,-389 438,-389"/>
<polygon fill="none" stroke="black" points="438,-389 438,-417 829,-417 829,-389 438,-389"/>
<text text-anchor="start" x="441" y="-398" font-family="Times,serif" font-weight="bold" font-size="20.00"> [&#39;public.&#39;, &#39;TxCredentialRelation&#39;] </text>
<polygon fill="#f5f5f5" stroke="transparent" points="438,-368 438,-389 617,-389 617,-368 438,-368"/>
<polygon fill="none" stroke="black" points="438,-368 438,-389 617,-389 617,-368 438,-368"/>
<text text-anchor="start" x="441" y="-374.8" font-family="Times,serif" font-weight="bold" font-size="14.00"> credential_id </text>
<polygon fill="none" stroke="black" points="617,-368 617,-389 829,-389 829,-368 617,-368"/>
<text text-anchor="start" x="620" y="-374.8" font-family="Times,serif" font-size="14.00" fill="#535353"> bigint NOT NULL </text>
<polygon fill="#f5f5f5" stroke="transparent" points="438,-347 438,-368 617,-368 617,-347 438,-347"/>
<polygon fill="none" stroke="black" points="438,-347 438,-368 617,-368 617,-347 438,-347"/>
<text text-anchor="start" x="441" y="-353.8" font-family="Times,serif" font-weight="bold" font-size="14.00"> tx_id </text>
<polygon fill="none" stroke="black" points="617,-347 617,-368 829,-368 829,-347 617,-347"/>
<text text-anchor="start" x="620" y="-353.8" font-family="Times,serif" font-size="14.00" fill="#535353"> bigint NOT NULL </text>
<polygon fill="#f5f5f5" stroke="transparent" points="438,-326 438,-347 617,-347 617,-326 438,-326"/>
<polygon fill="none" stroke="black" points="438,-326 438,-347 617,-347 617,-326 438,-326"/>
<text text-anchor="start" x="441" y="-332.8" font-family="Times,serif" font-weight="bold" font-size="14.00"> relation </text>
<polygon fill="none" stroke="black" points="617,-326 617,-347 829,-347 829,-326 617,-326"/>
<text text-anchor="start" x="620" y="-332.8" font-family="Times,serif" font-size="14.00" fill="#535353"> integer NOT NULL </text>
</g>
<!-- [&#39;public.&#39;, &#39;TxCredentialRelation&#39;]&#45;&gt;[&#39;public.&#39;, &#39;StakeCredential&#39;] -->
<g id="edge17" class="edge">
<title>[&#39;public.&#39;, &#39;TxCredentialRelation&#39;]:credential_id_right&#45;&gt;[&#39;public.&#39;, &#39;StakeCredential&#39;]:id</title>
<path fill="none" stroke="black" d="M830,-379C880.67,-379 885.73,-424.32 930.35,-430.34"/>
<polygon fill="black" stroke="black" points="930.29,-433.85 940.5,-431 930.75,-426.86 930.29,-433.85"/>
</g>
<!-- [&#39;public.&#39;, &#39;TxCredentialRelation&#39;]&#45;&gt;[&#39;public.&#39;, &#39;Transaction&#39;] -->
<g id="edge18" class="edge">
<title>[&#39;public.&#39;, &#39;TxCredentialRelation&#39;]:tx_id_right&#45;&gt;[&#39;public.&#39;, &#39;Transaction&#39;]:id</title>
<path fill="none" stroke="black" d="M830,-357C1043.81,-357 1097.3,-358.31 1311,-365 1326.41,-365.48 1332.6,-366.47 1344.26,-366.85"/>
<polygon fill="black" stroke="black" points="1344.45,-370.35 1354.5,-367 1344.55,-363.35 1344.45,-370.35"/>
</g>
<!-- [&#39;public.seaql_migrations&#39;] -->
<g id="node13" class="node">
<title>[&#39;public.seaql_migrations&#39;]</title>
<polygon fill="#b2dfee" stroke="transparent" points="20,-769 20,-797 342,-797 342,-769 20,-769"/>
<polygon fill="none" stroke="black" points="20,-769 20,-797 342,-797 342,-769 20,-769"/>
<text text-anchor="start" x="25" y="-778" font-family="Times,serif" font-weight="bold" font-size="20.00"> [&#39;public.seaql_migrations&#39;] </text>
<polygon fill="#f5f5f5" stroke="transparent" points="20,-748 20,-769 116,-769 116,-748 20,-748"/>
<polygon fill="none" stroke="black" points="20,-748 20,-769 116,-769 116,-748 20,-748"/>
<text text-anchor="start" x="23" y="-754.8" font-family="Times,serif" font-weight="bold" font-size="14.00"> version </text>
<polygon fill="none" stroke="black" points="116,-748 116,-769 342,-769 342,-748 116,-748"/>
<text text-anchor="start" x="119" y="-754.8" font-family="Times,serif" font-size="14.00" fill="#535353"> character varying NOT NULL </text>
<polygon fill="#f5f5f5" stroke="transparent" points="20,-727 20,-748 116,-748 116,-727 20,-727"/>
<polygon fill="none" stroke="black" points="20,-727 20,-748 116,-748 116,-727 20,-727"/>
<text text-anchor="start" x="23" y="-733.8" font-family="Times,serif" font-weight="bold" font-size="14.00"> applied_at </text>
<polygon fill="none" stroke="black" points="116,-727 116,-748 342,-748 342,-727 116,-727"/>
<text text-anchor="start" x="119" y="-733.8" font-family="Times,serif" font-size="14.00" fill="#535353"> bigint NOT NULL </text>
</g>
</g>
</svg>
