<?xml version="1.0" encoding="UTF-8" standalone="no"?>
<!DOCTYPE svg PUBLIC "-//W3C//DTD SVG 1.1//EN"
 "http://www.w3.org/Graphics/SVG/1.1/DTD/svg11.dtd">
<!-- Generated by graphviz version 2.43.0 (0)
 -->
<!-- Title: g Pages: 1 -->
<svg width="1531pt" height="776pt"
 viewBox="0.00 0.00 1531.00 776.08" xmlns="http://www.w3.org/2000/svg" xmlns:xlink="http://www.w3.org/1999/xlink">
<g id="graph0" class="graph" transform="scale(1 1) rotate(0) translate(4 772.08)">
<title>g</title>
<polygon fill="white" stroke="transparent" points="-4,4 -4,-772.08 1527,-772.08 1527,4 -4,4"/>
<!-- [&#39;public.&#39;, &#39;Address&#39;] -->
<g id="node1" class="node">
<title>[&#39;public.&#39;, &#39;Address&#39;]</title>
<polygon fill="#b2dfee" stroke="transparent" points="956.5,-656.58 956.5,-684.58 1200.5,-684.58 1200.5,-656.58 956.5,-656.58"/>
<polygon fill="none" stroke="black" points="956.5,-656.58 956.5,-684.58 1200.5,-684.58 1200.5,-656.58 956.5,-656.58"/>
<text text-anchor="start" x="959.5" y="-665.58" font-family="Times,serif" font-weight="bold" font-size="20.00"> [&#39;public.&#39;, &#39;Address&#39;] </text>
<polygon fill="#f5f5f5" stroke="transparent" points="956.5,-635.58 956.5,-656.58 1045.5,-656.58 1045.5,-635.58 956.5,-635.58"/>
<polygon fill="none" stroke="black" points="956.5,-635.58 956.5,-656.58 1045.5,-656.58 1045.5,-635.58 956.5,-635.58"/>
<text text-anchor="start" x="959.5" y="-642.38" font-family="Times,serif" font-weight="bold" font-size="14.00"> id </text>
<polygon fill="none" stroke="black" points="1045.5,-635.58 1045.5,-656.58 1200.5,-656.58 1200.5,-635.58 1045.5,-635.58"/>
<text text-anchor="start" x="1048.5" y="-642.38" font-family="Times,serif" font-size="14.00" fill="#535353"> bigint NOT NULL </text>
<polygon fill="#f5f5f5" stroke="transparent" points="956.5,-614.58 956.5,-635.58 1045.5,-635.58 1045.5,-614.58 956.5,-614.58"/>
<polygon fill="none" stroke="black" points="956.5,-614.58 956.5,-635.58 1045.5,-635.58 1045.5,-614.58 956.5,-614.58"/>
<text text-anchor="start" x="959.5" y="-621.38" font-family="Times,serif" font-weight="bold" font-size="14.00"> payload </text>
<polygon fill="none" stroke="black" points="1045.5,-614.58 1045.5,-635.58 1200.5,-635.58 1200.5,-614.58 1045.5,-614.58"/>
<text text-anchor="start" x="1048.5" y="-621.38" font-family="Times,serif" font-size="14.00" fill="#535353"> bytea NOT NULL </text>
</g>
<!-- [&#39;public.&#39;, &#39;AddressCredentialRelation&#39;] -->
<g id="node2" class="node">
<title>[&#39;public.&#39;, &#39;AddressCredentialRelation&#39;]</title>
<polygon fill="#b2dfee" stroke="transparent" points="406,-735.58 406,-763.58 860,-763.58 860,-735.58 406,-735.58"/>
<polygon fill="none" stroke="black" points="406,-735.58 406,-763.58 860,-763.58 860,-735.58 406,-735.58"/>
<text text-anchor="start" x="409" y="-744.58" font-family="Times,serif" font-weight="bold" font-size="20.00"> [&#39;public.&#39;, &#39;AddressCredentialRelation&#39;] </text>
<polygon fill="#f5f5f5" stroke="transparent" points="406,-714.58 406,-735.58 616,-735.58 616,-714.58 406,-714.58"/>
<polygon fill="none" stroke="black" points="406,-714.58 406,-735.58 616,-735.58 616,-714.58 406,-714.58"/>
<text text-anchor="start" x="409" y="-721.38" font-family="Times,serif" font-weight="bold" font-size="14.00"> address_id </text>
<polygon fill="none" stroke="black" points="616,-714.58 616,-735.58 860,-735.58 860,-714.58 616,-714.58"/>
<text text-anchor="start" x="619" y="-721.38" font-family="Times,serif" font-size="14.00" fill="#535353"> bigint NOT NULL </text>
<polygon fill="#f5f5f5" stroke="transparent" points="406,-693.58 406,-714.58 616,-714.58 616,-693.58 406,-693.58"/>
<polygon fill="none" stroke="black" points="406,-693.58 406,-714.58 616,-714.58 616,-693.58 406,-693.58"/>
<text text-anchor="start" x="409" y="-700.38" font-family="Times,serif" font-weight="bold" font-size="14.00"> credential_id </text>
<polygon fill="none" stroke="black" points="616,-693.58 616,-714.58 860,-714.58 860,-693.58 616,-693.58"/>
<text text-anchor="start" x="619" y="-700.38" font-family="Times,serif" font-size="14.00" fill="#535353"> bigint NOT NULL </text>
<polygon fill="#f5f5f5" stroke="transparent" points="406,-672.58 406,-693.58 616,-693.58 616,-672.58 406,-672.58"/>
<polygon fill="none" stroke="black" points="406,-672.58 406,-693.58 616,-693.58 616,-672.58 406,-672.58"/>
<text text-anchor="start" x="409" y="-679.38" font-family="Times,serif" font-weight="bold" font-size="14.00"> relation </text>
<polygon fill="none" stroke="black" points="616,-672.58 616,-693.58 860,-693.58 860,-672.58 616,-672.58"/>
<text text-anchor="start" x="619" y="-679.38" font-family="Times,serif" font-size="14.00" fill="#535353"> integer NOT NULL </text>
</g>
<!-- [&#39;public.&#39;, &#39;AddressCredentialRelation&#39;]&#45;&gt;[&#39;public.&#39;, &#39;Address&#39;] -->
<g id="edge1" class="edge">
<title>[&#39;public.&#39;, &#39;AddressCredentialRelation&#39;]:address_id_right&#45;&gt;[&#39;public.&#39;, &#39;Address&#39;]:id</title>
<path fill="none" stroke="black" d="M861,-725.58C912.37,-725.58 902.23,-655.85 945.43,-646.59"/>
<polygon fill="black" stroke="black" points="945.9,-650.06 955.5,-645.58 945.2,-643.1 945.9,-650.06"/>
</g>
<!-- [&#39;public.&#39;, &#39;StakeCredential&#39;] -->
<g id="node7" class="node">
<title>[&#39;public.&#39;, &#39;StakeCredential&#39;]</title>
<polygon fill="#b2dfee" stroke="transparent" points="912.5,-560.58 912.5,-588.58 1245.5,-588.58 1245.5,-560.58 912.5,-560.58"/>
<polygon fill="none" stroke="black" points="912.5,-560.58 912.5,-588.58 1245.5,-588.58 1245.5,-560.58 912.5,-560.58"/>
<text text-anchor="start" x="915.5" y="-569.58" font-family="Times,serif" font-weight="bold" font-size="20.00"> [&#39;public.&#39;, &#39;StakeCredential&#39;] </text>
<polygon fill="#f5f5f5" stroke="transparent" points="912.5,-539.58 912.5,-560.58 1056.5,-560.58 1056.5,-539.58 912.5,-539.58"/>
<polygon fill="none" stroke="black" points="912.5,-539.58 912.5,-560.58 1056.5,-560.58 1056.5,-539.58 912.5,-539.58"/>
<text text-anchor="start" x="915.5" y="-546.38" font-family="Times,serif" font-weight="bold" font-size="14.00"> id </text>
<polygon fill="none" stroke="black" points="1056.5,-539.58 1056.5,-560.58 1245.5,-560.58 1245.5,-539.58 1056.5,-539.58"/>
<text text-anchor="start" x="1059.5" y="-546.38" font-family="Times,serif" font-size="14.00" fill="#535353"> bigint NOT NULL </text>
<polygon fill="#f5f5f5" stroke="transparent" points="912.5,-518.58 912.5,-539.58 1056.5,-539.58 1056.5,-518.58 912.5,-518.58"/>
<polygon fill="none" stroke="black" points="912.5,-518.58 912.5,-539.58 1056.5,-539.58 1056.5,-518.58 912.5,-518.58"/>
<text text-anchor="start" x="915.5" y="-525.38" font-family="Times,serif" font-weight="bold" font-size="14.00"> credential </text>
<polygon fill="none" stroke="black" points="1056.5,-518.58 1056.5,-539.58 1245.5,-539.58 1245.5,-518.58 1056.5,-518.58"/>
<text text-anchor="start" x="1059.5" y="-525.38" font-family="Times,serif" font-size="14.00" fill="#535353"> bytea NOT NULL </text>
</g>
<!-- [&#39;public.&#39;, &#39;AddressCredentialRelation&#39;]&#45;&gt;[&#39;public.&#39;, &#39;StakeCredential&#39;] -->
<g id="edge2" class="edge">
<title>[&#39;public.&#39;, &#39;AddressCredentialRelation&#39;]:credential_id_right&#45;&gt;[&#39;public.&#39;, &#39;StakeCredential&#39;]:id</title>
<path fill="none" stroke="black" d="M861,-703.58C929.23,-703.58 848.88,-565.39 901.44,-550.82"/>
<polygon fill="black" stroke="black" points="902,-554.28 911.5,-549.58 901.15,-547.33 902,-554.28"/>
</g>
<!-- [&#39;public.&#39;, &#39;AssetMint&#39;] -->
<g id="node3" class="node">
<title>[&#39;public.&#39;, &#39;AssetMint&#39;]</title>
<polygon fill="#b2dfee" stroke="transparent" points="48,-74.58 48,-102.58 315,-102.58 315,-74.58 48,-74.58"/>
<polygon fill="none" stroke="black" points="48,-74.58 48,-102.58 315,-102.58 315,-74.58 48,-74.58"/>
<text text-anchor="start" x="51" y="-83.58" font-family="Times,serif" font-weight="bold" font-size="20.00"> [&#39;public.&#39;, &#39;AssetMint&#39;] </text>
<polygon fill="#f5f5f5" stroke="transparent" points="48,-53.58 48,-74.58 150,-74.58 150,-53.58 48,-53.58"/>
<polygon fill="none" stroke="black" points="48,-53.58 48,-74.58 150,-74.58 150,-53.58 48,-53.58"/>
<text text-anchor="start" x="51" y="-60.38" font-family="Times,serif" font-weight="bold" font-size="14.00"> tx_id </text>
<polygon fill="none" stroke="black" points="150,-53.58 150,-74.58 315,-74.58 315,-53.58 150,-53.58"/>
<text text-anchor="start" x="153" y="-60.38" font-family="Times,serif" font-size="14.00" fill="#535353"> bigint NOT NULL </text>
<polygon fill="#f5f5f5" stroke="transparent" points="48,-32.58 48,-53.58 150,-53.58 150,-32.58 48,-32.58"/>
<polygon fill="none" stroke="black" points="48,-32.58 48,-53.58 150,-53.58 150,-32.58 48,-32.58"/>
<text text-anchor="start" x="51" y="-39.38" font-family="Times,serif" font-weight="bold" font-size="14.00"> asset_id </text>
<polygon fill="none" stroke="black" points="150,-32.58 150,-53.58 315,-53.58 315,-32.58 150,-32.58"/>
<text text-anchor="start" x="153" y="-39.38" font-family="Times,serif" font-size="14.00" fill="#535353"> bigint NOT NULL </text>
<polygon fill="#f5f5f5" stroke="transparent" points="48,-11.58 48,-32.58 150,-32.58 150,-11.58 48,-11.58"/>
<polygon fill="none" stroke="black" points="48,-11.58 48,-32.58 150,-32.58 150,-11.58 48,-11.58"/>
<text text-anchor="start" x="51" y="-18.38" font-family="Times,serif" font-weight="bold" font-size="14.00"> amount </text>
<polygon fill="none" stroke="black" points="150,-11.58 150,-32.58 315,-32.58 315,-11.58 150,-11.58"/>
<text text-anchor="start" x="153" y="-18.38" font-family="Times,serif" font-size="14.00" fill="#535353"> bigint NOT NULL </text>
</g>
<!-- [&#39;public.&#39;, &#39;NativeAsset&#39;] -->
<g id="node6" class="node">
<title>[&#39;public.&#39;, &#39;NativeAsset&#39;]</title>
<polygon fill="#b2dfee" stroke="transparent" points="491,-144.58 491,-172.58 776,-172.58 776,-144.58 491,-144.58"/>
<polygon fill="none" stroke="black" points="491,-144.58 491,-172.58 776,-172.58 776,-144.58 491,-144.58"/>
<text text-anchor="start" x="494" y="-153.58" font-family="Times,serif" font-weight="bold" font-size="20.00"> [&#39;public.&#39;, &#39;NativeAsset&#39;] </text>
<polygon fill="#f5f5f5" stroke="transparent" points="491,-123.58 491,-144.58 616,-144.58 616,-123.58 491,-123.58"/>
<polygon fill="none" stroke="black" points="491,-123.58 491,-144.58 616,-144.58 616,-123.58 491,-123.58"/>
<text text-anchor="start" x="494" y="-130.38" font-family="Times,serif" font-weight="bold" font-size="14.00"> id </text>
<polygon fill="none" stroke="black" points="616,-123.58 616,-144.58 776,-144.58 776,-123.58 616,-123.58"/>
<text text-anchor="start" x="619" y="-130.38" font-family="Times,serif" font-size="14.00" fill="#535353"> bigint NOT NULL </text>
<polygon fill="#f5f5f5" stroke="transparent" points="491,-102.58 491,-123.58 616,-123.58 616,-102.58 491,-102.58"/>
<polygon fill="none" stroke="black" points="491,-102.58 491,-123.58 616,-123.58 616,-102.58 491,-102.58"/>
<text text-anchor="start" x="494" y="-109.38" font-family="Times,serif" font-weight="bold" font-size="14.00"> policy_id </text>
<polygon fill="none" stroke="black" points="616,-102.58 616,-123.58 776,-123.58 776,-102.58 616,-102.58"/>
<text text-anchor="start" x="619" y="-109.38" font-family="Times,serif" font-size="14.00" fill="#535353"> bytea NOT NULL </text>
<polygon fill="#f5f5f5" stroke="transparent" points="491,-81.58 491,-102.58 616,-102.58 616,-81.58 491,-81.58"/>
<polygon fill="none" stroke="black" points="491,-81.58 491,-102.58 616,-102.58 616,-81.58 491,-81.58"/>
<text text-anchor="start" x="494" y="-88.38" font-family="Times,serif" font-weight="bold" font-size="14.00"> asset_name </text>
<polygon fill="none" stroke="black" points="616,-81.58 616,-102.58 776,-102.58 776,-81.58 616,-81.58"/>
<text text-anchor="start" x="619" y="-88.38" font-family="Times,serif" font-size="14.00" fill="#535353"> bytea NOT NULL </text>
</g>
<!-- [&#39;public.&#39;, &#39;AssetMint&#39;]&#45;&gt;[&#39;public.&#39;, &#39;NativeAsset&#39;] -->
<g id="edge3" class="edge">
<title>[&#39;public.&#39;, &#39;AssetMint&#39;]:asset_id_right&#45;&gt;[&#39;public.&#39;, &#39;NativeAsset&#39;]:id</title>
<path fill="none" stroke="black" d="M316,-42.58C399.89,-42.58 402.45,-127.19 479.67,-134.13"/>
<polygon fill="black" stroke="black" points="479.86,-137.64 490,-134.58 480.16,-130.65 479.86,-137.64"/>
</g>
<!-- [&#39;public.&#39;, &#39;Transaction&#39;] -->
<g id="node8" class="node">
<title>[&#39;public.&#39;, &#39;Transaction&#39;]</title>
<polygon fill="#b2dfee" stroke="transparent" points="936.5,-346.58 936.5,-374.58 1221.5,-374.58 1221.5,-346.58 936.5,-346.58"/>
<polygon fill="none" stroke="black" points="936.5,-346.58 936.5,-374.58 1221.5,-374.58 1221.5,-346.58 936.5,-346.58"/>
<text text-anchor="start" x="939.5" y="-355.58" font-family="Times,serif" font-weight="bold" font-size="20.00"> [&#39;public.&#39;, &#39;Transaction&#39;] </text>
<polygon fill="#f5f5f5" stroke="transparent" points="936.5,-325.58 936.5,-346.58 1041.5,-346.58 1041.5,-325.58 936.5,-325.58"/>
<polygon fill="none" stroke="black" points="936.5,-325.58 936.5,-346.58 1041.5,-346.58 1041.5,-325.58 936.5,-325.58"/>
<text text-anchor="start" x="939.5" y="-332.38" font-family="Times,serif" font-weight="bold" font-size="14.00"> id </text>
<polygon fill="none" stroke="black" points="1041.5,-325.58 1041.5,-346.58 1221.5,-346.58 1221.5,-325.58 1041.5,-325.58"/>
<text text-anchor="start" x="1044.5" y="-332.38" font-family="Times,serif" font-size="14.00" fill="#535353"> bigint NOT NULL </text>
<polygon fill="#f5f5f5" stroke="transparent" points="936.5,-304.58 936.5,-325.58 1041.5,-325.58 1041.5,-304.58 936.5,-304.58"/>
<polygon fill="none" stroke="black" points="936.5,-304.58 936.5,-325.58 1041.5,-325.58 1041.5,-304.58 936.5,-304.58"/>
<text text-anchor="start" x="939.5" y="-311.38" font-family="Times,serif" font-weight="bold" font-size="14.00"> hash </text>
<polygon fill="none" stroke="black" points="1041.5,-304.58 1041.5,-325.58 1221.5,-325.58 1221.5,-304.58 1041.5,-304.58"/>
<text text-anchor="start" x="1044.5" y="-311.38" font-family="Times,serif" font-size="14.00" fill="#535353"> bytea NOT NULL </text>
<polygon fill="#f5f5f5" stroke="transparent" points="936.5,-283.58 936.5,-304.58 1041.5,-304.58 1041.5,-283.58 936.5,-283.58"/>
<polygon fill="none" stroke="black" points="936.5,-283.58 936.5,-304.58 1041.5,-304.58 1041.5,-283.58 936.5,-283.58"/>
<text text-anchor="start" x="939.5" y="-290.38" font-family="Times,serif" font-weight="bold" font-size="14.00"> block_id </text>
<polygon fill="none" stroke="black" points="1041.5,-283.58 1041.5,-304.58 1221.5,-304.58 1221.5,-283.58 1041.5,-283.58"/>
<text text-anchor="start" x="1044.5" y="-290.38" font-family="Times,serif" font-size="14.00" fill="#535353"> integer NOT NULL </text>
<polygon fill="#f5f5f5" stroke="transparent" points="936.5,-262.58 936.5,-283.58 1041.5,-283.58 1041.5,-262.58 936.5,-262.58"/>
<polygon fill="none" stroke="black" points="936.5,-262.58 936.5,-283.58 1041.5,-283.58 1041.5,-262.58 936.5,-262.58"/>
<text text-anchor="start" x="939.5" y="-269.38" font-family="Times,serif" font-weight="bold" font-size="14.00"> tx_index </text>
<polygon fill="none" stroke="black" points="1041.5,-262.58 1041.5,-283.58 1221.5,-283.58 1221.5,-262.58 1041.5,-262.58"/>
<text text-anchor="start" x="1044.5" y="-269.38" font-family="Times,serif" font-size="14.00" fill="#535353"> integer NOT NULL </text>
<polygon fill="#f5f5f5" stroke="transparent" points="936.5,-241.58 936.5,-262.58 1041.5,-262.58 1041.5,-241.58 936.5,-241.58"/>
<polygon fill="none" stroke="black" points="936.5,-241.58 936.5,-262.58 1041.5,-262.58 1041.5,-241.58 936.5,-241.58"/>
<text text-anchor="start" x="939.5" y="-248.38" font-family="Times,serif" font-weight="bold" font-size="14.00"> payload </text>
<polygon fill="none" stroke="black" points="1041.5,-241.58 1041.5,-262.58 1221.5,-262.58 1221.5,-241.58 1041.5,-241.58"/>
<text text-anchor="start" x="1044.5" y="-248.38" font-family="Times,serif" font-size="14.00" fill="#535353"> bytea NOT NULL </text>
<polygon fill="#f5f5f5" stroke="transparent" points="936.5,-220.58 936.5,-241.58 1041.5,-241.58 1041.5,-220.58 936.5,-220.58"/>
<polygon fill="none" stroke="black" points="936.5,-220.58 936.5,-241.58 1041.5,-241.58 1041.5,-220.58 936.5,-220.58"/>
<text text-anchor="start" x="939.5" y="-227.38" font-family="Times,serif" font-weight="bold" font-size="14.00"> is_valid </text>
<polygon fill="none" stroke="black" points="1041.5,-220.58 1041.5,-241.58 1221.5,-241.58 1221.5,-220.58 1041.5,-220.58"/>
<text text-anchor="start" x="1044.5" y="-227.38" font-family="Times,serif" font-size="14.00" fill="#535353"> boolean NOT NULL </text>
</g>
<!-- [&#39;public.&#39;, &#39;AssetMint&#39;]&#45;&gt;[&#39;public.&#39;, &#39;Transaction&#39;] -->
<g id="edge4" class="edge">
<title>[&#39;public.&#39;, &#39;AssetMint&#39;]:tx_id_right&#45;&gt;[&#39;public.&#39;, &#39;Transaction&#39;]:id</title>
<path fill="none" stroke="black" d="M316,-64.58C561.34,-64.58 675.04,82.93 868,-68.58 961.78,-142.22 821.36,-325.42 925.4,-336.09"/>
<polygon fill="black" stroke="black" points="925.34,-339.6 935.5,-336.58 925.68,-332.6 925.34,-339.6"/>
</g>
<!-- [&#39;public.&#39;, &#39;Block&#39;] -->
<g id="node4" class="node">
<title>[&#39;public.&#39;, &#39;Block&#39;]</title>
<polygon fill="#b2dfee" stroke="transparent" points="1297,-359.58 1297,-387.58 1515,-387.58 1515,-359.58 1297,-359.58"/>
<polygon fill="none" stroke="black" points="1297,-359.58 1297,-387.58 1515,-387.58 1515,-359.58 1297,-359.58"/>
<text text-anchor="start" x="1300.5" y="-368.58" font-family="Times,serif" font-weight="bold" font-size="20.00"> [&#39;public.&#39;, &#39;Block&#39;] </text>
<polygon fill="#f5f5f5" stroke="transparent" points="1297,-338.58 1297,-359.58 1364,-359.58 1364,-338.58 1297,-338.58"/>
<polygon fill="none" stroke="black" points="1297,-338.58 1297,-359.58 1364,-359.58 1364,-338.58 1297,-338.58"/>
<text text-anchor="start" x="1300" y="-345.38" font-family="Times,serif" font-weight="bold" font-size="14.00"> id </text>
<polygon fill="none" stroke="black" points="1364,-338.58 1364,-359.58 1515,-359.58 1515,-338.58 1364,-338.58"/>
<text text-anchor="start" x="1367" y="-345.38" font-family="Times,serif" font-size="14.00" fill="#535353"> integer NOT NULL </text>
<polygon fill="#f5f5f5" stroke="transparent" points="1297,-317.58 1297,-338.58 1364,-338.58 1364,-317.58 1297,-317.58"/>
<polygon fill="none" stroke="black" points="1297,-317.58 1297,-338.58 1364,-338.58 1364,-317.58 1297,-317.58"/>
<text text-anchor="start" x="1300" y="-324.38" font-family="Times,serif" font-weight="bold" font-size="14.00"> era </text>
<polygon fill="none" stroke="black" points="1364,-317.58 1364,-338.58 1515,-338.58 1515,-317.58 1364,-317.58"/>
<text text-anchor="start" x="1367" y="-324.38" font-family="Times,serif" font-size="14.00" fill="#535353"> integer NOT NULL </text>
<polygon fill="#f5f5f5" stroke="transparent" points="1297,-296.58 1297,-317.58 1364,-317.58 1364,-296.58 1297,-296.58"/>
<polygon fill="none" stroke="black" points="1297,-296.58 1297,-317.58 1364,-317.58 1364,-296.58 1297,-296.58"/>
<text text-anchor="start" x="1300" y="-303.38" font-family="Times,serif" font-weight="bold" font-size="14.00"> hash </text>
<polygon fill="none" stroke="black" points="1364,-296.58 1364,-317.58 1515,-317.58 1515,-296.58 1364,-296.58"/>
<text text-anchor="start" x="1367" y="-303.38" font-family="Times,serif" font-size="14.00" fill="#535353"> bytea NOT NULL </text>
<polygon fill="#f5f5f5" stroke="transparent" points="1297,-275.58 1297,-296.58 1364,-296.58 1364,-275.58 1297,-275.58"/>
<polygon fill="none" stroke="black" points="1297,-275.58 1297,-296.58 1364,-296.58 1364,-275.58 1297,-275.58"/>
<text text-anchor="start" x="1300" y="-282.38" font-family="Times,serif" font-weight="bold" font-size="14.00"> height </text>
<polygon fill="none" stroke="black" points="1364,-275.58 1364,-296.58 1515,-296.58 1515,-275.58 1364,-275.58"/>
<text text-anchor="start" x="1367" y="-282.38" font-family="Times,serif" font-size="14.00" fill="#535353"> integer NOT NULL </text>
<polygon fill="#f5f5f5" stroke="transparent" points="1297,-254.58 1297,-275.58 1364,-275.58 1364,-254.58 1297,-254.58"/>
<polygon fill="none" stroke="black" points="1297,-254.58 1297,-275.58 1364,-275.58 1364,-254.58 1297,-254.58"/>
<text text-anchor="start" x="1300" y="-261.38" font-family="Times,serif" font-weight="bold" font-size="14.00"> epoch </text>
<polygon fill="none" stroke="black" points="1364,-254.58 1364,-275.58 1515,-275.58 1515,-254.58 1364,-254.58"/>
<text text-anchor="start" x="1367" y="-261.38" font-family="Times,serif" font-size="14.00" fill="#535353"> integer NOT NULL </text>
<polygon fill="#f5f5f5" stroke="transparent" points="1297,-233.58 1297,-254.58 1364,-254.58 1364,-233.58 1297,-233.58"/>
<polygon fill="none" stroke="black" points="1297,-233.58 1297,-254.58 1364,-254.58 1364,-233.58 1297,-233.58"/>
<text text-anchor="start" x="1300" y="-240.38" font-family="Times,serif" font-weight="bold" font-size="14.00"> slot </text>
<polygon fill="none" stroke="black" points="1364,-233.58 1364,-254.58 1515,-254.58 1515,-233.58 1364,-233.58"/>
<text text-anchor="start" x="1367" y="-240.38" font-family="Times,serif" font-size="14.00" fill="#535353"> integer NOT NULL </text>
</g>
<!-- [&#39;public.&#39;, &#39;Cip25Entry&#39;] -->
<g id="node5" class="node">
<title>[&#39;public.&#39;, &#39;Cip25Entry&#39;]</title>
<polygon fill="#b2dfee" stroke="transparent" points="41,-266.58 41,-294.58 321,-294.58 321,-266.58 41,-266.58"/>
<polygon fill="none" stroke="black" points="41,-266.58 41,-294.58 321,-294.58 321,-266.58 41,-266.58"/>
<text text-anchor="start" x="44" y="-275.58" font-family="Times,serif" font-weight="bold" font-size="20.00"> [&#39;public.&#39;, &#39;Cip25Entry&#39;] </text>
<polygon fill="#f5f5f5" stroke="transparent" points="41,-245.58 41,-266.58 166,-266.58 166,-245.58 41,-245.58"/>
<polygon fill="none" stroke="black" points="41,-245.58 41,-266.58 166,-266.58 166,-245.58 41,-245.58"/>
<text text-anchor="start" x="44" y="-252.38" font-family="Times,serif" font-weight="bold" font-size="14.00"> id </text>
<polygon fill="none" stroke="black" points="166,-245.58 166,-266.58 321,-266.58 321,-245.58 166,-245.58"/>
<text text-anchor="start" x="169" y="-252.38" font-family="Times,serif" font-size="14.00" fill="#535353"> bigint NOT NULL </text>
<polygon fill="#f5f5f5" stroke="transparent" points="41,-224.58 41,-245.58 166,-245.58 166,-224.58 41,-224.58"/>
<polygon fill="none" stroke="black" points="41,-224.58 41,-245.58 166,-245.58 166,-224.58 41,-224.58"/>
<text text-anchor="start" x="44" y="-231.38" font-family="Times,serif" font-weight="bold" font-size="14.00"> metadata_id </text>
<polygon fill="none" stroke="black" points="166,-224.58 166,-245.58 321,-245.58 321,-224.58 166,-224.58"/>
<text text-anchor="start" x="169" y="-231.38" font-family="Times,serif" font-size="14.00" fill="#535353"> bigint NOT NULL </text>
<polygon fill="#f5f5f5" stroke="transparent" points="41,-203.58 41,-224.58 166,-224.58 166,-203.58 41,-203.58"/>
<polygon fill="none" stroke="black" points="41,-203.58 41,-224.58 166,-224.58 166,-203.58 41,-203.58"/>
<text text-anchor="start" x="44" y="-210.38" font-family="Times,serif" font-weight="bold" font-size="14.00"> asset_id </text>
<polygon fill="none" stroke="black" points="166,-203.58 166,-224.58 321,-224.58 321,-203.58 166,-203.58"/>
<text text-anchor="start" x="169" y="-210.38" font-family="Times,serif" font-size="14.00" fill="#535353"> bigint NOT NULL </text>
<polygon fill="#f5f5f5" stroke="transparent" points="41,-182.58 41,-203.58 166,-203.58 166,-182.58 41,-182.58"/>
<polygon fill="none" stroke="black" points="41,-182.58 41,-203.58 166,-203.58 166,-182.58 41,-182.58"/>
<text text-anchor="start" x="44" y="-189.38" font-family="Times,serif" font-weight="bold" font-size="14.00"> payload </text>
<polygon fill="none" stroke="black" points="166,-182.58 166,-203.58 321,-203.58 321,-182.58 166,-182.58"/>
<text text-anchor="start" x="169" y="-189.38" font-family="Times,serif" font-size="14.00" fill="#535353"> bytea NOT NULL </text>
</g>
<!-- [&#39;public.&#39;, &#39;Cip25Entry&#39;]&#45;&gt;[&#39;public.&#39;, &#39;NativeAsset&#39;] -->
<g id="edge5" class="edge">
<title>[&#39;public.&#39;, &#39;Cip25Entry&#39;]:asset_id_right&#45;&gt;[&#39;public.&#39;, &#39;NativeAsset&#39;]:id</title>
<path fill="none" stroke="black" d="M322,-213.58C400.96,-213.58 407.09,-141.22 479.79,-135.01"/>
<polygon fill="black" stroke="black" points="480.15,-138.49 490,-134.58 479.86,-131.5 480.15,-138.49"/>
</g>
<!-- [&#39;public.&#39;, &#39;TransactionMetadata&#39;] -->
<g id="node10" class="node">
<title>[&#39;public.&#39;, &#39;TransactionMetadata&#39;]</title>
<polygon fill="#b2dfee" stroke="transparent" points="438,-283.58 438,-311.58 829,-311.58 829,-283.58 438,-283.58"/>
<polygon fill="none" stroke="black" points="438,-283.58 438,-311.58 829,-311.58 829,-283.58 438,-283.58"/>
<text text-anchor="start" x="441" y="-292.58" font-family="Times,serif" font-weight="bold" font-size="20.00"> [&#39;public.&#39;, &#39;TransactionMetadata&#39;] </text>
<polygon fill="#f5f5f5" stroke="transparent" points="438,-262.58 438,-283.58 601,-283.58 601,-262.58 438,-262.58"/>
<polygon fill="none" stroke="black" points="438,-262.58 438,-283.58 601,-283.58 601,-262.58 438,-262.58"/>
<text text-anchor="start" x="441" y="-269.38" font-family="Times,serif" font-weight="bold" font-size="14.00"> id </text>
<polygon fill="none" stroke="black" points="601,-262.58 601,-283.58 829,-283.58 829,-262.58 601,-262.58"/>
<text text-anchor="start" x="604" y="-269.38" font-family="Times,serif" font-size="14.00" fill="#535353"> bigint NOT NULL </text>
<polygon fill="#f5f5f5" stroke="transparent" points="438,-241.58 438,-262.58 601,-262.58 601,-241.58 438,-241.58"/>
<polygon fill="none" stroke="black" points="438,-241.58 438,-262.58 601,-262.58 601,-241.58 438,-241.58"/>
<text text-anchor="start" x="441" y="-248.38" font-family="Times,serif" font-weight="bold" font-size="14.00"> tx_id </text>
<polygon fill="none" stroke="black" points="601,-241.58 601,-262.58 829,-262.58 829,-241.58 601,-241.58"/>
<text text-anchor="start" x="604" y="-248.38" font-family="Times,serif" font-size="14.00" fill="#535353"> bigint NOT NULL </text>
<polygon fill="#f5f5f5" stroke="transparent" points="438,-220.58 438,-241.58 601,-241.58 601,-220.58 438,-220.58"/>
<polygon fill="none" stroke="black" points="438,-220.58 438,-241.58 601,-241.58 601,-220.58 438,-220.58"/>
<text text-anchor="start" x="441" y="-227.38" font-family="Times,serif" font-weight="bold" font-size="14.00"> label </text>
<polygon fill="none" stroke="black" points="601,-220.58 601,-241.58 829,-241.58 829,-220.58 601,-220.58"/>
<text text-anchor="start" x="604" y="-227.38" font-family="Times,serif" font-size="14.00" fill="#535353"> bytea NOT NULL </text>
<polygon fill="#f5f5f5" stroke="transparent" points="438,-199.58 438,-220.58 601,-220.58 601,-199.58 438,-199.58"/>
<polygon fill="none" stroke="black" points="438,-199.58 438,-220.58 601,-220.58 601,-199.58 438,-199.58"/>
<text text-anchor="start" x="441" y="-206.38" font-family="Times,serif" font-weight="bold" font-size="14.00"> payload </text>
<polygon fill="none" stroke="black" points="601,-199.58 601,-220.58 829,-220.58 829,-199.58 601,-199.58"/>
<text text-anchor="start" x="604" y="-206.38" font-family="Times,serif" font-size="14.00" fill="#535353"> bytea NOT NULL </text>
</g>
<!-- [&#39;public.&#39;, &#39;Cip25Entry&#39;]&#45;&gt;[&#39;public.&#39;, &#39;TransactionMetadata&#39;] -->
<g id="edge6" class="edge">
<title>[&#39;public.&#39;, &#39;Cip25Entry&#39;]:metadata_id_right&#45;&gt;[&#39;public.&#39;, &#39;TransactionMetadata&#39;]:id</title>
<path fill="none" stroke="black" d="M322,-234.58C372.39,-234.58 381.89,-268.57 426.84,-273.09"/>
<polygon fill="black" stroke="black" points="426.84,-276.59 437,-273.58 427.18,-269.6 426.84,-276.59"/>
</g>
<!-- [&#39;public.&#39;, &#39;Transaction&#39;]&#45;&gt;[&#39;public.&#39;, &#39;Block&#39;] -->
<g id="edge8" class="edge">
<title>[&#39;public.&#39;, &#39;Transaction&#39;]:block_id_right&#45;&gt;[&#39;public.&#39;, &#39;Block&#39;]:id</title>
<path fill="none" stroke="black" d="M1222.5,-293.58C1259.88,-293.58 1256.08,-339.97 1286.06,-348.31"/>
<polygon fill="black" stroke="black" points="1285.64,-351.78 1296,-349.58 1286.53,-344.84 1285.64,-351.78"/>
</g>
<!-- [&#39;public.&#39;, &#39;TransactionInput&#39;] -->
<g id="node9" class="node">
<title>[&#39;public.&#39;, &#39;TransactionInput&#39;]</title>
<polygon fill="#b2dfee" stroke="transparent" points="8,-434.58 8,-462.58 354,-462.58 354,-434.58 8,-434.58"/>
<polygon fill="none" stroke="black" points="8,-434.58 8,-462.58 354,-462.58 354,-434.58 8,-434.58"/>
<text text-anchor="start" x="11" y="-443.58" font-family="Times,serif" font-weight="bold" font-size="20.00"> [&#39;public.&#39;, &#39;TransactionInput&#39;] </text>
<polygon fill="#f5f5f5" stroke="transparent" points="8,-413.58 8,-434.58 159,-434.58 159,-413.58 8,-413.58"/>
<polygon fill="none" stroke="black" points="8,-413.58 8,-434.58 159,-434.58 159,-413.58 8,-413.58"/>
<text text-anchor="start" x="11" y="-420.38" font-family="Times,serif" font-weight="bold" font-size="14.00"> id </text>
<polygon fill="none" stroke="black" points="159,-413.58 159,-434.58 354,-434.58 354,-413.58 159,-413.58"/>
<text text-anchor="start" x="162" y="-420.38" font-family="Times,serif" font-size="14.00" fill="#535353"> bigint NOT NULL </text>
<polygon fill="#f5f5f5" stroke="transparent" points="8,-392.58 8,-413.58 159,-413.58 159,-392.58 8,-392.58"/>
<polygon fill="none" stroke="black" points="8,-392.58 8,-413.58 159,-413.58 159,-392.58 8,-392.58"/>
<text text-anchor="start" x="11" y="-399.38" font-family="Times,serif" font-weight="bold" font-size="14.00"> utxo_id </text>
<polygon fill="none" stroke="black" points="159,-392.58 159,-413.58 354,-413.58 354,-392.58 159,-392.58"/>
<text text-anchor="start" x="162" y="-399.38" font-family="Times,serif" font-size="14.00" fill="#535353"> bigint NOT NULL </text>
<polygon fill="#f5f5f5" stroke="transparent" points="8,-371.58 8,-392.58 159,-392.58 159,-371.58 8,-371.58"/>
<polygon fill="none" stroke="black" points="8,-371.58 8,-392.58 159,-392.58 159,-371.58 8,-371.58"/>
<text text-anchor="start" x="11" y="-378.38" font-family="Times,serif" font-weight="bold" font-size="14.00"> tx_id </text>
<polygon fill="none" stroke="black" points="159,-371.58 159,-392.58 354,-392.58 354,-371.58 159,-371.58"/>
<text text-anchor="start" x="162" y="-378.38" font-family="Times,serif" font-size="14.00" fill="#535353"> bigint NOT NULL </text>
<polygon fill="#f5f5f5" stroke="transparent" points="8,-350.58 8,-371.58 159,-371.58 159,-350.58 8,-350.58"/>
<polygon fill="none" stroke="black" points="8,-350.58 8,-371.58 159,-371.58 159,-350.58 8,-350.58"/>
<text text-anchor="start" x="11" y="-357.38" font-family="Times,serif" font-weight="bold" font-size="14.00"> input_index </text>
<polygon fill="none" stroke="black" points="159,-350.58 159,-371.58 354,-371.58 354,-350.58 159,-350.58"/>
<text text-anchor="start" x="162" y="-357.38" font-family="Times,serif" font-size="14.00" fill="#535353"> integer NOT NULL </text>
</g>
<!-- [&#39;public.&#39;, &#39;TransactionInput&#39;]&#45;&gt;[&#39;public.&#39;, &#39;Transaction&#39;] -->
<g id="edge9" class="edge">
<title>[&#39;public.&#39;, &#39;TransactionInput&#39;]:tx_id_right&#45;&gt;[&#39;public.&#39;, &#39;Transaction&#39;]:id</title>
<path fill="none" stroke="black" d="M355,-381.58C375.89,-381.58 377.67,-367.39 398,-362.58 627.45,-308.32 694.44,-335.78 925.44,-336.56"/>
<polygon fill="black" stroke="black" points="925.49,-340.06 935.5,-336.58 925.51,-333.06 925.49,-340.06"/>
</g>
<!-- [&#39;public.&#39;, &#39;TransactionOutput&#39;] -->
<g id="node11" class="node">
<title>[&#39;public.&#39;, &#39;TransactionOutput&#39;]</title>
<polygon fill="#b2dfee" stroke="transparent" points="452,-618.58 452,-646.58 815,-646.58 815,-618.58 452,-618.58"/>
<polygon fill="none" stroke="black" points="452,-618.58 452,-646.58 815,-646.58 815,-618.58 452,-618.58"/>
<text text-anchor="start" x="455" y="-627.58" font-family="Times,serif" font-weight="bold" font-size="20.00"> [&#39;public.&#39;, &#39;TransactionOutput&#39;] </text>
<polygon fill="#f5f5f5" stroke="transparent" points="452,-597.58 452,-618.58 617,-618.58 617,-597.58 452,-597.58"/>
<polygon fill="none" stroke="black" points="452,-597.58 452,-618.58 617,-618.58 617,-597.58 452,-597.58"/>
<text text-anchor="start" x="455" y="-604.38" font-family="Times,serif" font-weight="bold" font-size="14.00"> id </text>
<polygon fill="none" stroke="black" points="617,-597.58 617,-618.58 815,-618.58 815,-597.58 617,-597.58"/>
<text text-anchor="start" x="620" y="-604.38" font-family="Times,serif" font-size="14.00" fill="#535353"> bigint NOT NULL </text>
<polygon fill="#f5f5f5" stroke="transparent" points="452,-576.58 452,-597.58 617,-597.58 617,-576.58 452,-576.58"/>
<polygon fill="none" stroke="black" points="452,-576.58 452,-597.58 617,-597.58 617,-576.58 452,-576.58"/>
<text text-anchor="start" x="455" y="-583.38" font-family="Times,serif" font-weight="bold" font-size="14.00"> payload </text>
<polygon fill="none" stroke="black" points="617,-576.58 617,-597.58 815,-597.58 815,-576.58 617,-576.58"/>
<text text-anchor="start" x="620" y="-583.38" font-family="Times,serif" font-size="14.00" fill="#535353"> bytea NOT NULL </text>
<polygon fill="#f5f5f5" stroke="transparent" points="452,-555.58 452,-576.58 617,-576.58 617,-555.58 452,-555.58"/>
<polygon fill="none" stroke="black" points="452,-555.58 452,-576.58 617,-576.58 617,-555.58 452,-555.58"/>
<text text-anchor="start" x="455" y="-562.38" font-family="Times,serif" font-weight="bold" font-size="14.00"> address_id </text>
<polygon fill="none" stroke="black" points="617,-555.58 617,-576.58 815,-576.58 815,-555.58 617,-555.58"/>
<text text-anchor="start" x="620" y="-562.38" font-family="Times,serif" font-size="14.00" fill="#535353"> bigint NOT NULL </text>
<polygon fill="#f5f5f5" stroke="transparent" points="452,-534.58 452,-555.58 617,-555.58 617,-534.58 452,-534.58"/>
<polygon fill="none" stroke="black" points="452,-534.58 452,-555.58 617,-555.58 617,-534.58 452,-534.58"/>
<text text-anchor="start" x="455" y="-541.38" font-family="Times,serif" font-weight="bold" font-size="14.00"> tx_id </text>
<polygon fill="none" stroke="black" points="617,-534.58 617,-555.58 815,-555.58 815,-534.58 617,-534.58"/>
<text text-anchor="start" x="620" y="-541.38" font-family="Times,serif" font-size="14.00" fill="#535353"> bigint NOT NULL </text>
<polygon fill="#f5f5f5" stroke="transparent" points="452,-513.58 452,-534.58 617,-534.58 617,-513.58 452,-513.58"/>
<polygon fill="none" stroke="black" points="452,-513.58 452,-534.58 617,-534.58 617,-513.58 452,-513.58"/>
<text text-anchor="start" x="455" y="-520.38" font-family="Times,serif" font-weight="bold" font-size="14.00"> output_index </text>
<polygon fill="none" stroke="black" points="617,-513.58 617,-534.58 815,-534.58 815,-513.58 617,-513.58"/>
<text text-anchor="start" x="620" y="-520.38" font-family="Times,serif" font-size="14.00" fill="#535353"> integer NOT NULL </text>
</g>
<!-- [&#39;public.&#39;, &#39;TransactionInput&#39;]&#45;&gt;[&#39;public.&#39;, &#39;TransactionOutput&#39;] -->
<g id="edge10" class="edge">
<title>[&#39;public.&#39;, &#39;TransactionInput&#39;]:utxo_id_right&#45;&gt;[&#39;public.&#39;, &#39;TransactionOutput&#39;]:id</title>
<path fill="none" stroke="black" d="M355,-402.58C402.56,-402.58 377.96,-457.44 398,-500.58 418.94,-545.66 400.54,-600.27 440.81,-607.72"/>
<polygon fill="black" stroke="black" points="440.74,-611.23 451,-608.58 441.33,-604.25 440.74,-611.23"/>
</g>
<!-- [&#39;public.&#39;, &#39;TransactionMetadata&#39;]&#45;&gt;[&#39;public.&#39;, &#39;Transaction&#39;] -->
<g id="edge7" class="edge">
<title>[&#39;public.&#39;, &#39;TransactionMetadata&#39;]:tx_id_right&#45;&gt;[&#39;public.&#39;, &#39;Transaction&#39;]:id</title>
<path fill="none" stroke="black" d="M830,-251.58C886.57,-251.58 876.82,-326.6 925.36,-335.68"/>
<polygon fill="black" stroke="black" points="925.23,-339.19 935.5,-336.58 925.85,-332.21 925.23,-339.19"/>
</g>
<!-- [&#39;public.&#39;, &#39;TransactionOutput&#39;]&#45;&gt;[&#39;public.&#39;, &#39;Address&#39;] -->
<g id="edge11" class="edge">
<title>[&#39;public.&#39;, &#39;TransactionOutput&#39;]:address_id_right&#45;&gt;[&#39;public.&#39;, &#39;Address&#39;]:id</title>
<path fill="none" stroke="black" d="M816,-565.58C883.84,-565.58 884.18,-637.66 945.17,-644.98"/>
<polygon fill="black" stroke="black" points="945.31,-648.5 955.5,-645.58 945.72,-641.51 945.31,-648.5"/>
</g>
<!-- [&#39;public.&#39;, &#39;TransactionOutput&#39;]&#45;&gt;[&#39;public.&#39;, &#39;Transaction&#39;] -->
<g id="edge12" class="edge">
<title>[&#39;public.&#39;, &#39;TransactionOutput&#39;]:tx_id_right&#45;&gt;[&#39;public.&#39;, &#39;Transaction&#39;]:id</title>
<path fill="none" stroke="black" d="M816,-544.58C918.97,-544.58 835.06,-350.56 925.25,-337.29"/>
<polygon fill="black" stroke="black" points="925.77,-340.77 935.5,-336.58 925.28,-333.78 925.77,-340.77"/>
</g>
<!-- [&#39;public.&#39;, &#39;TxCredentialRelation&#39;] -->
<g id="node12" class="node">
<title>[&#39;public.&#39;, &#39;TxCredentialRelation&#39;]</title>
<polygon fill="#b2dfee" stroke="transparent" points="438,-459.58 438,-487.58 829,-487.58 829,-459.58 438,-459.58"/>
<polygon fill="none" stroke="black" points="438,-459.58 438,-487.58 829,-487.58 829,-459.58 438,-459.58"/>
<text text-anchor="start" x="441" y="-468.58" font-family="Times,serif" font-weight="bold" font-size="20.00"> [&#39;public.&#39;, &#39;TxCredentialRelation&#39;] </text>
<polygon fill="#f5f5f5" stroke="transparent" points="438,-438.58 438,-459.58 617,-459.58 617,-438.58 438,-438.58"/>
<polygon fill="none" stroke="black" points="438,-438.58 438,-459.58 617,-459.58 617,-438.58 438,-438.58"/>
<text text-anchor="start" x="441" y="-445.38" font-family="Times,serif" font-weight="bold" font-size="14.00"> credential_id </text>
<polygon fill="none" stroke="black" points="617,-438.58 617,-459.58 829,-459.58 829,-438.58 617,-438.58"/>
<text text-anchor="start" x="620" y="-445.38" font-family="Times,serif" font-size="14.00" fill="#535353"> bigint NOT NULL </text>
<polygon fill="#f5f5f5" stroke="transparent" points="438,-417.58 438,-438.58 617,-438.58 617,-417.58 438,-417.58"/>
<polygon fill="none" stroke="black" points="438,-417.58 438,-438.58 617,-438.58 617,-417.58 438,-417.58"/>
<text text-anchor="start" x="441" y="-424.38" font-family="Times,serif" font-weight="bold" font-size="14.00"> tx_id </text>
<polygon fill="none" stroke="black" points="617,-417.58 617,-438.58 829,-438.58 829,-417.58 617,-417.58"/>
<text text-anchor="start" x="620" y="-424.38" font-family="Times,serif" font-size="14.00" fill="#535353"> bigint NOT NULL </text>
<polygon fill="#f5f5f5" stroke="transparent" points="438,-396.58 438,-417.58 617,-417.58 617,-396.58 438,-396.58"/>
<polygon fill="none" stroke="black" points="438,-396.58 438,-417.58 617,-417.58 617,-396.58 438,-396.58"/>
<text text-anchor="start" x="441" y="-403.38" font-family="Times,serif" font-weight="bold" font-size="14.00"> block_id </text>
<polygon fill="none" stroke="black" points="617,-396.58 617,-417.58 829,-417.58 829,-396.58 617,-396.58"/>
<text text-anchor="start" x="620" y="-403.38" font-family="Times,serif" font-size="14.00" fill="#535353"> integer NOT NULL </text>
<polygon fill="#f5f5f5" stroke="transparent" points="438,-375.58 438,-396.58 617,-396.58 617,-375.58 438,-375.58"/>
<polygon fill="none" stroke="black" points="438,-375.58 438,-396.58 617,-396.58 617,-375.58 438,-375.58"/>
<text text-anchor="start" x="441" y="-382.38" font-family="Times,serif" font-weight="bold" font-size="14.00"> relation </text>
<polygon fill="none" stroke="black" points="617,-375.58 617,-396.58 829,-396.58 829,-375.58 617,-375.58"/>
<text text-anchor="start" x="620" y="-382.38" font-family="Times,serif" font-size="14.00" fill="#535353"> integer NOT NULL </text>
</g>
<!-- [&#39;public.&#39;, &#39;TxCredentialRelation&#39;]&#45;&gt;[&#39;public.&#39;, &#39;Block&#39;] -->
<g id="edge13" class="edge">
<title>[&#39;public.&#39;, &#39;TxCredentialRelation&#39;]:block_id_right&#45;&gt;[&#39;public.&#39;, &#39;Block&#39;]:id</title>
<path fill="none" stroke="black" d="M830,-406.58C1018.19,-406.58 1078.54,-458.14 1253,-387.58 1272.95,-379.51 1271.69,-358.01 1286.13,-351.48"/>
<polygon fill="black" stroke="black" points="1286.84,-354.91 1296,-349.58 1285.52,-348.04 1286.84,-354.91"/>
</g>
<!-- [&#39;public.&#39;, &#39;TxCredentialRelation&#39;]&#45;&gt;[&#39;public.&#39;, &#39;StakeCredential&#39;] -->
<g id="edge14" class="edge">
<title>[&#39;public.&#39;, &#39;TxCredentialRelation&#39;]:credential_id_right&#45;&gt;[&#39;public.&#39;, &#39;StakeCredential&#39;]:id</title>
<path fill="none" stroke="black" d="M830,-449.58C883.64,-449.58 858.06,-537.11 901.49,-548.39"/>
<polygon fill="black" stroke="black" points="901.16,-551.87 911.5,-549.58 901.98,-544.92 901.16,-551.87"/>
</g>
<!-- [&#39;public.&#39;, &#39;TxCredentialRelation&#39;]&#45;&gt;[&#39;public.&#39;, &#39;Transaction&#39;] -->
<g id="edge15" class="edge">
<title>[&#39;public.&#39;, &#39;TxCredentialRelation&#39;]:tx_id_right&#45;&gt;[&#39;public.&#39;, &#39;Transaction&#39;]:id</title>
<path fill="none" stroke="black" d="M830,-427.58C888.29,-427.58 875.45,-346.93 925.41,-337.48"/>
<polygon fill="black" stroke="black" points="925.85,-340.96 935.5,-336.58 925.23,-333.98 925.85,-340.96"/>
</g>
<!-- [&#39;public.seaql_migrations&#39;] -->
<g id="node13" class="node">
<title>[&#39;public.seaql_migrations&#39;]</title>
<polygon fill="#b2dfee" stroke="transparent" points="20,-530.58 20,-558.58 342,-558.58 342,-530.58 20,-530.58"/>
<polygon fill="none" stroke="black" points="20,-530.58 20,-558.58 342,-558.58 342,-530.58 20,-530.58"/>
<text text-anchor="start" x="25" y="-539.58" font-family="Times,serif" font-weight="bold" font-size="20.00"> [&#39;public.seaql_migrations&#39;] </text>
<polygon fill="#f5f5f5" stroke="transparent" points="20,-509.58 20,-530.58 116,-530.58 116,-509.58 20,-509.58"/>
<polygon fill="none" stroke="black" points="20,-509.58 20,-530.58 116,-530.58 116,-509.58 20,-509.58"/>
<text text-anchor="start" x="23" y="-516.38" font-family="Times,serif" font-weight="bold" font-size="14.00"> version </text>
<polygon fill="none" stroke="black" points="116,-509.58 116,-530.58 342,-530.58 342,-509.58 116,-509.58"/>
<text text-anchor="start" x="119" y="-516.38" font-family="Times,serif" font-size="14.00" fill="#535353"> character varying NOT NULL </text>
<polygon fill="#f5f5f5" stroke="transparent" points="20,-488.58 20,-509.58 116,-509.58 116,-488.58 20,-488.58"/>
<polygon fill="none" stroke="black" points="20,-488.58 20,-509.58 116,-509.58 116,-488.58 20,-488.58"/>
<text text-anchor="start" x="23" y="-495.38" font-family="Times,serif" font-weight="bold" font-size="14.00"> applied_at </text>
<polygon fill="none" stroke="black" points="116,-488.58 116,-509.58 342,-509.58 342,-488.58 116,-488.58"/>
<text text-anchor="start" x="119" y="-495.38" font-family="Times,serif" font-size="14.00" fill="#535353"> bigint NOT NULL </text>
</g>
</g>
</svg>
