<?xml version="1.0" encoding="UTF-8" standalone="no"?>
<!DOCTYPE svg PUBLIC "-//W3C//DTD SVG 1.1//EN"
 "http://www.w3.org/Graphics/SVG/1.1/DTD/svg11.dtd">
<!-- Generated by graphviz version 2.43.0 (0)
 -->
<!-- Title: g Pages: 1 -->
<svg width="1531pt" height="729pt"
 viewBox="0.00 0.00 1531.00 729.00" xmlns="http://www.w3.org/2000/svg" xmlns:xlink="http://www.w3.org/1999/xlink">
<g id="graph0" class="graph" transform="scale(1 1) rotate(0) translate(4 725)">
<title>g</title>
<polygon fill="white" stroke="transparent" points="-4,4 -4,-725 1527,-725 1527,4 -4,4"/>
<!-- [&#39;public.&#39;, &#39;Address&#39;] -->
<g id="node1" class="node">
<title>[&#39;public.&#39;, &#39;Address&#39;]</title>
<polygon fill="#b2dfee" stroke="transparent" points="956.5,-609.5 956.5,-637.5 1200.5,-637.5 1200.5,-609.5 956.5,-609.5"/>
<polygon fill="none" stroke="black" points="956.5,-609.5 956.5,-637.5 1200.5,-637.5 1200.5,-609.5 956.5,-609.5"/>
<text text-anchor="start" x="959.5" y="-618.5" font-family="Times,serif" font-weight="bold" font-size="20.00"> [&#39;public.&#39;, &#39;Address&#39;] </text>
<polygon fill="#f5f5f5" stroke="transparent" points="956.5,-588.5 956.5,-609.5 1045.5,-609.5 1045.5,-588.5 956.5,-588.5"/>
<polygon fill="none" stroke="black" points="956.5,-588.5 956.5,-609.5 1045.5,-609.5 1045.5,-588.5 956.5,-588.5"/>
<text text-anchor="start" x="959.5" y="-595.3" font-family="Times,serif" font-weight="bold" font-size="14.00"> id </text>
<polygon fill="none" stroke="black" points="1045.5,-588.5 1045.5,-609.5 1200.5,-609.5 1200.5,-588.5 1045.5,-588.5"/>
<text text-anchor="start" x="1048.5" y="-595.3" font-family="Times,serif" font-size="14.00" fill="#535353"> bigint NOT NULL </text>
<polygon fill="#f5f5f5" stroke="transparent" points="956.5,-567.5 956.5,-588.5 1045.5,-588.5 1045.5,-567.5 956.5,-567.5"/>
<polygon fill="none" stroke="black" points="956.5,-567.5 956.5,-588.5 1045.5,-588.5 1045.5,-567.5 956.5,-567.5"/>
<text text-anchor="start" x="959.5" y="-574.3" font-family="Times,serif" font-weight="bold" font-size="14.00"> payload </text>
<polygon fill="none" stroke="black" points="1045.5,-567.5 1045.5,-588.5 1200.5,-588.5 1200.5,-567.5 1045.5,-567.5"/>
<text text-anchor="start" x="1048.5" y="-574.3" font-family="Times,serif" font-size="14.00" fill="#535353"> bytea NOT NULL </text>
</g>
<!-- [&#39;public.&#39;, &#39;AddressCredentialRelation&#39;] -->
<g id="node2" class="node">
<title>[&#39;public.&#39;, &#39;AddressCredentialRelation&#39;]</title>
<polygon fill="#b2dfee" stroke="transparent" points="406,-688.5 406,-716.5 860,-716.5 860,-688.5 406,-688.5"/>
<polygon fill="none" stroke="black" points="406,-688.5 406,-716.5 860,-716.5 860,-688.5 406,-688.5"/>
<text text-anchor="start" x="409" y="-697.5" font-family="Times,serif" font-weight="bold" font-size="20.00"> [&#39;public.&#39;, &#39;AddressCredentialRelation&#39;] </text>
<polygon fill="#f5f5f5" stroke="transparent" points="406,-667.5 406,-688.5 616,-688.5 616,-667.5 406,-667.5"/>
<polygon fill="none" stroke="black" points="406,-667.5 406,-688.5 616,-688.5 616,-667.5 406,-667.5"/>
<text text-anchor="start" x="409" y="-674.3" font-family="Times,serif" font-weight="bold" font-size="14.00"> address_id </text>
<polygon fill="none" stroke="black" points="616,-667.5 616,-688.5 860,-688.5 860,-667.5 616,-667.5"/>
<text text-anchor="start" x="619" y="-674.3" font-family="Times,serif" font-size="14.00" fill="#535353"> bigint NOT NULL </text>
<polygon fill="#f5f5f5" stroke="transparent" points="406,-646.5 406,-667.5 616,-667.5 616,-646.5 406,-646.5"/>
<polygon fill="none" stroke="black" points="406,-646.5 406,-667.5 616,-667.5 616,-646.5 406,-646.5"/>
<text text-anchor="start" x="409" y="-653.3" font-family="Times,serif" font-weight="bold" font-size="14.00"> credential_id </text>
<polygon fill="none" stroke="black" points="616,-646.5 616,-667.5 860,-667.5 860,-646.5 616,-646.5"/>
<text text-anchor="start" x="619" y="-653.3" font-family="Times,serif" font-size="14.00" fill="#535353"> bigint NOT NULL </text>
<polygon fill="#f5f5f5" stroke="transparent" points="406,-625.5 406,-646.5 616,-646.5 616,-625.5 406,-625.5"/>
<polygon fill="none" stroke="black" points="406,-625.5 406,-646.5 616,-646.5 616,-625.5 406,-625.5"/>
<text text-anchor="start" x="409" y="-632.3" font-family="Times,serif" font-weight="bold" font-size="14.00"> relation </text>
<polygon fill="none" stroke="black" points="616,-625.5 616,-646.5 860,-646.5 860,-625.5 616,-625.5"/>
<text text-anchor="start" x="619" y="-632.3" font-family="Times,serif" font-size="14.00" fill="#535353"> integer NOT NULL </text>
</g>
<!-- [&#39;public.&#39;, &#39;AddressCredentialRelation&#39;]&#45;&gt;[&#39;public.&#39;, &#39;Address&#39;] -->
<g id="edge1" class="edge">
<title>[&#39;public.&#39;, &#39;AddressCredentialRelation&#39;]:address_id_right&#45;&gt;[&#39;public.&#39;, &#39;Address&#39;]:id</title>
<path fill="none" stroke="black" d="M861,-678.5C912.37,-678.5 902.23,-608.77 945.43,-599.51"/>
<polygon fill="black" stroke="black" points="945.9,-602.98 955.5,-598.5 945.2,-596.02 945.9,-602.98"/>
</g>
<!-- [&#39;public.&#39;, &#39;StakeCredential&#39;] -->
<g id="node7" class="node">
<title>[&#39;public.&#39;, &#39;StakeCredential&#39;]</title>
<polygon fill="#b2dfee" stroke="transparent" points="912.5,-508.5 912.5,-536.5 1245.5,-536.5 1245.5,-508.5 912.5,-508.5"/>
<polygon fill="none" stroke="black" points="912.5,-508.5 912.5,-536.5 1245.5,-536.5 1245.5,-508.5 912.5,-508.5"/>
<text text-anchor="start" x="915.5" y="-517.5" font-family="Times,serif" font-weight="bold" font-size="20.00"> [&#39;public.&#39;, &#39;StakeCredential&#39;] </text>
<polygon fill="#f5f5f5" stroke="transparent" points="912.5,-487.5 912.5,-508.5 1056.5,-508.5 1056.5,-487.5 912.5,-487.5"/>
<polygon fill="none" stroke="black" points="912.5,-487.5 912.5,-508.5 1056.5,-508.5 1056.5,-487.5 912.5,-487.5"/>
<text text-anchor="start" x="915.5" y="-494.3" font-family="Times,serif" font-weight="bold" font-size="14.00"> id </text>
<polygon fill="none" stroke="black" points="1056.5,-487.5 1056.5,-508.5 1245.5,-508.5 1245.5,-487.5 1056.5,-487.5"/>
<text text-anchor="start" x="1059.5" y="-494.3" font-family="Times,serif" font-size="14.00" fill="#535353"> bigint NOT NULL </text>
<polygon fill="#f5f5f5" stroke="transparent" points="912.5,-466.5 912.5,-487.5 1056.5,-487.5 1056.5,-466.5 912.5,-466.5"/>
<polygon fill="none" stroke="black" points="912.5,-466.5 912.5,-487.5 1056.5,-487.5 1056.5,-466.5 912.5,-466.5"/>
<text text-anchor="start" x="915.5" y="-473.3" font-family="Times,serif" font-weight="bold" font-size="14.00"> credential </text>
<polygon fill="none" stroke="black" points="1056.5,-466.5 1056.5,-487.5 1245.5,-487.5 1245.5,-466.5 1056.5,-466.5"/>
<text text-anchor="start" x="1059.5" y="-473.3" font-family="Times,serif" font-size="14.00" fill="#535353"> bytea NOT NULL </text>
</g>
<!-- [&#39;public.&#39;, &#39;AddressCredentialRelation&#39;]&#45;&gt;[&#39;public.&#39;, &#39;StakeCredential&#39;] -->
<g id="edge2" class="edge">
<title>[&#39;public.&#39;, &#39;AddressCredentialRelation&#39;]:credential_id_right&#45;&gt;[&#39;public.&#39;, &#39;StakeCredential&#39;]:id</title>
<path fill="none" stroke="black" d="M861,-656.5C931.38,-656.5 846.84,-513.24 901.49,-498.69"/>
<polygon fill="black" stroke="black" points="901.98,-502.16 911.5,-497.5 901.16,-495.21 901.98,-502.16"/>
</g>
<!-- [&#39;public.&#39;, &#39;AssetMint&#39;] -->
<g id="node3" class="node">
<title>[&#39;public.&#39;, &#39;AssetMint&#39;]</title>
<polygon fill="#b2dfee" stroke="transparent" points="48,-96.5 48,-124.5 315,-124.5 315,-96.5 48,-96.5"/>
<polygon fill="none" stroke="black" points="48,-96.5 48,-124.5 315,-124.5 315,-96.5 48,-96.5"/>
<text text-anchor="start" x="51" y="-105.5" font-family="Times,serif" font-weight="bold" font-size="20.00"> [&#39;public.&#39;, &#39;AssetMint&#39;] </text>
<polygon fill="#f5f5f5" stroke="transparent" points="48,-75.5 48,-96.5 150,-96.5 150,-75.5 48,-75.5"/>
<polygon fill="none" stroke="black" points="48,-75.5 48,-96.5 150,-96.5 150,-75.5 48,-75.5"/>
<text text-anchor="start" x="51" y="-82.3" font-family="Times,serif" font-weight="bold" font-size="14.00"> tx_id </text>
<polygon fill="none" stroke="black" points="150,-75.5 150,-96.5 315,-96.5 315,-75.5 150,-75.5"/>
<text text-anchor="start" x="153" y="-82.3" font-family="Times,serif" font-size="14.00" fill="#535353"> bigint NOT NULL </text>
<polygon fill="#f5f5f5" stroke="transparent" points="48,-54.5 48,-75.5 150,-75.5 150,-54.5 48,-54.5"/>
<polygon fill="none" stroke="black" points="48,-54.5 48,-75.5 150,-75.5 150,-54.5 48,-54.5"/>
<text text-anchor="start" x="51" y="-61.3" font-family="Times,serif" font-weight="bold" font-size="14.00"> asset_id </text>
<polygon fill="none" stroke="black" points="150,-54.5 150,-75.5 315,-75.5 315,-54.5 150,-54.5"/>
<text text-anchor="start" x="153" y="-61.3" font-family="Times,serif" font-size="14.00" fill="#535353"> bigint NOT NULL </text>
<polygon fill="#f5f5f5" stroke="transparent" points="48,-33.5 48,-54.5 150,-54.5 150,-33.5 48,-33.5"/>
<polygon fill="none" stroke="black" points="48,-33.5 48,-54.5 150,-54.5 150,-33.5 48,-33.5"/>
<text text-anchor="start" x="51" y="-40.3" font-family="Times,serif" font-weight="bold" font-size="14.00"> amount </text>
<polygon fill="none" stroke="black" points="150,-33.5 150,-54.5 315,-54.5 315,-33.5 150,-33.5"/>
<text text-anchor="start" x="153" y="-40.3" font-family="Times,serif" font-size="14.00" fill="#535353"> bigint NOT NULL </text>
</g>
<!-- [&#39;public.&#39;, &#39;NativeAsset&#39;] -->
<g id="node6" class="node">
<title>[&#39;public.&#39;, &#39;NativeAsset&#39;]</title>
<polygon fill="#b2dfee" stroke="transparent" points="491,-139.5 491,-167.5 776,-167.5 776,-139.5 491,-139.5"/>
<polygon fill="none" stroke="black" points="491,-139.5 491,-167.5 776,-167.5 776,-139.5 491,-139.5"/>
<text text-anchor="start" x="494" y="-148.5" font-family="Times,serif" font-weight="bold" font-size="20.00"> [&#39;public.&#39;, &#39;NativeAsset&#39;] </text>
<polygon fill="#f5f5f5" stroke="transparent" points="491,-118.5 491,-139.5 616,-139.5 616,-118.5 491,-118.5"/>
<polygon fill="none" stroke="black" points="491,-118.5 491,-139.5 616,-139.5 616,-118.5 491,-118.5"/>
<text text-anchor="start" x="494" y="-125.3" font-family="Times,serif" font-weight="bold" font-size="14.00"> id </text>
<polygon fill="none" stroke="black" points="616,-118.5 616,-139.5 776,-139.5 776,-118.5 616,-118.5"/>
<text text-anchor="start" x="619" y="-125.3" font-family="Times,serif" font-size="14.00" fill="#535353"> bigint NOT NULL </text>
<polygon fill="#f5f5f5" stroke="transparent" points="491,-97.5 491,-118.5 616,-118.5 616,-97.5 491,-97.5"/>
<polygon fill="none" stroke="black" points="491,-97.5 491,-118.5 616,-118.5 616,-97.5 491,-97.5"/>
<text text-anchor="start" x="494" y="-104.3" font-family="Times,serif" font-weight="bold" font-size="14.00"> policy_id </text>
<polygon fill="none" stroke="black" points="616,-97.5 616,-118.5 776,-118.5 776,-97.5 616,-97.5"/>
<text text-anchor="start" x="619" y="-104.3" font-family="Times,serif" font-size="14.00" fill="#535353"> bytea NOT NULL </text>
<polygon fill="#f5f5f5" stroke="transparent" points="491,-76.5 491,-97.5 616,-97.5 616,-76.5 491,-76.5"/>
<polygon fill="none" stroke="black" points="491,-76.5 491,-97.5 616,-97.5 616,-76.5 491,-76.5"/>
<text text-anchor="start" x="494" y="-83.3" font-family="Times,serif" font-weight="bold" font-size="14.00"> asset_name </text>
<polygon fill="none" stroke="black" points="616,-76.5 616,-97.5 776,-97.5 776,-76.5 616,-76.5"/>
<text text-anchor="start" x="619" y="-83.3" font-family="Times,serif" font-size="14.00" fill="#535353"> bytea NOT NULL </text>
</g>
<!-- [&#39;public.&#39;, &#39;AssetMint&#39;]&#45;&gt;[&#39;public.&#39;, &#39;NativeAsset&#39;] -->
<g id="edge3" class="edge">
<title>[&#39;public.&#39;, &#39;AssetMint&#39;]:asset_id_right&#45;&gt;[&#39;public.&#39;, &#39;NativeAsset&#39;]:id</title>
<path fill="none" stroke="black" d="M316,-64.5C395.01,-64.5 406.55,-124.04 479.75,-129.15"/>
<polygon fill="black" stroke="black" points="479.89,-132.66 490,-129.5 480.13,-125.66 479.89,-132.66"/>
</g>
<!-- [&#39;public.&#39;, &#39;Transaction&#39;] -->
<g id="node8" class="node">
<title>[&#39;public.&#39;, &#39;Transaction&#39;]</title>
<polygon fill="#b2dfee" stroke="transparent" points="936.5,-327.5 936.5,-355.5 1221.5,-355.5 1221.5,-327.5 936.5,-327.5"/>
<polygon fill="none" stroke="black" points="936.5,-327.5 936.5,-355.5 1221.5,-355.5 1221.5,-327.5 936.5,-327.5"/>
<text text-anchor="start" x="939.5" y="-336.5" font-family="Times,serif" font-weight="bold" font-size="20.00"> [&#39;public.&#39;, &#39;Transaction&#39;] </text>
<polygon fill="#f5f5f5" stroke="transparent" points="936.5,-306.5 936.5,-327.5 1041.5,-327.5 1041.5,-306.5 936.5,-306.5"/>
<polygon fill="none" stroke="black" points="936.5,-306.5 936.5,-327.5 1041.5,-327.5 1041.5,-306.5 936.5,-306.5"/>
<text text-anchor="start" x="939.5" y="-313.3" font-family="Times,serif" font-weight="bold" font-size="14.00"> id </text>
<polygon fill="none" stroke="black" points="1041.5,-306.5 1041.5,-327.5 1221.5,-327.5 1221.5,-306.5 1041.5,-306.5"/>
<text text-anchor="start" x="1044.5" y="-313.3" font-family="Times,serif" font-size="14.00" fill="#535353"> bigint NOT NULL </text>
<polygon fill="#f5f5f5" stroke="transparent" points="936.5,-285.5 936.5,-306.5 1041.5,-306.5 1041.5,-285.5 936.5,-285.5"/>
<polygon fill="none" stroke="black" points="936.5,-285.5 936.5,-306.5 1041.5,-306.5 1041.5,-285.5 936.5,-285.5"/>
<text text-anchor="start" x="939.5" y="-292.3" font-family="Times,serif" font-weight="bold" font-size="14.00"> hash </text>
<polygon fill="none" stroke="black" points="1041.5,-285.5 1041.5,-306.5 1221.5,-306.5 1221.5,-285.5 1041.5,-285.5"/>
<text text-anchor="start" x="1044.5" y="-292.3" font-family="Times,serif" font-size="14.00" fill="#535353"> bytea NOT NULL </text>
<polygon fill="#f5f5f5" stroke="transparent" points="936.5,-264.5 936.5,-285.5 1041.5,-285.5 1041.5,-264.5 936.5,-264.5"/>
<polygon fill="none" stroke="black" points="936.5,-264.5 936.5,-285.5 1041.5,-285.5 1041.5,-264.5 936.5,-264.5"/>
<text text-anchor="start" x="939.5" y="-271.3" font-family="Times,serif" font-weight="bold" font-size="14.00"> block_id </text>
<polygon fill="none" stroke="black" points="1041.5,-264.5 1041.5,-285.5 1221.5,-285.5 1221.5,-264.5 1041.5,-264.5"/>
<text text-anchor="start" x="1044.5" y="-271.3" font-family="Times,serif" font-size="14.00" fill="#535353"> integer NOT NULL </text>
<polygon fill="#f5f5f5" stroke="transparent" points="936.5,-243.5 936.5,-264.5 1041.5,-264.5 1041.5,-243.5 936.5,-243.5"/>
<polygon fill="none" stroke="black" points="936.5,-243.5 936.5,-264.5 1041.5,-264.5 1041.5,-243.5 936.5,-243.5"/>
<text text-anchor="start" x="939.5" y="-250.3" font-family="Times,serif" font-weight="bold" font-size="14.00"> tx_index </text>
<polygon fill="none" stroke="black" points="1041.5,-243.5 1041.5,-264.5 1221.5,-264.5 1221.5,-243.5 1041.5,-243.5"/>
<text text-anchor="start" x="1044.5" y="-250.3" font-family="Times,serif" font-size="14.00" fill="#535353"> integer NOT NULL </text>
<polygon fill="#f5f5f5" stroke="transparent" points="936.5,-222.5 936.5,-243.5 1041.5,-243.5 1041.5,-222.5 936.5,-222.5"/>
<polygon fill="none" stroke="black" points="936.5,-222.5 936.5,-243.5 1041.5,-243.5 1041.5,-222.5 936.5,-222.5"/>
<text text-anchor="start" x="939.5" y="-229.3" font-family="Times,serif" font-weight="bold" font-size="14.00"> payload </text>
<polygon fill="none" stroke="black" points="1041.5,-222.5 1041.5,-243.5 1221.5,-243.5 1221.5,-222.5 1041.5,-222.5"/>
<text text-anchor="start" x="1044.5" y="-229.3" font-family="Times,serif" font-size="14.00" fill="#535353"> bytea NOT NULL </text>
<polygon fill="#f5f5f5" stroke="transparent" points="936.5,-201.5 936.5,-222.5 1041.5,-222.5 1041.5,-201.5 936.5,-201.5"/>
<polygon fill="none" stroke="black" points="936.5,-201.5 936.5,-222.5 1041.5,-222.5 1041.5,-201.5 936.5,-201.5"/>
<text text-anchor="start" x="939.5" y="-208.3" font-family="Times,serif" font-weight="bold" font-size="14.00"> is_valid </text>
<polygon fill="none" stroke="black" points="1041.5,-201.5 1041.5,-222.5 1221.5,-222.5 1221.5,-201.5 1041.5,-201.5"/>
<text text-anchor="start" x="1044.5" y="-208.3" font-family="Times,serif" font-size="14.00" fill="#535353"> boolean NOT NULL </text>
</g>
<!-- [&#39;public.&#39;, &#39;AssetMint&#39;]&#45;&gt;[&#39;public.&#39;, &#39;Transaction&#39;] -->
<g id="edge4" class="edge">
<title>[&#39;public.&#39;, &#39;AssetMint&#39;]:tx_id_right&#45;&gt;[&#39;public.&#39;, &#39;Transaction&#39;]:id</title>
<path fill="none" stroke="black" d="M316,-86.5C353.85,-86.5 360.5,-68.66 398,-63.5 604.94,-35.03 702.41,63.83 868,-63.5 957.7,-132.48 827.33,-306.19 925.29,-316.98"/>
<polygon fill="black" stroke="black" points="925.33,-320.48 935.5,-317.5 925.69,-313.49 925.33,-320.48"/>
</g>
<!-- [&#39;public.&#39;, &#39;Block&#39;] -->
<g id="node4" class="node">
<title>[&#39;public.&#39;, &#39;Block&#39;]</title>
<polygon fill="#b2dfee" stroke="transparent" points="1297,-284.5 1297,-312.5 1515,-312.5 1515,-284.5 1297,-284.5"/>
<polygon fill="none" stroke="black" points="1297,-284.5 1297,-312.5 1515,-312.5 1515,-284.5 1297,-284.5"/>
<text text-anchor="start" x="1300.5" y="-293.5" font-family="Times,serif" font-weight="bold" font-size="20.00"> [&#39;public.&#39;, &#39;Block&#39;] </text>
<polygon fill="#f5f5f5" stroke="transparent" points="1297,-263.5 1297,-284.5 1364,-284.5 1364,-263.5 1297,-263.5"/>
<polygon fill="none" stroke="black" points="1297,-263.5 1297,-284.5 1364,-284.5 1364,-263.5 1297,-263.5"/>
<text text-anchor="start" x="1300" y="-270.3" font-family="Times,serif" font-weight="bold" font-size="14.00"> id </text>
<polygon fill="none" stroke="black" points="1364,-263.5 1364,-284.5 1515,-284.5 1515,-263.5 1364,-263.5"/>
<text text-anchor="start" x="1367" y="-270.3" font-family="Times,serif" font-size="14.00" fill="#535353"> integer NOT NULL </text>
<polygon fill="#f5f5f5" stroke="transparent" points="1297,-242.5 1297,-263.5 1364,-263.5 1364,-242.5 1297,-242.5"/>
<polygon fill="none" stroke="black" points="1297,-242.5 1297,-263.5 1364,-263.5 1364,-242.5 1297,-242.5"/>
<text text-anchor="start" x="1300" y="-249.3" font-family="Times,serif" font-weight="bold" font-size="14.00"> era </text>
<polygon fill="none" stroke="black" points="1364,-242.5 1364,-263.5 1515,-263.5 1515,-242.5 1364,-242.5"/>
<text text-anchor="start" x="1367" y="-249.3" font-family="Times,serif" font-size="14.00" fill="#535353"> integer NOT NULL </text>
<polygon fill="#f5f5f5" stroke="transparent" points="1297,-221.5 1297,-242.5 1364,-242.5 1364,-221.5 1297,-221.5"/>
<polygon fill="none" stroke="black" points="1297,-221.5 1297,-242.5 1364,-242.5 1364,-221.5 1297,-221.5"/>
<text text-anchor="start" x="1300" y="-228.3" font-family="Times,serif" font-weight="bold" font-size="14.00"> hash </text>
<polygon fill="none" stroke="black" points="1364,-221.5 1364,-242.5 1515,-242.5 1515,-221.5 1364,-221.5"/>
<text text-anchor="start" x="1367" y="-228.3" font-family="Times,serif" font-size="14.00" fill="#535353"> bytea NOT NULL </text>
<polygon fill="#f5f5f5" stroke="transparent" points="1297,-200.5 1297,-221.5 1364,-221.5 1364,-200.5 1297,-200.5"/>
<polygon fill="none" stroke="black" points="1297,-200.5 1297,-221.5 1364,-221.5 1364,-200.5 1297,-200.5"/>
<text text-anchor="start" x="1300" y="-207.3" font-family="Times,serif" font-weight="bold" font-size="14.00"> height </text>
<polygon fill="none" stroke="black" points="1364,-200.5 1364,-221.5 1515,-221.5 1515,-200.5 1364,-200.5"/>
<text text-anchor="start" x="1367" y="-207.3" font-family="Times,serif" font-size="14.00" fill="#535353"> integer NOT NULL </text>
<polygon fill="#f5f5f5" stroke="transparent" points="1297,-179.5 1297,-200.5 1364,-200.5 1364,-179.5 1297,-179.5"/>
<polygon fill="none" stroke="black" points="1297,-179.5 1297,-200.5 1364,-200.5 1364,-179.5 1297,-179.5"/>
<text text-anchor="start" x="1300" y="-186.3" font-family="Times,serif" font-weight="bold" font-size="14.00"> epoch </text>
<polygon fill="none" stroke="black" points="1364,-179.5 1364,-200.5 1515,-200.5 1515,-179.5 1364,-179.5"/>
<text text-anchor="start" x="1367" y="-186.3" font-family="Times,serif" font-size="14.00" fill="#535353"> integer NOT NULL </text>
<polygon fill="#f5f5f5" stroke="transparent" points="1297,-158.5 1297,-179.5 1364,-179.5 1364,-158.5 1297,-158.5"/>
<polygon fill="none" stroke="black" points="1297,-158.5 1297,-179.5 1364,-179.5 1364,-158.5 1297,-158.5"/>
<text text-anchor="start" x="1300" y="-165.3" font-family="Times,serif" font-weight="bold" font-size="14.00"> slot </text>
<polygon fill="none" stroke="black" points="1364,-158.5 1364,-179.5 1515,-179.5 1515,-158.5 1364,-158.5"/>
<text text-anchor="start" x="1367" y="-165.3" font-family="Times,serif" font-size="14.00" fill="#535353"> integer NOT NULL </text>
</g>
<!-- [&#39;public.&#39;, &#39;Cip25Entry&#39;] -->
<g id="node5" class="node">
<title>[&#39;public.&#39;, &#39;Cip25Entry&#39;]</title>
<polygon fill="#b2dfee" stroke="transparent" points="41,-256.5 41,-284.5 321,-284.5 321,-256.5 41,-256.5"/>
<polygon fill="none" stroke="black" points="41,-256.5 41,-284.5 321,-284.5 321,-256.5 41,-256.5"/>
<text text-anchor="start" x="44" y="-265.5" font-family="Times,serif" font-weight="bold" font-size="20.00"> [&#39;public.&#39;, &#39;Cip25Entry&#39;] </text>
<polygon fill="#f5f5f5" stroke="transparent" points="41,-235.5 41,-256.5 177,-256.5 177,-235.5 41,-235.5"/>
<polygon fill="none" stroke="black" points="41,-235.5 41,-256.5 177,-256.5 177,-235.5 41,-235.5"/>
<text text-anchor="start" x="44" y="-242.3" font-family="Times,serif" font-weight="bold" font-size="14.00"> tx_id </text>
<polygon fill="none" stroke="black" points="177,-235.5 177,-256.5 321,-256.5 321,-235.5 177,-235.5"/>
<text text-anchor="start" x="180" y="-242.3" font-family="Times,serif" font-size="14.00" fill="#535353"> bigint NOT NULL </text>
<polygon fill="#f5f5f5" stroke="transparent" points="41,-214.5 41,-235.5 177,-235.5 177,-214.5 41,-214.5"/>
<polygon fill="none" stroke="black" points="41,-214.5 41,-235.5 177,-235.5 177,-214.5 41,-214.5"/>
<text text-anchor="start" x="44" y="-221.3" font-family="Times,serif" font-weight="bold" font-size="14.00"> label </text>
<polygon fill="none" stroke="black" points="177,-214.5 177,-235.5 321,-235.5 321,-214.5 177,-214.5"/>
<text text-anchor="start" x="180" y="-221.3" font-family="Times,serif" font-size="14.00" fill="#535353"> bytea NOT NULL </text>
<polygon fill="#f5f5f5" stroke="transparent" points="41,-193.5 41,-214.5 177,-214.5 177,-193.5 41,-193.5"/>
<polygon fill="none" stroke="black" points="41,-193.5 41,-214.5 177,-214.5 177,-193.5 41,-193.5"/>
<text text-anchor="start" x="44" y="-200.3" font-family="Times,serif" font-weight="bold" font-size="14.00"> native_asset_id </text>
<polygon fill="none" stroke="black" points="177,-193.5 177,-214.5 321,-214.5 321,-193.5 177,-193.5"/>
<text text-anchor="start" x="180" y="-200.3" font-family="Times,serif" font-size="14.00" fill="#535353"> bigint NOT NULL </text>
</g>
<!-- [&#39;public.&#39;, &#39;Cip25Entry&#39;]&#45;&gt;[&#39;public.&#39;, &#39;NativeAsset&#39;] -->
<g id="edge5" class="edge">
<title>[&#39;public.&#39;, &#39;Cip25Entry&#39;]:native_asset_id_right&#45;&gt;[&#39;public.&#39;, &#39;NativeAsset&#39;]:id</title>
<path fill="none" stroke="black" d="M322,-203.5C400.08,-203.5 407.85,-135.73 479.9,-129.9"/>
<polygon fill="black" stroke="black" points="480.15,-133.39 490,-129.5 479.87,-126.4 480.15,-133.39"/>
</g>
<!-- [&#39;public.&#39;, &#39;TransactionMetadata&#39;] -->
<g id="node10" class="node">
<title>[&#39;public.&#39;, &#39;TransactionMetadata&#39;]</title>
<polygon fill="#b2dfee" stroke="transparent" points="438,-256.5 438,-284.5 829,-284.5 829,-256.5 438,-256.5"/>
<polygon fill="none" stroke="black" points="438,-256.5 438,-284.5 829,-284.5 829,-256.5 438,-256.5"/>
<text text-anchor="start" x="441" y="-265.5" font-family="Times,serif" font-weight="bold" font-size="20.00"> [&#39;public.&#39;, &#39;TransactionMetadata&#39;] </text>
<polygon fill="#f5f5f5" stroke="transparent" points="438,-235.5 438,-256.5 601,-256.5 601,-235.5 438,-235.5"/>
<polygon fill="none" stroke="black" points="438,-235.5 438,-256.5 601,-256.5 601,-235.5 438,-235.5"/>
<text text-anchor="start" x="441" y="-242.3" font-family="Times,serif" font-weight="bold" font-size="14.00"> tx_id </text>
<polygon fill="none" stroke="black" points="601,-235.5 601,-256.5 829,-256.5 829,-235.5 601,-235.5"/>
<text text-anchor="start" x="604" y="-242.3" font-family="Times,serif" font-size="14.00" fill="#535353"> bigint NOT NULL </text>
<polygon fill="#f5f5f5" stroke="transparent" points="438,-214.5 438,-235.5 601,-235.5 601,-214.5 438,-214.5"/>
<polygon fill="none" stroke="black" points="438,-214.5 438,-235.5 601,-235.5 601,-214.5 438,-214.5"/>
<text text-anchor="start" x="441" y="-221.3" font-family="Times,serif" font-weight="bold" font-size="14.00"> label </text>
<polygon fill="none" stroke="black" points="601,-214.5 601,-235.5 829,-235.5 829,-214.5 601,-214.5"/>
<text text-anchor="start" x="604" y="-221.3" font-family="Times,serif" font-size="14.00" fill="#535353"> bytea NOT NULL </text>
<polygon fill="#f5f5f5" stroke="transparent" points="438,-193.5 438,-214.5 601,-214.5 601,-193.5 438,-193.5"/>
<polygon fill="none" stroke="black" points="438,-193.5 438,-214.5 601,-214.5 601,-193.5 438,-193.5"/>
<text text-anchor="start" x="441" y="-200.3" font-family="Times,serif" font-weight="bold" font-size="14.00"> payload </text>
<polygon fill="none" stroke="black" points="601,-193.5 601,-214.5 829,-214.5 829,-193.5 601,-193.5"/>
<text text-anchor="start" x="604" y="-200.3" font-family="Times,serif" font-size="14.00" fill="#535353"> bytea NOT NULL </text>
</g>
<!-- [&#39;public.&#39;, &#39;Cip25Entry&#39;]&#45;&gt;[&#39;public.&#39;, &#39;TransactionMetadata&#39;] -->
<g id="edge6" class="edge">
<title>[&#39;public.&#39;, &#39;Cip25Entry&#39;]:tx_id_right&#45;&gt;[&#39;public.&#39;, &#39;TransactionMetadata&#39;]:tx_id</title>
<path fill="none" stroke="black" d="M322,-246.5C369.52,-246.5 383.9,-246.5 426.76,-246.5"/>
<polygon fill="black" stroke="black" points="427,-250 437,-246.5 427,-243 427,-250"/>
</g>
<!-- [&#39;public.&#39;, &#39;Cip25Entry&#39;]&#45;&gt;[&#39;public.&#39;, &#39;TransactionMetadata&#39;] -->
<g id="edge7" class="edge">
<title>[&#39;public.&#39;, &#39;Cip25Entry&#39;]:label_right&#45;&gt;[&#39;public.&#39;, &#39;TransactionMetadata&#39;]:label</title>
<path fill="none" stroke="black" d="M322,-224.5C369.52,-224.5 383.9,-224.5 426.76,-224.5"/>
<polygon fill="black" stroke="black" points="427,-228 437,-224.5 427,-221 427,-228"/>
</g>
<!-- [&#39;public.&#39;, &#39;Transaction&#39;]&#45;&gt;[&#39;public.&#39;, &#39;Block&#39;] -->
<g id="edge9" class="edge">
<title>[&#39;public.&#39;, &#39;Transaction&#39;]:block_id_right&#45;&gt;[&#39;public.&#39;, &#39;Block&#39;]:id</title>
<path fill="none" stroke="black" d="M1222.5,-274.5C1251.47,-274.5 1261.17,-274.5 1285.77,-274.5"/>
<polygon fill="black" stroke="black" points="1286,-278 1296,-274.5 1286,-271 1286,-278"/>
</g>
<!-- [&#39;public.&#39;, &#39;TransactionInput&#39;] -->
<g id="node9" class="node">
<title>[&#39;public.&#39;, &#39;TransactionInput&#39;]</title>
<polygon fill="#b2dfee" stroke="transparent" points="8,-494.5 8,-522.5 354,-522.5 354,-494.5 8,-494.5"/>
<polygon fill="none" stroke="black" points="8,-494.5 8,-522.5 354,-522.5 354,-494.5 8,-494.5"/>
<text text-anchor="start" x="11" y="-503.5" font-family="Times,serif" font-weight="bold" font-size="20.00"> [&#39;public.&#39;, &#39;TransactionInput&#39;] </text>
<polygon fill="#f5f5f5" stroke="transparent" points="8,-473.5 8,-494.5 159,-494.5 159,-473.5 8,-473.5"/>
<polygon fill="none" stroke="black" points="8,-473.5 8,-494.5 159,-494.5 159,-473.5 8,-473.5"/>
<text text-anchor="start" x="11" y="-480.3" font-family="Times,serif" font-weight="bold" font-size="14.00"> id </text>
<polygon fill="none" stroke="black" points="159,-473.5 159,-494.5 354,-494.5 354,-473.5 159,-473.5"/>
<text text-anchor="start" x="162" y="-480.3" font-family="Times,serif" font-size="14.00" fill="#535353"> bigint NOT NULL </text>
<polygon fill="#f5f5f5" stroke="transparent" points="8,-452.5 8,-473.5 159,-473.5 159,-452.5 8,-452.5"/>
<polygon fill="none" stroke="black" points="8,-452.5 8,-473.5 159,-473.5 159,-452.5 8,-452.5"/>
<text text-anchor="start" x="11" y="-459.3" font-family="Times,serif" font-weight="bold" font-size="14.00"> utxo_id </text>
<polygon fill="none" stroke="black" points="159,-452.5 159,-473.5 354,-473.5 354,-452.5 159,-452.5"/>
<text text-anchor="start" x="162" y="-459.3" font-family="Times,serif" font-size="14.00" fill="#535353"> bigint NOT NULL </text>
<polygon fill="#f5f5f5" stroke="transparent" points="8,-431.5 8,-452.5 159,-452.5 159,-431.5 8,-431.5"/>
<polygon fill="none" stroke="black" points="8,-431.5 8,-452.5 159,-452.5 159,-431.5 8,-431.5"/>
<text text-anchor="start" x="11" y="-438.3" font-family="Times,serif" font-weight="bold" font-size="14.00"> tx_id </text>
<polygon fill="none" stroke="black" points="159,-431.5 159,-452.5 354,-452.5 354,-431.5 159,-431.5"/>
<text text-anchor="start" x="162" y="-438.3" font-family="Times,serif" font-size="14.00" fill="#535353"> bigint NOT NULL </text>
<polygon fill="#f5f5f5" stroke="transparent" points="8,-410.5 8,-431.5 159,-431.5 159,-410.5 8,-410.5"/>
<polygon fill="none" stroke="black" points="8,-410.5 8,-431.5 159,-431.5 159,-410.5 8,-410.5"/>
<text text-anchor="start" x="11" y="-417.3" font-family="Times,serif" font-weight="bold" font-size="14.00"> input_index </text>
<polygon fill="none" stroke="black" points="159,-410.5 159,-431.5 354,-431.5 354,-410.5 159,-410.5"/>
<text text-anchor="start" x="162" y="-417.3" font-family="Times,serif" font-size="14.00" fill="#535353"> integer NOT NULL </text>
</g>
<!-- [&#39;public.&#39;, &#39;TransactionInput&#39;]&#45;&gt;[&#39;public.&#39;, &#39;Transaction&#39;] -->
<g id="edge10" class="edge">
<title>[&#39;public.&#39;, &#39;TransactionInput&#39;]:tx_id_right&#45;&gt;[&#39;public.&#39;, &#39;Transaction&#39;]:id</title>
<path fill="none" stroke="black" d="M355,-441.5C405.43,-441.5 356.63,-365.34 398,-336.5 493.37,-270.03 798.65,-314.89 925.25,-317.4"/>
<polygon fill="black" stroke="black" points="925.46,-320.9 935.5,-317.5 925.54,-313.9 925.46,-320.9"/>
</g>
<!-- [&#39;public.&#39;, &#39;TransactionOutput&#39;] -->
<g id="node11" class="node">
<title>[&#39;public.&#39;, &#39;TransactionOutput&#39;]</title>
<polygon fill="#b2dfee" stroke="transparent" points="452,-571.5 452,-599.5 815,-599.5 815,-571.5 452,-571.5"/>
<polygon fill="none" stroke="black" points="452,-571.5 452,-599.5 815,-599.5 815,-571.5 452,-571.5"/>
<text text-anchor="start" x="455" y="-580.5" font-family="Times,serif" font-weight="bold" font-size="20.00"> [&#39;public.&#39;, &#39;TransactionOutput&#39;] </text>
<polygon fill="#f5f5f5" stroke="transparent" points="452,-550.5 452,-571.5 617,-571.5 617,-550.5 452,-550.5"/>
<polygon fill="none" stroke="black" points="452,-550.5 452,-571.5 617,-571.5 617,-550.5 452,-550.5"/>
<text text-anchor="start" x="455" y="-557.3" font-family="Times,serif" font-weight="bold" font-size="14.00"> id </text>
<polygon fill="none" stroke="black" points="617,-550.5 617,-571.5 815,-571.5 815,-550.5 617,-550.5"/>
<text text-anchor="start" x="620" y="-557.3" font-family="Times,serif" font-size="14.00" fill="#535353"> bigint NOT NULL </text>
<polygon fill="#f5f5f5" stroke="transparent" points="452,-529.5 452,-550.5 617,-550.5 617,-529.5 452,-529.5"/>
<polygon fill="none" stroke="black" points="452,-529.5 452,-550.5 617,-550.5 617,-529.5 452,-529.5"/>
<text text-anchor="start" x="455" y="-536.3" font-family="Times,serif" font-weight="bold" font-size="14.00"> payload </text>
<polygon fill="none" stroke="black" points="617,-529.5 617,-550.5 815,-550.5 815,-529.5 617,-529.5"/>
<text text-anchor="start" x="620" y="-536.3" font-family="Times,serif" font-size="14.00" fill="#535353"> bytea NOT NULL </text>
<polygon fill="#f5f5f5" stroke="transparent" points="452,-508.5 452,-529.5 617,-529.5 617,-508.5 452,-508.5"/>
<polygon fill="none" stroke="black" points="452,-508.5 452,-529.5 617,-529.5 617,-508.5 452,-508.5"/>
<text text-anchor="start" x="455" y="-515.3" font-family="Times,serif" font-weight="bold" font-size="14.00"> address_id </text>
<polygon fill="none" stroke="black" points="617,-508.5 617,-529.5 815,-529.5 815,-508.5 617,-508.5"/>
<text text-anchor="start" x="620" y="-515.3" font-family="Times,serif" font-size="14.00" fill="#535353"> bigint NOT NULL </text>
<polygon fill="#f5f5f5" stroke="transparent" points="452,-487.5 452,-508.5 617,-508.5 617,-487.5 452,-487.5"/>
<polygon fill="none" stroke="black" points="452,-487.5 452,-508.5 617,-508.5 617,-487.5 452,-487.5"/>
<text text-anchor="start" x="455" y="-494.3" font-family="Times,serif" font-weight="bold" font-size="14.00"> tx_id </text>
<polygon fill="none" stroke="black" points="617,-487.5 617,-508.5 815,-508.5 815,-487.5 617,-487.5"/>
<text text-anchor="start" x="620" y="-494.3" font-family="Times,serif" font-size="14.00" fill="#535353"> bigint NOT NULL </text>
<polygon fill="#f5f5f5" stroke="transparent" points="452,-466.5 452,-487.5 617,-487.5 617,-466.5 452,-466.5"/>
<polygon fill="none" stroke="black" points="452,-466.5 452,-487.5 617,-487.5 617,-466.5 452,-466.5"/>
<text text-anchor="start" x="455" y="-473.3" font-family="Times,serif" font-weight="bold" font-size="14.00"> output_index </text>
<polygon fill="none" stroke="black" points="617,-466.5 617,-487.5 815,-487.5 815,-466.5 617,-466.5"/>
<text text-anchor="start" x="620" y="-473.3" font-family="Times,serif" font-size="14.00" fill="#535353"> integer NOT NULL </text>
</g>
<!-- [&#39;public.&#39;, &#39;TransactionInput&#39;]&#45;&gt;[&#39;public.&#39;, &#39;TransactionOutput&#39;] -->
<g id="edge11" class="edge">
<title>[&#39;public.&#39;, &#39;TransactionInput&#39;]:utxo_id_right&#45;&gt;[&#39;public.&#39;, &#39;TransactionOutput&#39;]:id</title>
<path fill="none" stroke="black" d="M355,-462.5C412.58,-462.5 392.61,-549.88 440.79,-560.46"/>
<polygon fill="black" stroke="black" points="440.7,-563.97 451,-561.5 441.41,-557 440.7,-563.97"/>
</g>
<!-- [&#39;public.&#39;, &#39;TransactionMetadata&#39;]&#45;&gt;[&#39;public.&#39;, &#39;Transaction&#39;] -->
<g id="edge8" class="edge">
<title>[&#39;public.&#39;, &#39;TransactionMetadata&#39;]:tx_id_right&#45;&gt;[&#39;public.&#39;, &#39;Transaction&#39;]:id</title>
<path fill="none" stroke="black" d="M830,-246.5C882.88,-246.5 879.69,-308.65 925.34,-316.66"/>
<polygon fill="black" stroke="black" points="925.24,-320.16 935.5,-317.5 925.83,-313.18 925.24,-320.16"/>
</g>
<!-- [&#39;public.&#39;, &#39;TransactionOutput&#39;]&#45;&gt;[&#39;public.&#39;, &#39;Address&#39;] -->
<g id="edge12" class="edge">
<title>[&#39;public.&#39;, &#39;TransactionOutput&#39;]:address_id_right&#45;&gt;[&#39;public.&#39;, &#39;Address&#39;]:id</title>
<path fill="none" stroke="black" d="M816,-518.5C883.84,-518.5 884.18,-590.58 945.17,-597.9"/>
<polygon fill="black" stroke="black" points="945.31,-601.42 955.5,-598.5 945.72,-594.43 945.31,-601.42"/>
</g>
<!-- [&#39;public.&#39;, &#39;TransactionOutput&#39;]&#45;&gt;[&#39;public.&#39;, &#39;Transaction&#39;] -->
<g id="edge13" class="edge">
<title>[&#39;public.&#39;, &#39;TransactionOutput&#39;]:tx_id_right&#45;&gt;[&#39;public.&#39;, &#39;Transaction&#39;]:id</title>
<path fill="none" stroke="black" d="M816,-497.5C846.27,-497.5 849.33,-477.33 868,-453.5 907.34,-403.29 872.32,-326.48 925.38,-318.23"/>
<polygon fill="black" stroke="black" points="925.78,-321.71 935.5,-317.5 925.28,-314.73 925.78,-321.71"/>
</g>
<!-- [&#39;public.&#39;, &#39;TxCredentialRelation&#39;] -->
<g id="node12" class="node">
<title>[&#39;public.&#39;, &#39;TxCredentialRelation&#39;]</title>
<polygon fill="#b2dfee" stroke="transparent" points="438,-412.5 438,-440.5 829,-440.5 829,-412.5 438,-412.5"/>
<polygon fill="none" stroke="black" points="438,-412.5 438,-440.5 829,-440.5 829,-412.5 438,-412.5"/>
<text text-anchor="start" x="441" y="-421.5" font-family="Times,serif" font-weight="bold" font-size="20.00"> [&#39;public.&#39;, &#39;TxCredentialRelation&#39;] </text>
<polygon fill="#f5f5f5" stroke="transparent" points="438,-391.5 438,-412.5 617,-412.5 617,-391.5 438,-391.5"/>
<polygon fill="none" stroke="black" points="438,-391.5 438,-412.5 617,-412.5 617,-391.5 438,-391.5"/>
<text text-anchor="start" x="441" y="-398.3" font-family="Times,serif" font-weight="bold" font-size="14.00"> credential_id </text>
<polygon fill="none" stroke="black" points="617,-391.5 617,-412.5 829,-412.5 829,-391.5 617,-391.5"/>
<text text-anchor="start" x="620" y="-398.3" font-family="Times,serif" font-size="14.00" fill="#535353"> bigint NOT NULL </text>
<polygon fill="#f5f5f5" stroke="transparent" points="438,-370.5 438,-391.5 617,-391.5 617,-370.5 438,-370.5"/>
<polygon fill="none" stroke="black" points="438,-370.5 438,-391.5 617,-391.5 617,-370.5 438,-370.5"/>
<text text-anchor="start" x="441" y="-377.3" font-family="Times,serif" font-weight="bold" font-size="14.00"> tx_id </text>
<polygon fill="none" stroke="black" points="617,-370.5 617,-391.5 829,-391.5 829,-370.5 617,-370.5"/>
<text text-anchor="start" x="620" y="-377.3" font-family="Times,serif" font-size="14.00" fill="#535353"> bigint NOT NULL </text>
<polygon fill="#f5f5f5" stroke="transparent" points="438,-349.5 438,-370.5 617,-370.5 617,-349.5 438,-349.5"/>
<polygon fill="none" stroke="black" points="438,-349.5 438,-370.5 617,-370.5 617,-349.5 438,-349.5"/>
<text text-anchor="start" x="441" y="-356.3" font-family="Times,serif" font-weight="bold" font-size="14.00"> relation </text>
<polygon fill="none" stroke="black" points="617,-349.5 617,-370.5 829,-370.5 829,-349.5 617,-349.5"/>
<text text-anchor="start" x="620" y="-356.3" font-family="Times,serif" font-size="14.00" fill="#535353"> integer NOT NULL </text>
</g>
<!-- [&#39;public.&#39;, &#39;TxCredentialRelation&#39;]&#45;&gt;[&#39;public.&#39;, &#39;StakeCredential&#39;] -->
<g id="edge14" class="edge">
<title>[&#39;public.&#39;, &#39;TxCredentialRelation&#39;]:credential_id_right&#45;&gt;[&#39;public.&#39;, &#39;StakeCredential&#39;]:id</title>
<path fill="none" stroke="black" d="M830,-402.5C881.94,-402.5 859.45,-485.3 901.5,-496.3"/>
<polygon fill="black" stroke="black" points="901.15,-499.79 911.5,-497.5 901.99,-492.84 901.15,-499.79"/>
</g>
<!-- [&#39;public.&#39;, &#39;TxCredentialRelation&#39;]&#45;&gt;[&#39;public.&#39;, &#39;Transaction&#39;] -->
<g id="edge15" class="edge">
<title>[&#39;public.&#39;, &#39;TxCredentialRelation&#39;]:tx_id_right&#45;&gt;[&#39;public.&#39;, &#39;Transaction&#39;]:id</title>
<path fill="none" stroke="black" d="M830,-380.5C880.99,-380.5 881.12,-325.59 925.36,-318.3"/>
<polygon fill="black" stroke="black" points="925.8,-321.77 935.5,-317.5 925.26,-314.8 925.8,-321.77"/>
</g>
<!-- [&#39;public.seaql_migrations&#39;] -->
<g id="node13" class="node">
<title>[&#39;public.seaql_migrations&#39;]</title>
<polygon fill="#b2dfee" stroke="transparent" points="20,-590.5 20,-618.5 342,-618.5 342,-590.5 20,-590.5"/>
<polygon fill="none" stroke="black" points="20,-590.5 20,-618.5 342,-618.5 342,-590.5 20,-590.5"/>
<text text-anchor="start" x="25" y="-599.5" font-family="Times,serif" font-weight="bold" font-size="20.00"> [&#39;public.seaql_migrations&#39;] </text>
<polygon fill="#f5f5f5" stroke="transparent" points="20,-569.5 20,-590.5 116,-590.5 116,-569.5 20,-569.5"/>
<polygon fill="none" stroke="black" points="20,-569.5 20,-590.5 116,-590.5 116,-569.5 20,-569.5"/>
<text text-anchor="start" x="23" y="-576.3" font-family="Times,serif" font-weight="bold" font-size="14.00"> version </text>
<polygon fill="none" stroke="black" points="116,-569.5 116,-590.5 342,-590.5 342,-569.5 116,-569.5"/>
<text text-anchor="start" x="119" y="-576.3" font-family="Times,serif" font-size="14.00" fill="#535353"> character varying NOT NULL </text>
<polygon fill="#f5f5f5" stroke="transparent" points="20,-548.5 20,-569.5 116,-569.5 116,-548.5 20,-548.5"/>
<polygon fill="none" stroke="black" points="20,-548.5 20,-569.5 116,-569.5 116,-548.5 20,-548.5"/>
<text text-anchor="start" x="23" y="-555.3" font-family="Times,serif" font-weight="bold" font-size="14.00"> applied_at </text>
<polygon fill="none" stroke="black" points="116,-548.5 116,-569.5 342,-569.5 342,-548.5 116,-548.5"/>
<text text-anchor="start" x="119" y="-555.3" font-family="Times,serif" font-size="14.00" fill="#535353"> bigint NOT NULL </text>
</g>
</g>
</svg>
