<?xml version="1.0" encoding="UTF-8" standalone="no"?>
<!DOCTYPE svg PUBLIC "-//W3C//DTD SVG 1.1//EN"
 "http://www.w3.org/Graphics/SVG/1.1/DTD/svg11.dtd">
<!-- Generated by graphviz version 2.43.0 (0)
 -->
<!-- Title: g Pages: 1 -->
<svg width="1531pt" height="596pt"
 viewBox="0.00 0.00 1531.00 595.50" xmlns="http://www.w3.org/2000/svg" xmlns:xlink="http://www.w3.org/1999/xlink">
<g id="graph0" class="graph" transform="scale(1 1) rotate(0) translate(4 591.5)">
<title>g</title>
<polygon fill="white" stroke="transparent" points="-4,4 -4,-591.5 1527,-591.5 1527,4 -4,4"/>
<!-- [&#39;public.&#39;, &#39;Address&#39;] -->
<g id="node1" class="node">
<title>[&#39;public.&#39;, &#39;Address&#39;]</title>
<polygon fill="#b2dfee" stroke="transparent" points="956.5,-476 956.5,-504 1200.5,-504 1200.5,-476 956.5,-476"/>
<polygon fill="none" stroke="black" points="956.5,-476 956.5,-504 1200.5,-504 1200.5,-476 956.5,-476"/>
<text text-anchor="start" x="959.5" y="-485" font-family="Times,serif" font-weight="bold" font-size="20.00"> [&#39;public.&#39;, &#39;Address&#39;] </text>
<polygon fill="#f5f5f5" stroke="transparent" points="956.5,-455 956.5,-476 1045.5,-476 1045.5,-455 956.5,-455"/>
<polygon fill="none" stroke="black" points="956.5,-455 956.5,-476 1045.5,-476 1045.5,-455 956.5,-455"/>
<text text-anchor="start" x="959.5" y="-461.8" font-family="Times,serif" font-weight="bold" font-size="14.00"> id </text>
<polygon fill="none" stroke="black" points="1045.5,-455 1045.5,-476 1200.5,-476 1200.5,-455 1045.5,-455"/>
<text text-anchor="start" x="1048.5" y="-461.8" font-family="Times,serif" font-size="14.00" fill="#535353"> bigint NOT NULL </text>
<polygon fill="#f5f5f5" stroke="transparent" points="956.5,-434 956.5,-455 1045.5,-455 1045.5,-434 956.5,-434"/>
<polygon fill="none" stroke="black" points="956.5,-434 956.5,-455 1045.5,-455 1045.5,-434 956.5,-434"/>
<text text-anchor="start" x="959.5" y="-440.8" font-family="Times,serif" font-weight="bold" font-size="14.00"> payload </text>
<polygon fill="none" stroke="black" points="1045.5,-434 1045.5,-455 1200.5,-455 1200.5,-434 1045.5,-434"/>
<text text-anchor="start" x="1048.5" y="-440.8" font-family="Times,serif" font-size="14.00" fill="#535353"> bytea NOT NULL </text>
</g>
<!-- [&#39;public.&#39;, &#39;AddressCredentialRelation&#39;] -->
<g id="node2" class="node">
<title>[&#39;public.&#39;, &#39;AddressCredentialRelation&#39;]</title>
<polygon fill="#b2dfee" stroke="transparent" points="406,-555 406,-583 860,-583 860,-555 406,-555"/>
<polygon fill="none" stroke="black" points="406,-555 406,-583 860,-583 860,-555 406,-555"/>
<text text-anchor="start" x="409" y="-564" font-family="Times,serif" font-weight="bold" font-size="20.00"> [&#39;public.&#39;, &#39;AddressCredentialRelation&#39;] </text>
<polygon fill="#f5f5f5" stroke="transparent" points="406,-534 406,-555 616,-555 616,-534 406,-534"/>
<polygon fill="none" stroke="black" points="406,-534 406,-555 616,-555 616,-534 406,-534"/>
<text text-anchor="start" x="409" y="-540.8" font-family="Times,serif" font-weight="bold" font-size="14.00"> address_id </text>
<polygon fill="none" stroke="black" points="616,-534 616,-555 860,-555 860,-534 616,-534"/>
<text text-anchor="start" x="619" y="-540.8" font-family="Times,serif" font-size="14.00" fill="#535353"> bigint NOT NULL </text>
<polygon fill="#f5f5f5" stroke="transparent" points="406,-513 406,-534 616,-534 616,-513 406,-513"/>
<polygon fill="none" stroke="black" points="406,-513 406,-534 616,-534 616,-513 406,-513"/>
<text text-anchor="start" x="409" y="-519.8" font-family="Times,serif" font-weight="bold" font-size="14.00"> credential_id </text>
<polygon fill="none" stroke="black" points="616,-513 616,-534 860,-534 860,-513 616,-513"/>
<text text-anchor="start" x="619" y="-519.8" font-family="Times,serif" font-size="14.00" fill="#535353"> bigint NOT NULL </text>
<polygon fill="#f5f5f5" stroke="transparent" points="406,-492 406,-513 616,-513 616,-492 406,-492"/>
<polygon fill="none" stroke="black" points="406,-492 406,-513 616,-513 616,-492 406,-492"/>
<text text-anchor="start" x="409" y="-498.8" font-family="Times,serif" font-weight="bold" font-size="14.00"> relation </text>
<polygon fill="none" stroke="black" points="616,-492 616,-513 860,-513 860,-492 616,-492"/>
<text text-anchor="start" x="619" y="-498.8" font-family="Times,serif" font-size="14.00" fill="#535353"> integer NOT NULL </text>
</g>
<!-- [&#39;public.&#39;, &#39;AddressCredentialRelation&#39;]&#45;&gt;[&#39;public.&#39;, &#39;Address&#39;] -->
<g id="edge1" class="edge">
<title>[&#39;public.&#39;, &#39;AddressCredentialRelation&#39;]:address_id_right&#45;&gt;[&#39;public.&#39;, &#39;Address&#39;]:id</title>
<path fill="none" stroke="black" d="M861,-545C912.37,-545 902.23,-475.27 945.43,-466.01"/>
<polygon fill="black" stroke="black" points="945.9,-469.48 955.5,-465 945.2,-462.52 945.9,-469.48"/>
</g>
<!-- [&#39;public.&#39;, &#39;StakeCredential&#39;] -->
<g id="node4" class="node">
<title>[&#39;public.&#39;, &#39;StakeCredential&#39;]</title>
<polygon fill="#b2dfee" stroke="transparent" points="912.5,-290 912.5,-318 1245.5,-318 1245.5,-290 912.5,-290"/>
<polygon fill="none" stroke="black" points="912.5,-290 912.5,-318 1245.5,-318 1245.5,-290 912.5,-290"/>
<text text-anchor="start" x="915.5" y="-299" font-family="Times,serif" font-weight="bold" font-size="20.00"> [&#39;public.&#39;, &#39;StakeCredential&#39;] </text>
<polygon fill="#f5f5f5" stroke="transparent" points="912.5,-269 912.5,-290 1056.5,-290 1056.5,-269 912.5,-269"/>
<polygon fill="none" stroke="black" points="912.5,-269 912.5,-290 1056.5,-290 1056.5,-269 912.5,-269"/>
<text text-anchor="start" x="915.5" y="-275.8" font-family="Times,serif" font-weight="bold" font-size="14.00"> id </text>
<polygon fill="none" stroke="black" points="1056.5,-269 1056.5,-290 1245.5,-290 1245.5,-269 1056.5,-269"/>
<text text-anchor="start" x="1059.5" y="-275.8" font-family="Times,serif" font-size="14.00" fill="#535353"> bigint NOT NULL </text>
<polygon fill="#f5f5f5" stroke="transparent" points="912.5,-248 912.5,-269 1056.5,-269 1056.5,-248 912.5,-248"/>
<polygon fill="none" stroke="black" points="912.5,-248 912.5,-269 1056.5,-269 1056.5,-248 912.5,-248"/>
<text text-anchor="start" x="915.5" y="-254.8" font-family="Times,serif" font-weight="bold" font-size="14.00"> credential </text>
<polygon fill="none" stroke="black" points="1056.5,-248 1056.5,-269 1245.5,-269 1245.5,-248 1056.5,-248"/>
<text text-anchor="start" x="1059.5" y="-254.8" font-family="Times,serif" font-size="14.00" fill="#535353"> bytea NOT NULL </text>
</g>
<!-- [&#39;public.&#39;, &#39;AddressCredentialRelation&#39;]&#45;&gt;[&#39;public.&#39;, &#39;StakeCredential&#39;] -->
<g id="edge2" class="edge">
<title>[&#39;public.&#39;, &#39;AddressCredentialRelation&#39;]:credential_id_right&#45;&gt;[&#39;public.&#39;, &#39;StakeCredential&#39;]:id</title>
<path fill="none" stroke="black" d="M861,-523C968.07,-523 811.8,-294.93 901.38,-279.79"/>
<polygon fill="black" stroke="black" points="901.8,-283.27 911.5,-279 901.26,-276.29 901.8,-283.27"/>
</g>
<!-- [&#39;public.&#39;, &#39;Block&#39;] -->
<g id="node3" class="node">
<title>[&#39;public.&#39;, &#39;Block&#39;]</title>
<polygon fill="#b2dfee" stroke="transparent" points="1297,-130 1297,-158 1515,-158 1515,-130 1297,-130"/>
<polygon fill="none" stroke="black" points="1297,-130 1297,-158 1515,-158 1515,-130 1297,-130"/>
<text text-anchor="start" x="1300.5" y="-139" font-family="Times,serif" font-weight="bold" font-size="20.00"> [&#39;public.&#39;, &#39;Block&#39;] </text>
<polygon fill="#f5f5f5" stroke="transparent" points="1297,-109 1297,-130 1364,-130 1364,-109 1297,-109"/>
<polygon fill="none" stroke="black" points="1297,-109 1297,-130 1364,-130 1364,-109 1297,-109"/>
<text text-anchor="start" x="1300" y="-115.8" font-family="Times,serif" font-weight="bold" font-size="14.00"> id </text>
<polygon fill="none" stroke="black" points="1364,-109 1364,-130 1515,-130 1515,-109 1364,-109"/>
<text text-anchor="start" x="1367" y="-115.8" font-family="Times,serif" font-size="14.00" fill="#535353"> integer NOT NULL </text>
<polygon fill="#f5f5f5" stroke="transparent" points="1297,-88 1297,-109 1364,-109 1364,-88 1297,-88"/>
<polygon fill="none" stroke="black" points="1297,-88 1297,-109 1364,-109 1364,-88 1297,-88"/>
<text text-anchor="start" x="1300" y="-94.8" font-family="Times,serif" font-weight="bold" font-size="14.00"> era </text>
<polygon fill="none" stroke="black" points="1364,-88 1364,-109 1515,-109 1515,-88 1364,-88"/>
<text text-anchor="start" x="1367" y="-94.8" font-family="Times,serif" font-size="14.00" fill="#535353"> integer NOT NULL </text>
<polygon fill="#f5f5f5" stroke="transparent" points="1297,-67 1297,-88 1364,-88 1364,-67 1297,-67"/>
<polygon fill="none" stroke="black" points="1297,-67 1297,-88 1364,-88 1364,-67 1297,-67"/>
<text text-anchor="start" x="1300" y="-73.8" font-family="Times,serif" font-weight="bold" font-size="14.00"> hash </text>
<polygon fill="none" stroke="black" points="1364,-67 1364,-88 1515,-88 1515,-67 1364,-67"/>
<text text-anchor="start" x="1367" y="-73.8" font-family="Times,serif" font-size="14.00" fill="#535353"> bytea NOT NULL </text>
<polygon fill="#f5f5f5" stroke="transparent" points="1297,-46 1297,-67 1364,-67 1364,-46 1297,-46"/>
<polygon fill="none" stroke="black" points="1297,-46 1297,-67 1364,-67 1364,-46 1297,-46"/>
<text text-anchor="start" x="1300" y="-52.8" font-family="Times,serif" font-weight="bold" font-size="14.00"> height </text>
<polygon fill="none" stroke="black" points="1364,-46 1364,-67 1515,-67 1515,-46 1364,-46"/>
<text text-anchor="start" x="1367" y="-52.8" font-family="Times,serif" font-size="14.00" fill="#535353"> integer NOT NULL </text>
<polygon fill="#f5f5f5" stroke="transparent" points="1297,-25 1297,-46 1364,-46 1364,-25 1297,-25"/>
<polygon fill="none" stroke="black" points="1297,-25 1297,-46 1364,-46 1364,-25 1297,-25"/>
<text text-anchor="start" x="1300" y="-31.8" font-family="Times,serif" font-weight="bold" font-size="14.00"> epoch </text>
<polygon fill="none" stroke="black" points="1364,-25 1364,-46 1515,-46 1515,-25 1364,-25"/>
<text text-anchor="start" x="1367" y="-31.8" font-family="Times,serif" font-size="14.00" fill="#535353"> integer NOT NULL </text>
<polygon fill="#f5f5f5" stroke="transparent" points="1297,-4 1297,-25 1364,-25 1364,-4 1297,-4"/>
<polygon fill="none" stroke="black" points="1297,-4 1297,-25 1364,-25 1364,-4 1297,-4"/>
<text text-anchor="start" x="1300" y="-10.8" font-family="Times,serif" font-weight="bold" font-size="14.00"> slot </text>
<polygon fill="none" stroke="black" points="1364,-4 1364,-25 1515,-25 1515,-4 1364,-4"/>
<text text-anchor="start" x="1367" y="-10.8" font-family="Times,serif" font-size="14.00" fill="#535353"> integer NOT NULL </text>
</g>
<!-- [&#39;public.&#39;, &#39;Transaction&#39;] -->
<g id="node5" class="node">
<title>[&#39;public.&#39;, &#39;Transaction&#39;]</title>
<polygon fill="#b2dfee" stroke="transparent" points="936.5,-173 936.5,-201 1221.5,-201 1221.5,-173 936.5,-173"/>
<polygon fill="none" stroke="black" points="936.5,-173 936.5,-201 1221.5,-201 1221.5,-173 936.5,-173"/>
<text text-anchor="start" x="939.5" y="-182" font-family="Times,serif" font-weight="bold" font-size="20.00"> [&#39;public.&#39;, &#39;Transaction&#39;] </text>
<polygon fill="#f5f5f5" stroke="transparent" points="936.5,-152 936.5,-173 1041.5,-173 1041.5,-152 936.5,-152"/>
<polygon fill="none" stroke="black" points="936.5,-152 936.5,-173 1041.5,-173 1041.5,-152 936.5,-152"/>
<text text-anchor="start" x="939.5" y="-158.8" font-family="Times,serif" font-weight="bold" font-size="14.00"> id </text>
<polygon fill="none" stroke="black" points="1041.5,-152 1041.5,-173 1221.5,-173 1221.5,-152 1041.5,-152"/>
<text text-anchor="start" x="1044.5" y="-158.8" font-family="Times,serif" font-size="14.00" fill="#535353"> bigint NOT NULL </text>
<polygon fill="#f5f5f5" stroke="transparent" points="936.5,-131 936.5,-152 1041.5,-152 1041.5,-131 936.5,-131"/>
<polygon fill="none" stroke="black" points="936.5,-131 936.5,-152 1041.5,-152 1041.5,-131 936.5,-131"/>
<text text-anchor="start" x="939.5" y="-137.8" font-family="Times,serif" font-weight="bold" font-size="14.00"> hash </text>
<polygon fill="none" stroke="black" points="1041.5,-131 1041.5,-152 1221.5,-152 1221.5,-131 1041.5,-131"/>
<text text-anchor="start" x="1044.5" y="-137.8" font-family="Times,serif" font-size="14.00" fill="#535353"> bytea NOT NULL </text>
<polygon fill="#f5f5f5" stroke="transparent" points="936.5,-110 936.5,-131 1041.5,-131 1041.5,-110 936.5,-110"/>
<polygon fill="none" stroke="black" points="936.5,-110 936.5,-131 1041.5,-131 1041.5,-110 936.5,-110"/>
<text text-anchor="start" x="939.5" y="-116.8" font-family="Times,serif" font-weight="bold" font-size="14.00"> block_id </text>
<polygon fill="none" stroke="black" points="1041.5,-110 1041.5,-131 1221.5,-131 1221.5,-110 1041.5,-110"/>
<text text-anchor="start" x="1044.5" y="-116.8" font-family="Times,serif" font-size="14.00" fill="#535353"> integer NOT NULL </text>
<polygon fill="#f5f5f5" stroke="transparent" points="936.5,-89 936.5,-110 1041.5,-110 1041.5,-89 936.5,-89"/>
<polygon fill="none" stroke="black" points="936.5,-89 936.5,-110 1041.5,-110 1041.5,-89 936.5,-89"/>
<text text-anchor="start" x="939.5" y="-95.8" font-family="Times,serif" font-weight="bold" font-size="14.00"> tx_index </text>
<polygon fill="none" stroke="black" points="1041.5,-89 1041.5,-110 1221.5,-110 1221.5,-89 1041.5,-89"/>
<text text-anchor="start" x="1044.5" y="-95.8" font-family="Times,serif" font-size="14.00" fill="#535353"> integer NOT NULL </text>
<polygon fill="#f5f5f5" stroke="transparent" points="936.5,-68 936.5,-89 1041.5,-89 1041.5,-68 936.5,-68"/>
<polygon fill="none" stroke="black" points="936.5,-68 936.5,-89 1041.5,-89 1041.5,-68 936.5,-68"/>
<text text-anchor="start" x="939.5" y="-74.8" font-family="Times,serif" font-weight="bold" font-size="14.00"> payload </text>
<polygon fill="none" stroke="black" points="1041.5,-68 1041.5,-89 1221.5,-89 1221.5,-68 1041.5,-68"/>
<text text-anchor="start" x="1044.5" y="-74.8" font-family="Times,serif" font-size="14.00" fill="#535353"> bytea NOT NULL </text>
<polygon fill="#f5f5f5" stroke="transparent" points="936.5,-47 936.5,-68 1041.5,-68 1041.5,-47 936.5,-47"/>
<polygon fill="none" stroke="black" points="936.5,-47 936.5,-68 1041.5,-68 1041.5,-47 936.5,-47"/>
<text text-anchor="start" x="939.5" y="-53.8" font-family="Times,serif" font-weight="bold" font-size="14.00"> is_valid </text>
<polygon fill="none" stroke="black" points="1041.5,-47 1041.5,-68 1221.5,-68 1221.5,-47 1041.5,-47"/>
<text text-anchor="start" x="1044.5" y="-53.8" font-family="Times,serif" font-size="14.00" fill="#535353"> boolean NOT NULL </text>
</g>
<!-- [&#39;public.&#39;, &#39;Transaction&#39;]&#45;&gt;[&#39;public.&#39;, &#39;Block&#39;] -->
<g id="edge4" class="edge">
<title>[&#39;public.&#39;, &#39;Transaction&#39;]:block_id_right&#45;&gt;[&#39;public.&#39;, &#39;Block&#39;]:id</title>
<path fill="none" stroke="black" d="M1222.5,-120C1251.47,-120 1261.17,-120 1285.77,-120"/>
<polygon fill="black" stroke="black" points="1286,-123.5 1296,-120 1286,-116.5 1286,-123.5"/>
</g>
<!-- [&#39;public.&#39;, &#39;TransactionInput&#39;] -->
<g id="node6" class="node">
<title>[&#39;public.&#39;, &#39;TransactionInput&#39;]</title>
<polygon fill="#b2dfee" stroke="transparent" points="8,-290 8,-318 354,-318 354,-290 8,-290"/>
<polygon fill="none" stroke="black" points="8,-290 8,-318 354,-318 354,-290 8,-290"/>
<text text-anchor="start" x="11" y="-299" font-family="Times,serif" font-weight="bold" font-size="20.00"> [&#39;public.&#39;, &#39;TransactionInput&#39;] </text>
<polygon fill="#f5f5f5" stroke="transparent" points="8,-269 8,-290 159,-290 159,-269 8,-269"/>
<polygon fill="none" stroke="black" points="8,-269 8,-290 159,-290 159,-269 8,-269"/>
<text text-anchor="start" x="11" y="-275.8" font-family="Times,serif" font-weight="bold" font-size="14.00"> id </text>
<polygon fill="none" stroke="black" points="159,-269 159,-290 354,-290 354,-269 159,-269"/>
<text text-anchor="start" x="162" y="-275.8" font-family="Times,serif" font-size="14.00" fill="#535353"> bigint NOT NULL </text>
<polygon fill="#f5f5f5" stroke="transparent" points="8,-248 8,-269 159,-269 159,-248 8,-248"/>
<polygon fill="none" stroke="black" points="8,-248 8,-269 159,-269 159,-248 8,-248"/>
<text text-anchor="start" x="11" y="-254.8" font-family="Times,serif" font-weight="bold" font-size="14.00"> utxo_id </text>
<polygon fill="none" stroke="black" points="159,-248 159,-269 354,-269 354,-248 159,-248"/>
<text text-anchor="start" x="162" y="-254.8" font-family="Times,serif" font-size="14.00" fill="#535353"> bigint NOT NULL </text>
<polygon fill="#f5f5f5" stroke="transparent" points="8,-227 8,-248 159,-248 159,-227 8,-227"/>
<polygon fill="none" stroke="black" points="8,-227 8,-248 159,-248 159,-227 8,-227"/>
<text text-anchor="start" x="11" y="-233.8" font-family="Times,serif" font-weight="bold" font-size="14.00"> tx_id </text>
<polygon fill="none" stroke="black" points="159,-227 159,-248 354,-248 354,-227 159,-227"/>
<text text-anchor="start" x="162" y="-233.8" font-family="Times,serif" font-size="14.00" fill="#535353"> bigint NOT NULL </text>
<polygon fill="#f5f5f5" stroke="transparent" points="8,-206 8,-227 159,-227 159,-206 8,-206"/>
<polygon fill="none" stroke="black" points="8,-206 8,-227 159,-227 159,-206 8,-206"/>
<text text-anchor="start" x="11" y="-212.8" font-family="Times,serif" font-weight="bold" font-size="14.00"> input_index </text>
<polygon fill="none" stroke="black" points="159,-206 159,-227 354,-227 354,-206 159,-206"/>
<text text-anchor="start" x="162" y="-212.8" font-family="Times,serif" font-size="14.00" fill="#535353"> integer NOT NULL </text>
</g>
<!-- [&#39;public.&#39;, &#39;TransactionInput&#39;]&#45;&gt;[&#39;public.&#39;, &#39;Transaction&#39;] -->
<g id="edge5" class="edge">
<title>[&#39;public.&#39;, &#39;TransactionInput&#39;]:tx_id_right&#45;&gt;[&#39;public.&#39;, &#39;Transaction&#39;]:id</title>
<path fill="none" stroke="black" d="M355,-237C424.78,-237 342.31,-128.05 398,-86 564.71,39.86 677.74,0.23 868,-86 906.05,-103.25 892.77,-153.71 925.54,-161.88"/>
<polygon fill="black" stroke="black" points="925.17,-165.36 935.5,-163 925.95,-158.4 925.17,-165.36"/>
</g>
<!-- [&#39;public.&#39;, &#39;TransactionOutput&#39;] -->
<g id="node8" class="node">
<title>[&#39;public.&#39;, &#39;TransactionOutput&#39;]</title>
<polygon fill="#b2dfee" stroke="transparent" points="452,-438 452,-466 815,-466 815,-438 452,-438"/>
<polygon fill="none" stroke="black" points="452,-438 452,-466 815,-466 815,-438 452,-438"/>
<text text-anchor="start" x="455" y="-447" font-family="Times,serif" font-weight="bold" font-size="20.00"> [&#39;public.&#39;, &#39;TransactionOutput&#39;] </text>
<polygon fill="#f5f5f5" stroke="transparent" points="452,-417 452,-438 617,-438 617,-417 452,-417"/>
<polygon fill="none" stroke="black" points="452,-417 452,-438 617,-438 617,-417 452,-417"/>
<text text-anchor="start" x="455" y="-423.8" font-family="Times,serif" font-weight="bold" font-size="14.00"> id </text>
<polygon fill="none" stroke="black" points="617,-417 617,-438 815,-438 815,-417 617,-417"/>
<text text-anchor="start" x="620" y="-423.8" font-family="Times,serif" font-size="14.00" fill="#535353"> bigint NOT NULL </text>
<polygon fill="#f5f5f5" stroke="transparent" points="452,-396 452,-417 617,-417 617,-396 452,-396"/>
<polygon fill="none" stroke="black" points="452,-396 452,-417 617,-417 617,-396 452,-396"/>
<text text-anchor="start" x="455" y="-402.8" font-family="Times,serif" font-weight="bold" font-size="14.00"> payload </text>
<polygon fill="none" stroke="black" points="617,-396 617,-417 815,-417 815,-396 617,-396"/>
<text text-anchor="start" x="620" y="-402.8" font-family="Times,serif" font-size="14.00" fill="#535353"> bytea NOT NULL </text>
<polygon fill="#f5f5f5" stroke="transparent" points="452,-375 452,-396 617,-396 617,-375 452,-375"/>
<polygon fill="none" stroke="black" points="452,-375 452,-396 617,-396 617,-375 452,-375"/>
<text text-anchor="start" x="455" y="-381.8" font-family="Times,serif" font-weight="bold" font-size="14.00"> address_id </text>
<polygon fill="none" stroke="black" points="617,-375 617,-396 815,-396 815,-375 617,-375"/>
<text text-anchor="start" x="620" y="-381.8" font-family="Times,serif" font-size="14.00" fill="#535353"> bigint NOT NULL </text>
<polygon fill="#f5f5f5" stroke="transparent" points="452,-354 452,-375 617,-375 617,-354 452,-354"/>
<polygon fill="none" stroke="black" points="452,-354 452,-375 617,-375 617,-354 452,-354"/>
<text text-anchor="start" x="455" y="-360.8" font-family="Times,serif" font-weight="bold" font-size="14.00"> tx_id </text>
<polygon fill="none" stroke="black" points="617,-354 617,-375 815,-375 815,-354 617,-354"/>
<text text-anchor="start" x="620" y="-360.8" font-family="Times,serif" font-size="14.00" fill="#535353"> bigint NOT NULL </text>
<polygon fill="#f5f5f5" stroke="transparent" points="452,-333 452,-354 617,-354 617,-333 452,-333"/>
<polygon fill="none" stroke="black" points="452,-333 452,-354 617,-354 617,-333 452,-333"/>
<text text-anchor="start" x="455" y="-339.8" font-family="Times,serif" font-weight="bold" font-size="14.00"> output_index </text>
<polygon fill="none" stroke="black" points="617,-333 617,-354 815,-354 815,-333 617,-333"/>
<text text-anchor="start" x="620" y="-339.8" font-family="Times,serif" font-size="14.00" fill="#535353"> integer NOT NULL </text>
</g>
<!-- [&#39;public.&#39;, &#39;TransactionInput&#39;]&#45;&gt;[&#39;public.&#39;, &#39;TransactionOutput&#39;] -->
<g id="edge6" class="edge">
<title>[&#39;public.&#39;, &#39;TransactionInput&#39;]:utxo_id_right&#45;&gt;[&#39;public.&#39;, &#39;TransactionOutput&#39;]:id</title>
<path fill="none" stroke="black" d="M355,-258C395,-258 405.96,-402.48 441.42,-425.05"/>
<polygon fill="black" stroke="black" points="440.41,-428.4 451,-428 442.47,-421.71 440.41,-428.4"/>
</g>
<!-- [&#39;public.&#39;, &#39;TransactionMetadata&#39;] -->
<g id="node7" class="node">
<title>[&#39;public.&#39;, &#39;TransactionMetadata&#39;]</title>
<polygon fill="#b2dfee" stroke="transparent" points="438,-162 438,-190 829,-190 829,-162 438,-162"/>
<polygon fill="none" stroke="black" points="438,-162 438,-190 829,-190 829,-162 438,-162"/>
<text text-anchor="start" x="441" y="-171" font-family="Times,serif" font-weight="bold" font-size="20.00"> [&#39;public.&#39;, &#39;TransactionMetadata&#39;] </text>
<polygon fill="#f5f5f5" stroke="transparent" points="438,-141 438,-162 601,-162 601,-141 438,-141"/>
<polygon fill="none" stroke="black" points="438,-141 438,-162 601,-162 601,-141 438,-141"/>
<text text-anchor="start" x="441" y="-147.8" font-family="Times,serif" font-weight="bold" font-size="14.00"> tx_id </text>
<polygon fill="none" stroke="black" points="601,-141 601,-162 829,-162 829,-141 601,-141"/>
<text text-anchor="start" x="604" y="-147.8" font-family="Times,serif" font-size="14.00" fill="#535353"> bigint NOT NULL </text>
<polygon fill="#f5f5f5" stroke="transparent" points="438,-120 438,-141 601,-141 601,-120 438,-120"/>
<polygon fill="none" stroke="black" points="438,-120 438,-141 601,-141 601,-120 438,-120"/>
<text text-anchor="start" x="441" y="-126.8" font-family="Times,serif" font-weight="bold" font-size="14.00"> label </text>
<polygon fill="none" stroke="black" points="601,-120 601,-141 829,-141 829,-120 601,-120"/>
<text text-anchor="start" x="604" y="-126.8" font-family="Times,serif" font-size="14.00" fill="#535353"> bytea NOT NULL </text>
<polygon fill="#f5f5f5" stroke="transparent" points="438,-99 438,-120 601,-120 601,-99 438,-99"/>
<polygon fill="none" stroke="black" points="438,-99 438,-120 601,-120 601,-99 438,-99"/>
<text text-anchor="start" x="441" y="-105.8" font-family="Times,serif" font-weight="bold" font-size="14.00"> payload </text>
<polygon fill="none" stroke="black" points="601,-99 601,-120 829,-120 829,-99 601,-99"/>
<text text-anchor="start" x="604" y="-105.8" font-family="Times,serif" font-size="14.00" fill="#535353"> bytea NOT NULL </text>
</g>
<!-- [&#39;public.&#39;, &#39;TransactionMetadata&#39;]&#45;&gt;[&#39;public.&#39;, &#39;Transaction&#39;] -->
<g id="edge3" class="edge">
<title>[&#39;public.&#39;, &#39;TransactionMetadata&#39;]:tx_id_right&#45;&gt;[&#39;public.&#39;, &#39;Transaction&#39;]:id</title>
<path fill="none" stroke="black" d="M830,-152C873.46,-152 886.39,-161.35 925.07,-162.81"/>
<polygon fill="black" stroke="black" points="925.44,-166.32 935.5,-163 925.57,-159.32 925.44,-166.32"/>
</g>
<!-- [&#39;public.&#39;, &#39;TransactionOutput&#39;]&#45;&gt;[&#39;public.&#39;, &#39;Address&#39;] -->
<g id="edge7" class="edge">
<title>[&#39;public.&#39;, &#39;TransactionOutput&#39;]:address_id_right&#45;&gt;[&#39;public.&#39;, &#39;Address&#39;]:id</title>
<path fill="none" stroke="black" d="M816,-385C883.84,-385 884.18,-457.08 945.17,-464.4"/>
<polygon fill="black" stroke="black" points="945.31,-467.92 955.5,-465 945.72,-460.93 945.31,-467.92"/>
</g>
<!-- [&#39;public.&#39;, &#39;TransactionOutput&#39;]&#45;&gt;[&#39;public.&#39;, &#39;Transaction&#39;] -->
<g id="edge8" class="edge">
<title>[&#39;public.&#39;, &#39;TransactionOutput&#39;]:tx_id_right&#45;&gt;[&#39;public.&#39;, &#39;Transaction&#39;]:id</title>
<path fill="none" stroke="black" d="M816,-364C845.99,-364 850.14,-345.09 868,-321 911.27,-262.66 864.21,-172.36 925.22,-163.68"/>
<polygon fill="black" stroke="black" points="925.75,-167.15 935.5,-163 925.29,-160.16 925.75,-167.15"/>
</g>
<!-- [&#39;public.&#39;, &#39;TxCredentialRelation&#39;] -->
<g id="node9" class="node">
<title>[&#39;public.&#39;, &#39;TxCredentialRelation&#39;]</title>
<polygon fill="#b2dfee" stroke="transparent" points="438,-279 438,-307 829,-307 829,-279 438,-279"/>
<polygon fill="none" stroke="black" points="438,-279 438,-307 829,-307 829,-279 438,-279"/>
<text text-anchor="start" x="441" y="-288" font-family="Times,serif" font-weight="bold" font-size="20.00"> [&#39;public.&#39;, &#39;TxCredentialRelation&#39;] </text>
<polygon fill="#f5f5f5" stroke="transparent" points="438,-258 438,-279 617,-279 617,-258 438,-258"/>
<polygon fill="none" stroke="black" points="438,-258 438,-279 617,-279 617,-258 438,-258"/>
<text text-anchor="start" x="441" y="-264.8" font-family="Times,serif" font-weight="bold" font-size="14.00"> credential_id </text>
<polygon fill="none" stroke="black" points="617,-258 617,-279 829,-279 829,-258 617,-258"/>
<text text-anchor="start" x="620" y="-264.8" font-family="Times,serif" font-size="14.00" fill="#535353"> bigint NOT NULL </text>
<polygon fill="#f5f5f5" stroke="transparent" points="438,-237 438,-258 617,-258 617,-237 438,-237"/>
<polygon fill="none" stroke="black" points="438,-237 438,-258 617,-258 617,-237 438,-237"/>
<text text-anchor="start" x="441" y="-243.8" font-family="Times,serif" font-weight="bold" font-size="14.00"> tx_id </text>
<polygon fill="none" stroke="black" points="617,-237 617,-258 829,-258 829,-237 617,-237"/>
<text text-anchor="start" x="620" y="-243.8" font-family="Times,serif" font-size="14.00" fill="#535353"> bigint NOT NULL </text>
<polygon fill="#f5f5f5" stroke="transparent" points="438,-216 438,-237 617,-237 617,-216 438,-216"/>
<polygon fill="none" stroke="black" points="438,-216 438,-237 617,-237 617,-216 438,-216"/>
<text text-anchor="start" x="441" y="-222.8" font-family="Times,serif" font-weight="bold" font-size="14.00"> relation </text>
<polygon fill="none" stroke="black" points="617,-216 617,-237 829,-237 829,-216 617,-216"/>
<text text-anchor="start" x="620" y="-222.8" font-family="Times,serif" font-size="14.00" fill="#535353"> integer NOT NULL </text>
</g>
<!-- [&#39;public.&#39;, &#39;TxCredentialRelation&#39;]&#45;&gt;[&#39;public.&#39;, &#39;StakeCredential&#39;] -->
<g id="edge9" class="edge">
<title>[&#39;public.&#39;, &#39;TxCredentialRelation&#39;]:credential_id_right&#45;&gt;[&#39;public.&#39;, &#39;StakeCredential&#39;]:id</title>
<path fill="none" stroke="black" d="M830,-269C862.79,-269 872.99,-277.07 901.19,-278.71"/>
<polygon fill="black" stroke="black" points="901.41,-282.22 911.5,-279 901.6,-275.22 901.41,-282.22"/>
</g>
<!-- [&#39;public.&#39;, &#39;TxCredentialRelation&#39;]&#45;&gt;[&#39;public.&#39;, &#39;Transaction&#39;] -->
<g id="edge10" class="edge">
<title>[&#39;public.&#39;, &#39;TxCredentialRelation&#39;]:tx_id_right&#45;&gt;[&#39;public.&#39;, &#39;Transaction&#39;]:id</title>
<path fill="none" stroke="black" d="M830,-247C886.31,-247 877.03,-172.86 925.4,-163.89"/>
<polygon fill="black" stroke="black" points="925.84,-167.36 935.5,-163 925.23,-160.39 925.84,-167.36"/>
</g>
<!-- [&#39;public.seaql_migrations&#39;] -->
<g id="node10" class="node">
<title>[&#39;public.seaql_migrations&#39;]</title>
<polygon fill="#b2dfee" stroke="transparent" points="20,-386 20,-414 342,-414 342,-386 20,-386"/>
<polygon fill="none" stroke="black" points="20,-386 20,-414 342,-414 342,-386 20,-386"/>
<text text-anchor="start" x="25" y="-395" font-family="Times,serif" font-weight="bold" font-size="20.00"> [&#39;public.seaql_migrations&#39;] </text>
<polygon fill="#f5f5f5" stroke="transparent" points="20,-365 20,-386 116,-386 116,-365 20,-365"/>
<polygon fill="none" stroke="black" points="20,-365 20,-386 116,-386 116,-365 20,-365"/>
<text text-anchor="start" x="23" y="-371.8" font-family="Times,serif" font-weight="bold" font-size="14.00"> version </text>
<polygon fill="none" stroke="black" points="116,-365 116,-386 342,-386 342,-365 116,-365"/>
<text text-anchor="start" x="119" y="-371.8" font-family="Times,serif" font-size="14.00" fill="#535353"> character varying NOT NULL </text>
<polygon fill="#f5f5f5" stroke="transparent" points="20,-344 20,-365 116,-365 116,-344 20,-344"/>
<polygon fill="none" stroke="black" points="20,-344 20,-365 116,-365 116,-344 20,-344"/>
<text text-anchor="start" x="23" y="-350.8" font-family="Times,serif" font-weight="bold" font-size="14.00"> applied_at </text>
<polygon fill="none" stroke="black" points="116,-344 116,-365 342,-365 342,-344 116,-344"/>
<text text-anchor="start" x="119" y="-350.8" font-family="Times,serif" font-size="14.00" fill="#535353"> bigint NOT NULL </text>
</g>
</g>
</svg>
