<?xml version="1.0" encoding="UTF-8" standalone="no"?>
<!DOCTYPE svg PUBLIC "-//W3C//DTD SVG 1.1//EN"
 "http://www.w3.org/Graphics/SVG/1.1/DTD/svg11.dtd">
<!-- Generated by graphviz version 2.43.0 (0)
 -->
<!-- Title: default Pages: 1 -->
<svg width="1300pt" height="531pt"
 viewBox="0.00 0.00 1300.00 531.00" xmlns="http://www.w3.org/2000/svg" xmlns:xlink="http://www.w3.org/1999/xlink">
<g id="graph0" class="graph" transform="scale(1 1) rotate(0) translate(4 527)">
<title>default</title>
<polygon fill="white" stroke="transparent" points="-4,4 -4,-527 1296,-527 1296,4 -4,4"/>
<g id="clust1" class="cluster">
<title>cluster_Genesis</title>
<polygon fill="none" stroke="#d9d9d9" points="8,-368 8,-515 214,-515 214,-368 8,-368"/>
<text text-anchor="middle" x="111" y="-499.8" font-family="Times,serif" font-size="14.00">Genesis</text>
</g>
<g id="clust2" class="cluster">
<title>cluster_Byron</title>
<polygon fill="none" stroke="#d9d9d9" points="222,-152 222,-515 414,-515 414,-152 222,-152"/>
<text text-anchor="middle" x="318" y="-499.8" font-family="Times,serif" font-size="14.00">Byron</text>
</g>
<g id="clust3" class="cluster">
<title>cluster_Multiera</title>
<polygon fill="none" stroke="#d9d9d9" points="422,-8 422,-515 1284,-515 1284,-8 422,-8"/>
<text text-anchor="middle" x="853" y="-499.8" font-family="Times,serif" font-size="14.00">Multiera</text>
</g>
<!-- N0 -->
<g id="node1" class="node">
<title>N0</title>
<polygon fill="none" stroke="black" points="183,-484 39,-484 39,-448 183,-448 183,-484"/>
<text text-anchor="middle" x="111" y="-462.3" font-family="Times,serif" font-size="14.00">GenesisBlockTask</text>
</g>
<!-- N1 -->
<g id="node2" class="node">
<title>N1</title>
<polygon fill="none" stroke="black" points="205.5,-412 16.5,-412 16.5,-376 205.5,-376 205.5,-412"/>
<text text-anchor="middle" x="111" y="-390.3" font-family="Times,serif" font-size="14.00">GenesisTransactionTask</text>
</g>
<!-- N0&#45;&gt;N1 -->
<g id="edge1" class="edge">
<title>N0&#45;&gt;N1</title>
<path fill="none" stroke="black" d="M111,-447.7C111,-439.98 111,-430.71 111,-422.11"/>
<polygon fill="black" stroke="black" points="114.5,-422.1 111,-412.1 107.5,-422.1 114.5,-422.1"/>
</g>
<!-- N2 -->
<g id="node3" class="node">
<title>N2</title>
<polygon fill="none" stroke="black" points="383.5,-484 252.5,-484 252.5,-448 383.5,-448 383.5,-484"/>
<text text-anchor="middle" x="318" y="-462.3" font-family="Times,serif" font-size="14.00">ByronBlockTask</text>
</g>
<!-- N3 -->
<g id="node4" class="node">
<title>N3</title>
<polygon fill="none" stroke="black" points="406,-412 230,-412 230,-376 406,-376 406,-412"/>
<text text-anchor="middle" x="318" y="-390.3" font-family="Times,serif" font-size="14.00">ByronTransactionTask</text>
</g>
<!-- N2&#45;&gt;N3 -->
<g id="edge2" class="edge">
<title>N2&#45;&gt;N3</title>
<path fill="none" stroke="black" d="M318,-447.7C318,-439.98 318,-430.71 318,-422.11"/>
<polygon fill="black" stroke="black" points="321.5,-422.1 318,-412.1 314.5,-422.1 321.5,-422.1"/>
</g>
<!-- N4 -->
<g id="node5" class="node">
<title>N4</title>
<polygon fill="none" stroke="black" points="392.5,-340 243.5,-340 243.5,-304 392.5,-304 392.5,-340"/>
<text text-anchor="middle" x="318" y="-318.3" font-family="Times,serif" font-size="14.00">ByronAddressTask</text>
</g>
<!-- N3&#45;&gt;N4 -->
<g id="edge3" class="edge">
<title>N3&#45;&gt;N4</title>
<path fill="none" stroke="black" d="M318,-375.7C318,-367.98 318,-358.71 318,-350.11"/>
<polygon fill="black" stroke="black" points="321.5,-350.1 318,-340.1 314.5,-350.1 321.5,-350.1"/>
</g>
<!-- N5 -->
<g id="node6" class="node">
<title>N5</title>
<polygon fill="none" stroke="black" points="389,-268 247,-268 247,-232 389,-232 389,-268"/>
<text text-anchor="middle" x="318" y="-246.3" font-family="Times,serif" font-size="14.00">ByronOutputTask</text>
</g>
<!-- N4&#45;&gt;N5 -->
<g id="edge4" class="edge">
<title>N4&#45;&gt;N5</title>
<path fill="none" stroke="black" d="M318,-303.7C318,-295.98 318,-286.71 318,-278.11"/>
<polygon fill="black" stroke="black" points="321.5,-278.1 318,-268.1 314.5,-278.1 321.5,-278.1"/>
</g>
<!-- N6 -->
<g id="node7" class="node">
<title>N6</title>
<polygon fill="none" stroke="black" points="383,-196 253,-196 253,-160 383,-160 383,-196"/>
<text text-anchor="middle" x="318" y="-174.3" font-family="Times,serif" font-size="14.00">ByronInputTask</text>
</g>
<!-- N5&#45;&gt;N6 -->
<g id="edge5" class="edge">
<title>N5&#45;&gt;N6</title>
<path fill="none" stroke="black" d="M318,-231.7C318,-223.98 318,-214.71 318,-206.11"/>
<polygon fill="black" stroke="black" points="321.5,-206.1 318,-196.1 314.5,-206.1 321.5,-206.1"/>
</g>
<!-- N7 -->
<g id="node8" class="node">
<title>N7</title>
<polygon fill="none" stroke="black" points="800.5,-484 651.5,-484 651.5,-448 800.5,-448 800.5,-484"/>
<text text-anchor="middle" x="726" y="-462.3" font-family="Times,serif" font-size="14.00">MultieraBlockTask</text>
</g>
<!-- N8 -->
<g id="node9" class="node">
<title>N8</title>
<polygon fill="none" stroke="black" points="823,-412 629,-412 629,-376 823,-376 823,-412"/>
<text text-anchor="middle" x="726" y="-390.3" font-family="Times,serif" font-size="14.00">MultieraTransactionTask</text>
</g>
<!-- N7&#45;&gt;N8 -->
<g id="edge6" class="edge">
<title>N7&#45;&gt;N8</title>
<path fill="none" stroke="black" d="M726,-447.7C726,-439.98 726,-430.71 726,-422.11"/>
<polygon fill="black" stroke="black" points="729.5,-422.1 726,-412.1 722.5,-422.1 729.5,-422.1"/>
</g>
<!-- N9 -->
<g id="node10" class="node">
<title>N9</title>
<polygon fill="none" stroke="black" points="815.5,-340 636.5,-340 636.5,-304 815.5,-304 815.5,-340"/>
<text text-anchor="middle" x="726" y="-318.3" font-family="Times,serif" font-size="14.00">MultieraMetadataTask</text>
</g>
<!-- N8&#45;&gt;N9 -->
<g id="edge7" class="edge">
<title>N8&#45;&gt;N9</title>
<path fill="none" stroke="black" d="M726,-375.7C726,-367.98 726,-358.71 726,-350.11"/>
<polygon fill="black" stroke="black" points="729.5,-350.1 726,-340.1 722.5,-350.1 729.5,-350.1"/>
</g>
<!-- N10 -->
<g id="node11" class="node">
<title>N10</title>
<polygon fill="none" stroke="black" points="1006,-340 838,-340 838,-304 1006,-304 1006,-340"/>
<text text-anchor="middle" x="922" y="-318.3" font-family="Times,serif" font-size="14.00">MultieraAddressTask</text>
</g>
<!-- N8&#45;&gt;N10 -->
<g id="edge8" class="edge">
<title>N8&#45;&gt;N10</title>
<path fill="none" stroke="black" d="M773.7,-375.97C801.08,-366.19 835.66,-353.84 864.53,-343.52"/>
<polygon fill="black" stroke="black" points="865.85,-346.77 874.09,-340.11 863.5,-340.18 865.85,-346.77"/>
</g>
<!-- N18 -->
<g id="node19" class="node">
<title>N18</title>
<polygon fill="none" stroke="black" points="618.5,-340 435.5,-340 435.5,-304 618.5,-304 618.5,-340"/>
<text text-anchor="middle" x="527" y="-318.3" font-family="Times,serif" font-size="14.00">MultieraAssetMintTask</text>
</g>
<!-- N8&#45;&gt;N18 -->
<g id="edge19" class="edge">
<title>N8&#45;&gt;N18</title>
<path fill="none" stroke="black" d="M677.57,-375.97C649.77,-366.19 614.66,-353.84 585.35,-343.52"/>
<polygon fill="black" stroke="black" points="586.24,-340.13 575.64,-340.11 583.92,-346.73 586.24,-340.13"/>
</g>
<!-- N19 -->
<g id="node20" class="node">
<title>N19</title>
<polygon fill="none" stroke="black" points="623.5,-268 430.5,-268 430.5,-232 623.5,-232 623.5,-268"/>
<text text-anchor="middle" x="527" y="-246.3" font-family="Times,serif" font-size="14.00">MultieraCip25EntryTask</text>
</g>
<!-- N9&#45;&gt;N19 -->
<g id="edge20" class="edge">
<title>N9&#45;&gt;N19</title>
<path fill="none" stroke="black" d="M677.57,-303.97C649.77,-294.19 614.66,-281.84 585.35,-271.52"/>
<polygon fill="black" stroke="black" points="586.24,-268.13 575.64,-268.11 583.92,-274.73 586.24,-268.13"/>
</g>
<!-- N11 -->
<g id="node12" class="node">
<title>N11</title>
<polygon fill="none" stroke="black" points="1005.5,-268 844.5,-268 844.5,-232 1005.5,-232 1005.5,-268"/>
<text text-anchor="middle" x="925" y="-246.3" font-family="Times,serif" font-size="14.00">MultieraOutputTask</text>
</g>
<!-- N10&#45;&gt;N11 -->
<g id="edge9" class="edge">
<title>N10&#45;&gt;N11</title>
<path fill="none" stroke="black" d="M922.74,-303.7C923.07,-295.98 923.47,-286.71 923.84,-278.11"/>
<polygon fill="black" stroke="black" points="927.34,-278.25 924.27,-268.1 920.34,-277.95 927.34,-278.25"/>
</g>
<!-- N16 -->
<g id="node17" class="node">
<title>N16</title>
<polygon fill="none" stroke="black" points="732,-52 430,-52 430,-16 732,-16 732,-52"/>
<text text-anchor="middle" x="581" y="-30.3" font-family="Times,serif" font-size="14.00">MultieraAddressCredentialRelationTask</text>
</g>
<!-- N10&#45;&gt;N16 -->
<g id="edge15" class="edge">
<title>N10&#45;&gt;N16</title>
<path fill="none" stroke="black" d="M851.89,-303.91C764.8,-281.17 623.76,-238.8 592,-196 562.95,-156.85 568.31,-96.54 574.72,-61.92"/>
<polygon fill="black" stroke="black" points="578.16,-62.55 576.71,-52.06 571.3,-61.17 578.16,-62.55"/>
</g>
<!-- N17 -->
<g id="node18" class="node">
<title>N17</title>
<polygon fill="none" stroke="black" points="1276,-52 1014,-52 1014,-16 1276,-16 1276,-52"/>
<text text-anchor="middle" x="1145" y="-30.3" font-family="Times,serif" font-size="14.00">MultieraTxCredentialRelationTask</text>
</g>
<!-- N10&#45;&gt;N17 -->
<g id="edge17" class="edge">
<title>N10&#45;&gt;N17</title>
<path fill="none" stroke="black" d="M1006.24,-315.38C1085.25,-305.11 1199.35,-276.33 1255,-196 1288.89,-147.08 1224.37,-89.44 1180.62,-58.11"/>
<polygon fill="black" stroke="black" points="1182.38,-55.07 1172.18,-52.21 1178.36,-60.81 1182.38,-55.07"/>
</g>
<!-- N12 -->
<g id="node13" class="node">
<title>N12</title>
<polygon fill="none" stroke="black" points="821.5,-196 600.5,-196 600.5,-160 821.5,-160 821.5,-196"/>
<text text-anchor="middle" x="711" y="-174.3" font-family="Times,serif" font-size="14.00">MultieraReferenceInputTask</text>
</g>
<!-- N11&#45;&gt;N12 -->
<g id="edge10" class="edge">
<title>N11&#45;&gt;N12</title>
<path fill="none" stroke="black" d="M872.92,-231.97C842.76,-222.1 804.61,-209.62 772.92,-199.25"/>
<polygon fill="black" stroke="black" points="773.9,-195.89 763.31,-196.11 771.73,-202.55 773.9,-195.89"/>
</g>
<!-- N13 -->
<g id="node14" class="node">
<title>N13</title>
<polygon fill="none" stroke="black" points="1024.5,-196 839.5,-196 839.5,-160 1024.5,-160 1024.5,-196"/>
<text text-anchor="middle" x="932" y="-174.3" font-family="Times,serif" font-size="14.00">MultieraUsedInputTask</text>
</g>
<!-- N11&#45;&gt;N13 -->
<g id="edge11" class="edge">
<title>N11&#45;&gt;N13</title>
<path fill="none" stroke="black" d="M926.73,-231.7C927.5,-223.98 928.43,-214.71 929.29,-206.11"/>
<polygon fill="black" stroke="black" points="932.78,-206.4 930.29,-196.1 925.81,-205.71 932.78,-206.4"/>
</g>
<!-- N14 -->
<g id="node15" class="node">
<title>N14</title>
<polygon fill="none" stroke="black" points="1245.5,-196 1042.5,-196 1042.5,-160 1245.5,-160 1245.5,-196"/>
<text text-anchor="middle" x="1144" y="-174.3" font-family="Times,serif" font-size="14.00">MultieraUnusedInputTask</text>
</g>
<!-- N11&#45;&gt;N14 -->
<g id="edge12" class="edge">
<title>N11&#45;&gt;N14</title>
<path fill="none" stroke="black" d="M978.29,-231.97C1009.16,-222.1 1048.2,-209.62 1080.63,-199.25"/>
<polygon fill="black" stroke="black" points="1082.01,-202.49 1090.47,-196.11 1079.88,-195.82 1082.01,-202.49"/>
</g>
<!-- N15 -->
<g id="node16" class="node">
<title>N15</title>
<polygon fill="none" stroke="black" points="1045,-124 819,-124 819,-88 1045,-88 1045,-124"/>
<text text-anchor="middle" x="932" y="-102.3" font-family="Times,serif" font-size="14.00">MultieraStakeCredentialTask</text>
</g>
<!-- N13&#45;&gt;N15 -->
<g id="edge13" class="edge">
<title>N13&#45;&gt;N15</title>
<path fill="none" stroke="black" d="M932,-159.7C932,-151.98 932,-142.71 932,-134.11"/>
<polygon fill="black" stroke="black" points="935.5,-134.1 932,-124.1 928.5,-134.1 935.5,-134.1"/>
</g>
<!-- N14&#45;&gt;N15 -->
<g id="edge14" class="edge">
<title>N14&#45;&gt;N15</title>
<path fill="none" stroke="black" d="M1092.41,-159.97C1062.53,-150.1 1024.74,-137.62 993.34,-127.25"/>
<polygon fill="black" stroke="black" points="994.41,-123.92 983.82,-124.11 992.22,-130.57 994.41,-123.92"/>
</g>
<!-- N15&#45;&gt;N16 -->
<g id="edge16" class="edge">
<title>N15&#45;&gt;N16</title>
<path fill="none" stroke="black" d="M846.58,-87.97C795.21,-77.72 729.7,-64.66 676.6,-54.07"/>
<polygon fill="black" stroke="black" points="676.99,-50.57 666.49,-52.05 675.62,-57.44 676.99,-50.57"/>
</g>
<!-- N15&#45;&gt;N17 -->
<g id="edge18" class="edge">
<title>N15&#45;&gt;N17</title>
<path fill="none" stroke="black" d="M983.83,-87.97C1013.85,-78.1 1051.82,-65.62 1083.37,-55.25"/>
<polygon fill="black" stroke="black" points="1084.53,-58.56 1092.93,-52.11 1082.34,-51.91 1084.53,-58.56"/>
</g>
<!-- N20 -->
<g id="node21" class="node">
<title>N20</title>
<polygon fill="none" stroke="black" points="995.5,-52 750.5,-52 750.5,-16 995.5,-16 995.5,-52"/>
<text text-anchor="middle" x="873" y="-30.3" font-family="Times,serif" font-size="14.00">MultieraAddressDelegationTask</text>
</g>
<!-- N15&#45;&gt;N20 -->
<g id="edge22" class="edge">
<title>N15&#45;&gt;N20</title>
<path fill="none" stroke="black" d="M917.42,-87.7C910.34,-79.3 901.72,-69.07 893.95,-59.86"/>
<polygon fill="black" stroke="black" points="896.54,-57.49 887.42,-52.1 891.19,-62.01 896.54,-57.49"/>
</g>
<!-- N18&#45;&gt;N19 -->
<g id="edge21" class="edge">
<title>N18&#45;&gt;N19</title>
<path fill="none" stroke="black" d="M527,-303.7C527,-295.98 527,-286.71 527,-278.11"/>
<polygon fill="black" stroke="black" points="530.5,-278.1 527,-268.1 523.5,-278.1 530.5,-278.1"/>
</g>
</g>
</svg>
