<svg xmlns="http://www.w3.org/2000/svg" viewBox="0 0 1878.50147 1514.45437"><g id="Layer_2" data-name="Layer 2"><g id="Layer_1-2" data-name="Layer 1"><polygon points="1652.889 493.2 1652.888 493.2 1652.888 493.201 1652.889 493.2" style="fill:#4f3e91"/><polygon points="1557.085 493.731 1557.086 493.732 1557.087 493.731 1557.085 493.731" style="fill:#4f3e91"/><path d="M1584.99967,536.9738l88.3696-.45776,144.642-.82414-.45776-86.81271-144.642.7783,60.39338-131.40916L1693.836,300.11648l-39.42219-18.13185-50.00043,108.7447-51.18982-108.19527-39.24,18.58961-39.23942,18.544,61.49251,129.98977.3661.77859,8.37886,17.71964,12.08846,25.54908v.04583l10.6224,22.39,5.7234,12.0879,4.1668,8.79107Z" style="fill:#042f42"/><polygon points="1656.744 704.391 1735.231 667.257 1673.374 536.501 1584.984 536.991 1577.57 537.033 1557.085 493.732 1557.085 493.731 1557.055 493.666 1537.105 537.257 1537.084 537.257 1476.681 668.691 1516.128 686.822 1555.575 704.952 1605.558 596.192 1656.744 704.391" style="fill:#f3922b"/><path d="M1863.074,69.52918a32.16507,32.16507,0,0,0-31.48317-1.1247L1443.92736,268.26355c-29.12513-13.4-158.80523-72.82918-294.96545-131.5834C832.22115,0,789.78316,0,773.807,0c-43.68311,0-88.57574,24.581-133.43067,73.06035a463.01814,463.01814,0,0,0-42.86524,54.3502L348.97374,84.13769A32.17038,32.17038,0,1,0,337.93829,147.525L1434.0928,338.37707a32.21688,32.21688,0,0,0,20.26132-3.09973l359.80707-185.4998V807.20866l-367.127-154.513a32.15894,32.15894,0,0,0-17.39408-2.14049L338.54043,819.262a32.1709,32.1709,0,0,0,9.83116,63.58629l617.66377-95.50483L1042.05694,920.223a32.17239,32.17239,0,0,0,43.91559,11.93814L1264.33668,829.9728a32.17039,32.17039,0,0,0-.58853-56.15532l-46.43307-25.32757,213.15648-32.95882,403.38128,169.76974a32.17086,32.17086,0,0,0,44.64863-29.65057V96.99841A32.1663,32.1663,0,0,0,1863.074,69.52918ZM773.807,64.34028c10.58306,0,67.0693,9.473,349.557,131.36872,30.2048,13.03351,60.08653,26.09975,88.61842,38.68742L668.0431,139.691C694.858,105.65186,736.24586,64.34028,773.807,64.34028Zm408.6194,738.40728-100.50865,57.58371-47.78187-83.51774,78.49509-12.13711Z" style="fill:#f3922b"/><path d="M747.26874,323.26485v-.001a108.18852,108.18852,0,1,0-108.1501,114.50872q3.217,0,6.456-.18849A108.31484,108.31484,0,0,0,747.26874,323.26485Zm-56.014,52.56236a69.12616,69.12616,0,0,1-47.93267,23.21759,70.22756,70.22756,0,0,1-12.569-.39846c20.70181-10.09414,34.566-38.18162,32.68523-70.35713-1.89347-32.3928-19.1556-58.804-41.10266-66.21425A70.30377,70.30377,0,0,1,635.2,260.11c1.37707-.08063,2.74263-.12042,4.104-.12042a69.58794,69.58794,0,0,1,51.9508,115.83762Z" style="fill:#042f42"/><path d="M1342.93962,574.97838c.19426-.27083.38249-.54533.56261-.82638.1508-.23575.29479-.4749.43564-.7172.17148-.29453.33642-.5922.49219-.89641.12828-.25015.24871-.50344.366-.75922.14032-.30592.27436-.61406.399-.92835.10943-.2762.20944-.5558.30631-.8375.10315-.30055.20185-.60228.29034-.90937.09136-.316.17069-.63513.24583-.95688.06623-.28353.12985-.56719.18326-.85531.066-.35461.11729-.71236.16362-1.07247.03456-.27.06807-.5397.09137-.81315.03194-.37516.04713-.75294.05708-1.13268.00471-.1741.02618-.34375.02618-.519V395.21622c0-.04844-.00733-.09569-.00786-.144-.00445-.64337-.03613-1.28191-.10367-1.91258-.00707-.06755-.02147-.13339-.02932-.20067-.0665-.56654-.15918-1.126-.27437-1.6792-.0377-.18143-.08378-.35945-.12671-.53944q-.15984-.66994-.365-1.323c-.05865-.1864-.11729-.372-.18169-.55646-.1618-.46352-.343-.91775-.53879-1.36582-.05707-.13051-.10629-.26389-.166-.39309q-.39192-.84432-.86133-1.64582c-.08011-.13666-.17148-.26638-.255-.40121-.2461-.39689-.50345-.786-.77755-1.1641-.1275-.1758-.25971-.34728-.39349-.51889q-.40252-.51777-.84091-1.00636c-.13168-.14752-.25944-.29728-.3961-.44087-.43407-.45711-.88437-.89968-1.36346-1.31372v-.00013l-.00105-.00092c-.47753-.41286-.98254-.79587-1.50169-1.162-.15289-.10774-.30971-.20657-.465-.30945q-.56589-.375-1.15952-.71184c-.18169-.10276-.36312-.20394-.54769-.30055-.40081-.20957-.81237-.40226-1.23072-.5846-.16965-.07422-.33616-.15525-.5079-.22436-.57387-.23052-1.15873-.44127-1.76192-.61864l-.03508-.01034-.01309-.0038-101.715-29.90765a19.27965,19.27965,0,0,0-8.67505-.511l-143.54458,24.36847c-.08168.01387-.1597.03678-.24112.0517-.19033.03482-.37725.08116-.56627.12161-.48277.10328-.9582.2224-1.426.36037-.19085.05642-.38065.11244-.56968.17475-.56208.1847-1.11265.39126-1.64961.62426-.06885.03-.1398.05354-.20865.0843a19.18589,19.18589,0,0,0-1.796.92757c-.13378.07775-.26311.163-.39558.244q-.69351.42568-1.34513.9057c-.08587.063-.17855.1127-.26338.17724-.05183.03953-.09582.08652-.14739.12645a19.30537,19.30537,0,0,0-1.51819,1.30141c-.06492.062-.12252.12985-.1864.19282q-.61458.60633-1.171,1.26659c-.12829.15145-.25264.30487-.37595.45985q-.49206.61831-.9328,1.27537c-.07749.11585-.16153.227-.23667.3444a19.22927,19.22927,0,0,0-.976,1.7165c-.06336.12606-.11781.256-.17855.38341q-.344.72159-.62832,1.47355c-.06388.16925-.12724.33772-.18641.50881-.19111.55135-.35919,1.11213-.5003,1.68429-.02042.0826-.04765.16258-.067.24557a19.26263,19.26263,0,0,0-.34584,1.96993c-.023.18247-.034.36652-.05184.54991-.02853.29361-.06806.58421-.08325.88136-.01073.21035-.001.41731-.00471.62662-.0021.11794-.02042.23326-.02042.35146V554.92126c0,.01362.00209.02657.00209.04019.00105.5901.034,1.17588.08849,1.758.00576.06284.00471.12737.01126.19007.05367.51784.13954,1.02888.23483,1.53769.0233.12632.0343.2567.06022.38223.02618.12684.06754.249.09634.375a19.16923,19.16923,0,0,0,2.52665,6.05363c.08456.13365.15839.27385.24635.4054.17515.261.37176.50541.55921.75713.18771.25329.36573.51313.566.75726.1.12187.21311.23222.31626.35147a19.159,19.159,0,0,0,4.94019,4.08868c.156.09032.30343.1936.46208.27973.09346.05053.19478.09033.28929.13954.47857.24937.96395.48735,1.465.69679.04267.0178.08849.03063.13168.04817.55685.228,1.125.43328,1.70616.60934.01152.00341.02173.00838.033.01178l98.165,29.56993c.05445.01636.11074.02081.16545.03678a19.297,19.297,0,0,0,2.39392.5329c.16807.02657.3351.04582.5037.06794a19.27073,19.27073,0,0,0,2.49837.18208l.0034.00026h.0021l.00262-.00013a19.31656,19.31656,0,0,0,2.458-.17213c.07775-.01.15525-.00537.23274-.01623L1329.95035,582.868c.178-.02513.34715-.07108.52308-.10079.3681-.06192.73357-.12868,1.09459-.21114.27149-.06192.538-.13365.80452-.20683.34767-.09542.6922-.19543,1.03176-.30958.27908-.09346.55214-.19635.82467-.30185.30762-.11939.61209-.2423.91186-.37661.2906-.13.57439-.26913.85661-.41273.26756-.13626.5325-.27554.79273-.42372.29165-.16585.57544-.34034.85688-.52046.239-.15316.47517-.30893.70712-.47229.27647-.195.5456-.39781.81106-.60646.22384-.17606.44428-.35488.66027-.54049.24845-.214.48957-.43446.7265-.6604.216-.20551.42752-.41417.63382-.6295.21415-.22384.42071-.45278.62361-.68644.20839-.23929.41129-.48211.6079-.7316C1342.59719,575.44818,1342.77024,575.21518,1342.93962,574.97838Zm-182.12753-16.46-59.56084-17.94176V415.022l59.56084,16.45474V558.51841Zm63.51507-173.44647,12.99163,3.81916-55.982,8.20576-10.59719-2.92785Zm-24.91091,154.72454V433.46341l43.90512-6.43559,64.63349-9.47367V546.98148l-108.53861,15.2964Z" style="fill:#042f42"/><path d="M343.44554,883.22527c-35.30756,0-64.68795-28.23475-87.32538-83.91882-17.67577-43.47786-31.20566-103.20729-39.12672-172.73228l-.16546-1.51112,63.957-7.00789.14138,1.29958c15.9217,139.7317,50.54544,194.00729,62.46054,199.33547a13.22935,13.22935,0,0,0,1.67867-1.09956l.74351-.55921c27.53-22.2196,67.596-142.33087,67.596-333.60077,0-190.84788-40.0336-311.09738-67.52692-333.50652l-.72676-.55292a13.55227,13.55227,0,0,0-1.752-1.16135c-8.71274,4.25374-41.57508,44.58266-59.72419,177.45622l-63.74756-8.70647c8.68866-63.61351,22.30337-117.87549,39.37282-156.92053,22.15571-50.68053,50.46585-76.37789,84.145-76.37789a63.40327,63.40327,0,0,1,30.60247,7.964h1.47447l8.66143,6.57854c29.36468,22.3683,52.79589,71.2089,69.64332,145.16461,15.64734,68.68513,23.91816,151.69812,23.91816,240.06232,0,88.54747-8.2991,171.69554-23.99984,240.454C436.82586,797.98278,413.28574,846.80767,383.77864,869l-8.59022,6.46126h-1.4996A63.3635,63.3635,0,0,1,343.44554,883.22527Zm-.64508-64.267h0Z" style="fill:#042f42"/><path d="M394.54705,616.31523c.20041-.27974.39441-.56275.58055-.853.15681-.24466.30617-.49324.45239-.74483.17671-.30382.34662-.61052.50737-.92416.13326-.2601.2584-.52334.3804-.78946.14412-.31455.28222-.63133.41024-.95439.11467-.2889.21926-.58133.32057-.87612.10551-.30788.2067-.61681.29728-.93136.09543-.32948.17816-.66262.2567-.99812.06767-.29073.13273-.58146.18758-.8769.06911-.37006.12265-.74352.17082-1.11933.03521-.2762.06951-.55214.09333-.83174.03338-.39127.04962-.78488.05969-1.181.00472-.17829.02684-.35212.02684-.53159V358.50121c0-.04752-.00733-.094-.00772-.14137a19.96127,19.96127,0,0,0-.108-1.99362c-.00589-.05432-.01741-.10734-.02369-.16153-.06951-.60293-.16886-1.19774-.29178-1.78588-.03743-.17933-.08312-.35566-.1254-.53355q-.16827-.70706-.38511-1.39606c-.05877-.186-.11716-.37123-.1813-.55528q-.25642-.73514-.56968-1.44409c-.05511-.12554-.1021-.25408-.1597-.37844q-.40821-.88042-.8985-1.716c-.07657-.13051-.16375-.25434-.24334-.38315-.26154-.42307-.53591-.83711-.82808-1.2395-.12645-.17409-.25761-.34387-.38969-.51391q-.42923-.55273-.89732-1.07352c-.12776-.14255-.2512-.28746-.38328-.4266a19.93017,19.93017,0,0,0-2.993-2.585c-.141-.09922-.28615-.19033-.42936-.28562q-.61516-.40959-1.26267-.77507c-.17056-.096-.34073-.19124-.51378-.282-.44244-.23221-.89693-.44584-1.36032-.646-.14831-.06414-.29335-.13509-.443-.19557-.59978-.2419-1.21148-.46338-1.84255-.649l-148.657-43.70824a20.00118,20.00118,0,0,0-8.97664-.52884L16.62857,330.7021c-.08142.01388-.15905.03679-.24007.05158-.20905.03809-.41457.08875-.62231.13352-.48393.10419-.96081.22344-1.43022.36141-.20931.06166-.41731.12331-.62465.19177q-.84275.27784-1.64935.6244c-.0881.038-.17881.0682-.26638.10747a19.86376,19.86376,0,0,0-1.83942.95034c-.14582.08469-.28693.17737-.43079.26586q-.71079.43688-1.37917.92913c-.08823.06493-.18392.11624-.27123.18274-.053.04031-.09817.08835-.15066.1292a19.99912,19.99912,0,0,0-1.57513,1.35024c-.06336.0606-.11951.12684-.18182.18823-.42844.422-.83476.86447-1.2234,1.323-.13077.15433-.25709.3105-.38275.46837q-.51425.64541-.974,1.33191c-.07788.11624-.16231.22777-.23758.34558A19.943,19.943,0,0,0,2.135,341.421c-.06218.12383-.11532.25133-.175.37621q-.36267.75909-.66118,1.55078c-.06349.16834-.12658.33615-.18549.50619-.20172.58146-.37974,1.173-.52779,1.77685-.01846.075-.04333.14779-.06087.22305A19.96115,19.96115,0,0,0,.16376,347.909c-.02226.1779-.03312.3571-.05053.53591-.0305.31141-.07213.61994-.0881.93515-.01125.22306-.001.44258-.005.66445C.01806,350.161,0,350.27489,0,350.39165v241.408l.00144.02828A19.84391,19.84391,0,0,0,.102,593.81878l.00144.02474c.0631.6113.15839,1.21606.277,1.81493.01125.05747.01571.11729.02749.17462.064.3088.15668.60895.235.91356a19.8413,19.8413,0,0,0,1.7148,4.46306c.00694.01309.01231.027.01924.04.22214.41286.47177.8074.72153,1.20219.0966.153.1809.31338.2817.46392.17527.26114.37241.5054.55947.75752.20027.271.39113.54847.60528.80936.09556.1161.2029.22109.30107.335a19.83227,19.83227,0,0,0,5.28773,4.3497c.10983.06231.21245.13548.32359.19582.11414.06166.23745.11035.353.17.479.24793.963.48695,1.4636.69626.04948.02056.10262.03548.15237.05577.5702.233,1.15153.44349,1.7466.62387.013.00393.02474.00956.0377.01348l143.398,43.19721c.05668.017.11493.02173.17174.03822a19.963,19.963,0,0,0,2.47494.55083c.1758.02775.35095.04817.527.07108a18.07271,18.07271,0,0,0,5.12855.01047c.08169-.01047.16337-.00562.24505-.01714l214.95035-30.29355c.18614-.02618.36338-.07435.54755-.10551.37765-.06361.75255-.13208,1.12274-.21651.28444-.06492.56326-.14006.84234-.21664.35592-.09791.70883-.20014,1.0565-.31691.29243-.09791.57858-.20564.86421-.31625.31468-.12226.62636-.24793.93293-.38537.30434-.136.60148-.28183.89693-.43211.27332-.13941.544-.28143.80988-.43289.30421-.17292.60044-.35487.89379-.54284.2457-.15747.48826-.31743.72637-.48525.28824-.203.56837-.41417.84457-.63159.22947-.18052.45553-.36391.67688-.55411.25945-.22318.51078-.453.75792-.6888.22148-.21088.43839-.42516.65-.64586.22332-.2334.43878-.472.65032-.7155.21415-.2461.42281-.49572.62478-.75216C394.19113,616.80362,394.371,616.56132,394.54705,616.31523ZM143.398,608.12242l-103.45548-31.165V376.62937l79.96327,22.092L143.398,405.212V608.12242Zm85.05818-272.86707,56.80433,16.70148L164.63411,369.63876l-52.79484-14.58613ZM183.34046,569.7057V407.26745L350.758,382.72659l7.59028-1.11252V587.34875L183.34046,612.01383Z" style="fill:#f3922b"/><path d="M361.84918,1514.45437q-102.93459,0-156.83243-57.25448-53.90068-57.23462-53.9021-162.6175,0-52.37209,16.444-93.48632,16.44824-41.11424,45.07123-69.43774,28.62156-28.315,68.2143-42.9366,39.58564-14.61311,85.876-14.61877a275.13449,275.13449,0,0,1,48.72166,3.96268,318.17684,318.17684,0,0,1,38.37782,9.1346,190.34223,190.34223,0,0,1,27.40948,10.65609q10.95131,5.48416,15.828,8.52714l-27.40948,76.74428q-19.48413-10.35519-45.37212-17.66174-25.888-7.31507-58.77029-7.31222A129.727,129.727,0,0,0,322.563,1165.466a97.15124,97.15124,0,0,0-37.15154,23.4468q-16.14168,16.14594-25.88516,41.72169-9.74631,25.58142-9.7449,62.11984a221.71223,221.71223,0,0,0,6.39536,54.5124q6.39536,25.28337,20.70756,43.54974,14.30652,18.26636,37.45811,28.931,23.14592,10.66176,56.03389,10.65609a254.63261,254.63261,0,0,0,37.15154-2.43552,273.24747,273.24747,0,0,0,29.23754-5.78506,152.77646,152.77646,0,0,0,22.53846-7.61311q9.725-4.2579,17.65606-7.91968l26.19457,76.13114q-20.09727,12.19461-56.647,21.92532Q409.95772,1514.4487,361.84918,1514.45437Z" style="fill:#042f42"/><path d="M888.63585,1505.92723q-7.05108-21.99628-15.15243-45.18478-8.107-23.18-16.14593-46.1726H692.48886q-7.98782,23.09481-16.021,46.2975-8.0389,23.20553-14.96508,45.05988H562.83882q23.82717-68.203,45.2018-126.07341,21.38315-57.85628,41.84659-109.0248,20.46344-51.15433,40.31942-97.14244,19.85881-45.97674,41.2448-89.83588h90.063q20.80408,43.84779,41.00069,89.83588,20.18241,45.99378,40.68843,97.14244,20.506,51.16286,41.91471,109.0248,21.40869,57.86478,45.28129,126.07341ZM774.48454,1179.47164q-3.18491,9.19706-9.30491,25.01939-6.12285,15.83085-13.94319,36.57247-7.826,20.74446-17.49143,45.67869t-19.64308,52.304H834.799q-9.691-27.45491-18.76312-52.46293-9.07782-25.01088-17.253-45.76953-8.18367-20.73594-14.34059-36.54976Q778.2684,1188.45864,774.48454,1179.47164Z" style="fill:#042f42"/><path d="M1192.5984,1078.97966q95.01065,0,145.5632,33.802,50.54973,33.79915,50.54972,105.06212,0,44.46093-20.40383,72.17414-20.41234,27.71889-58.77029,43.54406,12.79071,15.84789,26.79635,36.2432,14.00847,20.41235,27.71037,42.63,13.71042,22.24324,26.49546,46.29183,12.79071,24.06561,23.75337,47.20018H1308.07816q-11.61553-20.70189-23.54331-42.02258-11.9136-21.315-24.446-41.4208-12.53525-20.09726-24.76392-38.06557-12.22866-17.95128-24.45734-32.5814h-46.89929v154.09035H1068.9605V1089.94232a539.67273,539.67273,0,0,1,64.25446-8.52714Q1166.401,1078.98818,1192.5984,1078.97966Zm5.47849,81.00218q-10.36372,0-18.57578.60746-8.21773.61314-15.5328,1.2206v114.50329h26.802q53.58986,0,76.73861-13.39818,23.1459-13.39533,23.14591-45.67868,0-31.0656-23.44681-44.15721Q1243.75558,1159.98184,1198.07689,1159.98184Z" style="fill:#042f42"/><path d="M1626.23937,1078.97966q94.3975,0,144.95574,33.18887,50.54973,33.20306,50.5554,108.71823,0,76.13967-51.16286,109.93883t-146.17634,33.802h-29.845v141.29964H1499.5585V1089.94232a538.62588,538.62588,0,0,1,65.77595-8.52714Q1600.05332,1078.98818,1626.23937,1078.97966Zm6.09162,81.00218q-10.36371,0-20.40383.60746-10.04862.61314-17.36085,1.2206v121.80983h29.845q49.332,0,74.30877-13.39817,24.95978-13.38683,24.96829-49.94226,0-17.66175-6.39252-29.23754A48.70973,48.70973,0,0,0,1699.021,1172.466q-11.871-6.99147-28.931-9.74206A238.85048,238.85048,0,0,0,1632.331,1159.98184Z" style="fill:#042f42"/></g></g></svg>