<svg width="97" height="32" viewBox="0 0 97 32" fill="none" xmlns="http://www.w3.org/2000/svg">
  <path
    d="M2.11608 8.9928L10.5519 0.433962C11.1281 -0.196189 11.3353 -0.135764 11.5317 0.587184L11.6072 6.69232C11.5856 7.64618 11.5166 8.05836 11.2295 8.45113L6.10848 13.7297C5.43949 14.5584 5.53012 14.8886 5.50639 15.2576C5.48265 15.6267 6.1538 16.7035 7.31268 16.7855C7.31268 16.7855 10.4483 16.7855 10.7785 16.7855C11.1087 16.7855 11.3396 17.3164 10.7785 17.8646L3.69794 24.9602C2.82177 25.7868 2.32542 25.7846 1.43846 25.4954C0.0767238 24.7315 0.0508271 24.028 0.00334995 22.7979V14.9533C-0.0398111 12.4694 0.316268 11.1444 2.11608 8.9928Z"
    fill="#FF6100"
  />
  <path
    d="M17.3929 23.0094L8.70031 31.5661C8.10684 32.1962 7.8932 32.1358 7.6925 31.4128L7.61481 25.3012C7.63639 24.3474 7.7076 23.9352 8.0011 23.5446L13.2797 18.2724C13.9681 17.4438 13.8753 17.1136 13.8991 16.7445C13.9228 16.3755 13.2279 15.2986 12.0367 15.2166H8.46724C8.12842 15.2166 7.88888 14.6858 8.46724 14.1376L15.7571 7.04193C16.6614 6.2154 17.1707 6.21756 18.0857 6.50674C19.4906 7.27069 19.5143 7.97637 19.5596 9.2043V17.051C19.6136 19.5349 19.2467 20.8578 17.3929 23.0094Z"
    fill="#FF6100"
  />
  <path
    d="M76.1977 10.0006C73.9534 10.0006 72.2981 10.7926 71.2795 12.3032V10.4624H67.0195V26.978H71.2795V18.0588C71.2795 16.7035 71.6097 15.6799 72.2701 14.9878C72.6165 14.645 73.0298 14.3771 73.4842 14.2007C73.9387 14.0244 74.4245 13.9434 74.9115 13.9628C75.9014 13.9628 76.6926 14.2599 77.2854 14.854C77.881 15.4497 78.1788 16.274 78.1788 17.3639V26.978H82.441V16.8351C82.441 14.7224 81.8475 13.0391 80.6584 11.8177C80.0781 11.2267 79.383 10.7606 78.6159 10.4481C77.8488 10.1357 77.0259 9.98336 76.1977 10.0006V10.0006Z"
    fill="#100F27"
  />
  <path
    d="M31.9382 26.9737H36.291V17.8472H45.4606V14.1117H36.291V7.79504H45.4606V3.99902H31.9382V26.9737Z"
    fill="#100F27"
  />
  <path d="M49.7573 26.8938V26.9737H54.0151V3.38184H49.7875L49.7573 26.8938Z" fill="#100F27" />
  <path d="M62.6559 10.4731H58.3959V26.9736H62.6559V10.4731Z" fill="#100F27" />
  <path
    d="M96.013 23.6395C95.4864 23.728 94.9542 23.7793 94.4204 23.7927C92.8148 23.7927 92.0335 23.1021 92.0335 21.6821V13.9304H95.7022V10.4775H92.0335V6.18945L87.7735 7.45191V10.4732H84.9681V13.9261H87.7735V21.7706C87.7762 22.4124 87.8603 23.0512 88.0239 23.6718C88.1909 24.3179 88.4843 24.9245 88.8871 25.4566C89.3371 26.034 89.9258 26.4883 90.5984 26.7773C91.4785 27.1386 92.4251 27.3092 93.3759 27.2779C94.2689 27.2609 95.159 27.1692 96.0367 27.0039L96.1015 26.9909V23.6265L96.013 23.6395Z"
    fill="#100F27"
  />
  <path
    d="M60.5108 3.13595C60.1719 3.12543 59.8344 3.18497 59.5195 3.31085C59.2046 3.43673 58.9191 3.62624 58.6808 3.86753C58.2218 4.33485 57.9645 4.96372 57.9645 5.61879C57.9645 6.27386 58.2218 6.90274 58.6808 7.37005C58.9186 7.61215 59.204 7.80235 59.519 7.92864C59.8339 8.05492 60.1717 8.11456 60.5108 8.10379C60.8521 8.11342 61.1918 8.05332 61.5091 7.92716C61.8263 7.80099 62.1145 7.61143 62.356 7.37005C62.5877 7.14104 62.7716 6.86833 62.8972 6.56772C63.0227 6.26711 63.0874 5.94457 63.0874 5.61879C63.0874 5.29302 63.0227 4.97048 62.8972 4.66987C62.7716 4.36926 62.5877 4.09654 62.356 3.86753C62.1141 3.62686 61.8258 3.43789 61.5086 3.31212C61.1914 3.18636 60.8519 3.12642 60.5108 3.13595Z"
    fill="#100F27"
  />
</svg>